<?xml version="1.0" encoding="utf-8"?>
<svg width="80px" height="80px" viewBox="0 0 80 80" version="1.1" xmlns:xlink="http://www.w3.org/1999/xlink" xmlns="http://www.w3.org/2000/svg">
  <desc>Created with Lunacy</desc>
  <path d="M42 0L38 0Q37.8975 0 37.7966 0.00932124Q37.6956 0.0186425 37.5971 0.037209Q37.4986 0.0557754 37.4033 0.0834357Q37.308 0.111096 37.2167 0.147624Q37.1254 0.184153 37.0388 0.229252Q36.9522 0.27435 36.871 0.327651Q36.7899 0.380953 36.7148 0.442021Q36.6398 0.50309 36.5714 0.571429Q36.5031 0.639767 36.442 0.714818Q36.381 0.789868 36.3277 0.871019Q36.2744 0.95217 36.2293 1.03876Q36.1842 1.12535 36.1476 1.21667Q36.1111 1.30799 36.0834 1.4033Q36.0558 1.49861 36.0372 1.59713Q36.0186 1.69564 36.0093 1.79657Q36 1.89749 36 2L36 36L2 36Q1.89749 36 1.79657 36.0093Q1.69564 36.0186 1.59713 36.0372Q1.49861 36.0558 1.4033 36.0834Q1.30799 36.1111 1.21667 36.1476Q1.12535 36.1842 1.03876 36.2293Q0.95217 36.2744 0.871019 36.3277Q0.789868 36.381 0.714818 36.442Q0.639767 36.5031 0.571429 36.5714Q0.50309 36.6398 0.442021 36.7148Q0.380953 36.7899 0.327651 36.871Q0.27435 36.9522 0.229252 37.0388Q0.184153 37.1254 0.147624 37.2167Q0.111096 37.308 0.0834357 37.4033Q0.0557754 37.4986 0.037209 37.5971Q0.0186425 37.6956 0.00932124 37.7966Q0 37.8975 0 38L0 42Q0 42.1025 0.00932124 42.2034Q0.0186425 42.3044 0.037209 42.4029Q0.0557754 42.5014 0.0834357 42.5967Q0.111096 42.692 0.147624 42.7833Q0.184153 42.8747 0.229252 42.9612Q0.27435 43.0478 0.327651 43.129Q0.380953 43.2101 0.442021 43.2852Q0.50309 43.3602 0.571429 43.4286Q0.639767 43.4969 0.714818 43.558Q0.789868 43.619 0.871019 43.6723Q0.95217 43.7257 1.03876 43.7708Q1.12535 43.8159 1.21667 43.8524Q1.30799 43.8889 1.4033 43.9166Q1.49861 43.9442 1.59713 43.9628Q1.69564 43.9814 1.79657 43.9907Q1.89749 44 2 44L36 44L36 78Q36 78.1025 36.0093 78.2034Q36.0186 78.3044 36.0372 78.4029Q36.0558 78.5014 36.0834 78.5967Q36.1111 78.692 36.1476 78.7833Q36.1842 78.8747 36.2293 78.9613Q36.2744 79.0478 36.3277 79.129Q36.381 79.2101 36.442 79.2852Q36.5031 79.3602 36.5714 79.4286Q36.6398 79.4969 36.7148 79.558Q36.7899 79.619 36.871 79.6724Q36.9522 79.7257 37.0388 79.7708Q37.1254 79.8159 37.2167 79.8524Q37.308 79.8889 37.4033 79.9166Q37.4986 79.9442 37.5971 79.9628Q37.6956 79.9814 37.7966 79.9907Q37.8975 80 38 80L42 80Q42.1025 80 42.2034 79.9907Q42.3044 79.9814 42.4029 79.9628Q42.5014 79.9442 42.5967 79.9166Q42.692 79.8889 42.7833 79.8524Q42.8747 79.8159 42.9612 79.7708Q43.0478 79.7257 43.129 79.6724Q43.2101 79.619 43.2852 79.558Q43.3602 79.4969 43.4286 79.4286Q43.4969 79.3602 43.558 79.2852Q43.619 79.2101 43.6724 79.129Q43.7257 79.0478 43.7708 78.9613Q43.8159 78.8747 43.8524 78.7833Q43.8889 78.692 43.9166 78.5967Q43.9442 78.5014 43.9628 78.4029Q43.9814 78.3044 43.9907 78.2034Q44 78.1025 44 78L44 44L78 44Q78.1025 44 78.2034 43.9907Q78.3044 43.9814 78.4029 43.9628Q78.5014 43.9442 78.5967 43.9166Q78.692 43.8889 78.7833 43.8524Q78.8747 43.8159 78.9613 43.7708Q79.0478 43.7257 79.129 43.6724Q79.2101 43.619 79.2852 43.558Q79.3602 43.4969 79.4286 43.4286Q79.4969 43.3602 79.558 43.2852Q79.619 43.2101 79.6724 43.129Q79.7257 43.0478 79.7708 42.9612Q79.8159 42.8747 79.8524 42.7833Q79.8889 42.692 79.9166 42.5967Q79.9442 42.5014 79.9628 42.4029Q79.9814 42.3044 79.9907 42.2034Q80 42.1025 80 42L80 38Q80 37.8975 79.9907 37.7966Q79.9814 37.6956 79.9628 37.5971Q79.9442 37.4986 79.9166 37.4033Q79.8889 37.308 79.8524 37.2167Q79.8159 37.1254 79.7708 37.0388Q79.7257 36.9522 79.6724 36.871Q79.619 36.7899 79.558 36.7148Q79.4969 36.6398 79.4286 36.5714Q79.3602 36.5031 79.2852 36.442Q79.2101 36.381 79.129 36.3277Q79.0478 36.2744 78.9613 36.2293Q78.8747 36.1842 78.7833 36.1476Q78.692 36.1111 78.5967 36.0834Q78.5014 36.0558 78.4029 36.0372Q78.3044 36.0186 78.2034 36.0093Q78.1025 36 78 36L44 36L44 2Q44 1.89749 43.9907 1.79657Q43.9814 1.69564 43.9628 1.59713Q43.9442 1.49861 43.9166 1.4033Q43.8889 1.30799 43.8524 1.21667Q43.8159 1.12535 43.7708 1.03876Q43.7257 0.95217 43.6724 0.871019Q43.619 0.789868 43.558 0.714818Q43.4969 0.639767 43.4286 0.571429Q43.3602 0.50309 43.2852 0.442021Q43.2101 0.380953 43.129 0.327651Q43.0478 0.27435 42.9612 0.229252Q42.8747 0.184153 42.7833 0.147624Q42.692 0.111096 42.5967 0.0834357Q42.5014 0.0557754 42.4029 0.037209Q42.3044 0.0186425 42.2034 0.00932124Q42.1025 0 42 0Z" id="Combined-Shape" fill="#C4F4FF" fill-rule="evenodd" stroke="none" />
</svg>