<?xml version="1.0" encoding="utf-8"?>
<svg width="12px" height="12px" viewBox="0 0 12 12" version="1.1" xmlns:xlink="http://www.w3.org/1999/xlink" xmlns="http://www.w3.org/2000/svg">
  <desc>Created with Lunacy</desc>
  <path d="M4.8864 5.42304L4.8864 0.90384C4.8864 0.40512 5.29152 0 5.79024 0C6.28896 0 6.69408 0.40512 6.69408 0.90384L6.69408 5.42304C6.69408 5.92176 6.28896 6.32688 5.79024 6.32688C5.29152 6.32688 4.8864 5.92176 4.8864 5.42304ZM9.37296 1.32528C9.08016 1.09344 8.65296 1.14432 8.42112 1.4376C8.18928 1.73136 8.23968 2.1576 8.53344 2.38992C9.60864 3.23808 10.225 4.50816 10.225 5.8752C10.225 8.32032 8.23536 10.3099 5.79072 10.3099C3.3456 10.3099 1.356 8.32032 1.356 5.8752C1.356 4.50864 1.97184 3.23904 3.04608 2.39136C3.33984 2.15952 3.39024 1.73328 3.1584 1.43904C2.92656 1.14528 2.5008 1.09536 2.20608 1.32672C0.804 2.43312 0 4.09104 0 5.8752C0 9.06816 2.59776 11.6654 5.79024 11.6654C8.98272 11.6654 11.5805 9.06768 11.5805 5.8752C11.5805 4.09008 10.7755 2.43216 9.37296 1.32528Z" id="Shape" fill="#FFFFFF" stroke="none" />
</svg>