<?xml version="1.0" encoding="utf-8"?>
<svg width="12px" height="12px" viewBox="0 0 12 12" version="1.1" xmlns:xlink="http://www.w3.org/1999/xlink" xmlns="http://www.w3.org/2000/svg">
  <desc>Created with Lunacy</desc>
  <g id="edit-4">
    <path d="M10.8501 6.54494C10.6884 6.54494 10.5573 6.68328 10.5573 6.85396L10.5573 9.59767C10.5567 10.1095 10.1639 10.5242 9.67896 10.5247L1.46389 10.5247C0.978979 10.5242 0.586129 10.1095 0.585557 9.59767L0.585557 1.54507C0.586129 1.03339 0.978979 0.618632 1.46389 0.618028L4.06345 0.618028C4.22516 0.618028 4.35623 0.479696 4.35623 0.309014C4.35623 0.138453 4.22516 0 4.06345 0L1.46389 0C0.655778 0.000965669 0.000914933 0.692143 0 1.54507L0 9.59779C0.000914933 10.4507 0.655778 11.1419 1.46389 11.1429L9.67896 11.1429C10.4871 11.1419 11.1419 10.4507 11.1429 9.59779L11.1429 6.85396C11.1429 6.68328 11.0118 6.54494 10.8501 6.54494Z" transform="translate(0 0.8571429)" id="Shape" fill="#FFFFFF" stroke="none" />
    <path d="M7.84399 0.385115C7.33046 -0.128372 6.4979 -0.128372 5.98437 0.385115L0.771201 5.59782C0.735474 5.63354 0.709678 5.67782 0.696209 5.72644L0.0106629 8.2012C-0.0175305 8.30266 0.0111195 8.41132 0.0855411 8.48585C0.160077 8.56026 0.268741 8.58891 0.370215 8.56083L2.84519 7.87523C2.89381 7.86177 2.9381 7.83597 2.97383 7.80025L8.18688 2.58743C8.69961 2.0736 8.69961 1.2418 8.18688 0.727971L7.84399 0.385115ZM1.40789 5.78773L5.67447 1.52143L7.05047 2.89731L2.78378 7.16361L1.40789 5.78773ZM1.13304 6.33923L2.23235 7.43856L0.711733 7.85983L1.13304 6.33923ZM7.77368 2.17427L7.46378 2.48414L6.08767 1.10815L6.39768 0.798278C6.68292 0.513058 7.14543 0.513058 7.43068 0.798278L7.77368 1.14113C8.05847 1.4267 8.05847 1.88882 7.77368 2.17427L7.77368 2.17427Z" transform="translate(3.428571 0)" id="Shape" fill="#FFFFFF" stroke="none" />
  </g>
</svg>