<?xml version="1.0" encoding="utf-8"?>
<svg width="32px" height="32px" viewBox="0 0 32 32" version="1.1" xmlns:xlink="http://www.w3.org/1999/xlink" xmlns="http://www.w3.org/2000/svg">
  <desc>Created with Lunacy</desc>
  <g id="Group-4">
    <g id="Group-9">
      <path d="M8.73819 0L23.2618 0Q23.4856 0 23.7079 0.0101865Q23.9303 0.0203731 24.1506 0.0407254Q24.371 0.0610777 24.5889 0.0915543Q24.8069 0.122031 25.022 0.162569Q25.2371 0.203108 25.4489 0.253626Q25.6608 0.304144 25.8689 0.364538Q26.077 0.424933 26.2809 0.49508Q26.4849 0.565228 26.6843 0.644985Q26.8837 0.724742 27.0781 0.813947Q27.2725 0.903152 27.4616 1.00162Q27.6506 1.10009 27.8339 1.20763Q28.0173 1.31516 28.1944 1.43154Q28.3716 1.54792 28.5423 1.67291Q28.713 1.79789 28.8769 1.93123Q29.0408 2.06457 29.1975 2.20599Q29.3542 2.34741 29.5034 2.49663Q29.6526 2.64584 29.794 2.80254Q29.9354 2.95924 30.0688 3.12311Q30.2021 3.28698 30.3271 3.45768Q30.4521 3.62838 30.5685 3.80557Q30.6848 3.98275 30.7924 4.16607Q30.8999 4.34938 30.9984 4.53844Q31.0969 4.7275 31.1861 4.92193Q31.2753 5.11635 31.355 5.31575Q31.4348 5.51514 31.5049 5.71909Q31.5751 5.92305 31.6355 6.13115Q31.6959 6.33925 31.7464 6.55107Q31.7969 6.76289 31.8374 6.97799Q31.878 7.1931 31.9084 7.41106Q31.9389 7.62902 31.9593 7.84938Q31.9796 8.06974 31.9898 8.29206Q32 8.51437 32 8.73819L32 23.2618Q32 23.4856 31.9898 23.7079Q31.9796 23.9303 31.9593 24.1506Q31.9389 24.371 31.9084 24.5889Q31.878 24.8069 31.8374 25.022Q31.7969 25.2371 31.7464 25.4489Q31.6959 25.6608 31.6355 25.8689Q31.5751 26.077 31.5049 26.2809Q31.4348 26.4849 31.355 26.6843Q31.2753 26.8837 31.1861 27.0781Q31.0969 27.2725 30.9984 27.4616Q30.8999 27.6506 30.7924 27.8339Q30.6848 28.0173 30.5685 28.1944Q30.4521 28.3716 30.3271 28.5423Q30.2021 28.713 30.0688 28.8769Q29.9354 29.0408 29.794 29.1975Q29.6526 29.3542 29.5034 29.5034Q29.3542 29.6526 29.1975 29.794Q29.0408 29.9354 28.8769 30.0688Q28.713 30.2021 28.5423 30.3271Q28.3716 30.4521 28.1944 30.5685Q28.0173 30.6848 27.8339 30.7924Q27.6506 30.8999 27.4616 30.9984Q27.2725 31.0969 27.0781 31.1861Q26.8837 31.2753 26.6843 31.355Q26.4849 31.4348 26.2809 31.5049Q26.077 31.5751 25.8689 31.6355Q25.6608 31.6959 25.4489 31.7464Q25.2371 31.7969 25.022 31.8374Q24.8069 31.878 24.5889 31.9084Q24.371 31.9389 24.1506 31.9593Q23.9303 31.9796 23.7079 31.9898Q23.4856 32 23.2618 32L8.73819 32Q8.51437 32 8.29206 31.9898Q8.06974 31.9796 7.84938 31.9593Q7.62902 31.9389 7.41106 31.9084Q7.1931 31.878 6.97799 31.8374Q6.76289 31.7969 6.55107 31.7464Q6.33925 31.6959 6.13115 31.6355Q5.92305 31.5751 5.71909 31.5049Q5.51514 31.4348 5.31574 31.355Q5.11635 31.2753 4.92193 31.1861Q4.7275 31.0969 4.53844 30.9984Q4.34938 30.8999 4.16607 30.7924Q3.98275 30.6848 3.80557 30.5685Q3.62838 30.4521 3.45768 30.3271Q3.28698 30.2021 3.12311 30.0688Q2.95924 29.9354 2.80254 29.794Q2.64584 29.6526 2.49663 29.5034Q2.34741 29.3542 2.20599 29.1975Q2.06457 29.0408 1.93123 28.8769Q1.79789 28.713 1.67291 28.5423Q1.54792 28.3716 1.43154 28.1944Q1.31516 28.0173 1.20763 27.8339Q1.10009 27.6506 1.00162 27.4616Q0.903152 27.2725 0.813947 27.0781Q0.724742 26.8837 0.644985 26.6843Q0.565228 26.4849 0.49508 26.2809Q0.424933 26.077 0.364538 25.8689Q0.304144 25.6608 0.253626 25.4489Q0.203108 25.2371 0.162569 25.022Q0.122031 24.8069 0.0915543 24.5889Q0.0610777 24.371 0.0407254 24.1506Q0.0203731 23.9303 0.0101865 23.7079Q0 23.4856 0 23.2618L0 8.73819Q0 8.51437 0.0101865 8.29206Q0.0203731 8.06974 0.0407254 7.84938Q0.0610777 7.62902 0.0915543 7.41106Q0.122031 7.1931 0.162569 6.97799Q0.203108 6.76289 0.253626 6.55107Q0.304144 6.33925 0.364538 6.13115Q0.424933 5.92305 0.49508 5.71909Q0.565228 5.51514 0.644985 5.31574Q0.724742 5.11635 0.813947 4.92193Q0.903152 4.7275 1.00162 4.53844Q1.10009 4.34938 1.20763 4.16607Q1.31516 3.98275 1.43154 3.80557Q1.54792 3.62838 1.67291 3.45768Q1.79789 3.28698 1.93123 3.12311Q2.06457 2.95924 2.20599 2.80254Q2.34741 2.64584 2.49663 2.49663Q2.64584 2.34741 2.80254 2.20599Q2.95924 2.06457 3.12311 1.93123Q3.28698 1.79789 3.45768 1.67291Q3.62838 1.54792 3.80557 1.43154Q3.98275 1.31516 4.16607 1.20763Q4.34938 1.10009 4.53844 1.00162Q4.7275 0.903152 4.92193 0.813947Q5.11635 0.724742 5.31575 0.644985Q5.51514 0.565228 5.71909 0.49508Q5.92305 0.424933 6.13115 0.364538Q6.33925 0.304144 6.55107 0.253626Q6.76289 0.203108 6.97799 0.162569Q7.1931 0.122031 7.41106 0.0915543Q7.62902 0.0610777 7.84938 0.0407254Q8.06974 0.0203731 8.29206 0.0101865Q8.51437 0 8.73819 0Z" id="Rectangle-9" fill="#FFFFFF" stroke="none" />
    </g>
    <g id="Group" transform="translate(4 4)">
      <g id="Group-3">
        <path d="M6.6351 0L10.3784 0L10.3784 3.74328Q10.3784 3.91323 10.3706 4.08204Q10.3629 4.25085 10.3475 4.41817Q10.332 4.5855 10.3089 4.751Q10.2857 4.9165 10.2549 5.07983Q10.2242 5.24317 10.1858 5.40401Q10.1474 5.56485 10.1016 5.72286Q10.0557 5.88088 10.0025 6.03575Q9.94919 6.19061 9.88863 6.34202Q9.82807 6.49342 9.76033 6.64105Q9.6926 6.78868 9.61783 6.93224Q9.54306 7.0758 9.4614 7.21499Q9.37975 7.35419 9.29138 7.48873Q9.20301 7.62327 9.1081 7.75289Q9.0132 7.88251 8.91195 8.00694Q8.8107 8.13136 8.70332 8.25035Q8.59594 8.36934 8.48264 8.48264Q8.36934 8.59594 8.25035 8.70332Q8.13136 8.8107 8.00694 8.91195Q7.88251 9.0132 7.75289 9.1081Q7.62327 9.20301 7.48873 9.29138Q7.35419 9.37975 7.21499 9.4614Q7.0758 9.54306 6.93224 9.61783Q6.78868 9.6926 6.64105 9.76033Q6.49342 9.82807 6.34202 9.88863Q6.19061 9.94919 6.03575 10.0025Q5.88088 10.0557 5.72286 10.1016Q5.56485 10.1474 5.40401 10.1858Q5.24317 10.2242 5.07983 10.2549Q4.9165 10.2857 4.751 10.3089Q4.5855 10.332 4.41817 10.3475Q4.25085 10.3629 4.08204 10.3706Q3.91323 10.3784 3.74328 10.3784L0 10.3784L0 6.6351Q0 6.46515 0.00773487 6.29634Q0.0154697 6.12753 0.0309237 5.96021Q0.0463777 5.79288 0.0695192 5.62738Q0.0926607 5.46188 0.123443 5.29854Q0.154224 5.13521 0.192584 4.97437Q0.230943 4.81353 0.276802 4.65551Q0.322661 4.4975 0.375925 4.34263Q0.42919 4.18777 0.489751 4.03636Q0.550313 3.88496 0.618048 3.73733Q0.685783 3.5897 0.760554 3.44614Q0.835324 3.30258 0.916977 3.16339Q0.998631 3.02419 1.087 2.88965Q1.17537 2.75511 1.27027 2.62549Q1.36518 2.49587 1.46643 2.37144Q1.56768 2.24702 1.67506 2.12803Q1.78244 2.00904 1.89574 1.89574Q2.00904 1.78244 2.12803 1.67506Q2.24702 1.56768 2.37144 1.46643Q2.49587 1.36518 2.62549 1.27027Q2.75511 1.17537 2.88965 1.087Q3.02419 0.99863 3.16339 0.916977Q3.30258 0.835324 3.44614 0.760554Q3.5897 0.685783 3.73733 0.618048Q3.88496 0.550313 4.03636 0.489751Q4.18777 0.42919 4.34263 0.375925Q4.4975 0.322661 4.65551 0.276802Q4.81353 0.230943 4.97437 0.192584Q5.13521 0.154224 5.29854 0.123443Q5.46188 0.0926607 5.62738 0.0695192Q5.79288 0.0463777 5.96021 0.0309237Q6.12753 0.0154697 6.29634 0.00773487Q6.46515 0 6.6351 0Z" id="Rectangle-16" fill="#EF5350" stroke="none" />
        <path d="M0 0L3.74328 0Q3.91323 0 4.08204 0.00773487Q4.25085 0.0154697 4.41817 0.0309237Q4.5855 0.0463777 4.751 0.0695192Q4.9165 0.0926607 5.07983 0.123443Q5.24317 0.154224 5.40401 0.192584Q5.56485 0.230943 5.72286 0.276802Q5.88088 0.322661 6.03575 0.375925Q6.19061 0.42919 6.34202 0.489751Q6.49342 0.550313 6.64105 0.618048Q6.78868 0.685783 6.93224 0.760554Q7.0758 0.835324 7.21499 0.916977Q7.35419 0.998631 7.48873 1.087Q7.62327 1.17537 7.75289 1.27027Q7.88251 1.36518 8.00694 1.46643Q8.13136 1.56768 8.25035 1.67506Q8.36934 1.78244 8.48264 1.89574Q8.59594 2.00904 8.70332 2.12803Q8.8107 2.24702 8.91195 2.37144Q9.0132 2.49587 9.1081 2.62549Q9.20301 2.75511 9.29138 2.88965Q9.37975 3.02419 9.4614 3.16339Q9.54306 3.30258 9.61783 3.44614Q9.6926 3.5897 9.76033 3.73733Q9.82807 3.88496 9.88863 4.03636Q9.94919 4.18777 10.0025 4.34263Q10.0557 4.4975 10.1016 4.65551Q10.1474 4.81353 10.1858 4.97437Q10.2242 5.13521 10.2549 5.29854Q10.2857 5.46188 10.3089 5.62738Q10.332 5.79288 10.3475 5.96021Q10.3629 6.12753 10.3706 6.29634Q10.3784 6.46515 10.3784 6.6351L10.3784 10.3784L6.6351 10.3784Q6.46515 10.3784 6.29634 10.3706Q6.12753 10.3629 5.96021 10.3475Q5.79288 10.332 5.62738 10.3089Q5.46188 10.2857 5.29854 10.2549Q5.13521 10.2242 4.97437 10.1858Q4.81353 10.1474 4.65551 10.1016Q4.4975 10.0557 4.34263 10.0025Q4.18777 9.94919 4.03636 9.88863Q3.88496 9.82807 3.73733 9.76033Q3.5897 9.6926 3.44614 9.61783Q3.30258 9.54306 3.16339 9.4614Q3.02419 9.37975 2.88965 9.29138Q2.75511 9.20301 2.62549 9.1081Q2.49587 9.0132 2.37144 8.91195Q2.24702 8.8107 2.12803 8.70332Q2.00904 8.59594 1.89574 8.48264Q1.78244 8.36934 1.67506 8.25035Q1.56768 8.13136 1.46643 8.00694Q1.36518 7.88251 1.27027 7.75289Q1.17537 7.62327 1.087 7.48873Q0.99863 7.35419 0.916977 7.21499Q0.835324 7.0758 0.760554 6.93224Q0.685783 6.78868 0.618048 6.64105Q0.550313 6.49342 0.489751 6.34202Q0.42919 6.19061 0.375925 6.03575Q0.322661 5.88088 0.276802 5.72286Q0.230943 5.56485 0.192584 5.40401Q0.154224 5.24317 0.123443 5.07983Q0.0926607 4.9165 0.0695192 4.751Q0.0463777 4.5855 0.0309237 4.41817Q0.0154697 4.25085 0.00773487 4.08204Q0 3.91323 0 3.74328L0 0Z" transform="translate(0 13.62162)" id="Rectangle-16-Copy-3" fill="#EF9A9A" stroke="none" />
        <path d="M0 0L3.74328 0Q3.91323 0 4.08204 0.00773487Q4.25085 0.0154697 4.41817 0.0309237Q4.5855 0.0463777 4.751 0.0695192Q4.9165 0.0926607 5.07983 0.123443Q5.24317 0.154224 5.40401 0.192584Q5.56485 0.230943 5.72286 0.276802Q5.88088 0.322661 6.03575 0.375925Q6.19061 0.42919 6.34202 0.489751Q6.49342 0.550313 6.64105 0.618048Q6.78868 0.685783 6.93224 0.760554Q7.0758 0.835324 7.21499 0.916977Q7.35419 0.998631 7.48873 1.087Q7.62327 1.17537 7.75289 1.27027Q7.88251 1.36518 8.00694 1.46643Q8.13136 1.56768 8.25035 1.67506Q8.36934 1.78244 8.48264 1.89574Q8.59594 2.00904 8.70332 2.12803Q8.8107 2.24702 8.91195 2.37144Q9.0132 2.49587 9.1081 2.62549Q9.20301 2.75511 9.29138 2.88965Q9.37975 3.02419 9.4614 3.16339Q9.54306 3.30258 9.61783 3.44614Q9.6926 3.5897 9.76033 3.73733Q9.82807 3.88496 9.88863 4.03636Q9.94919 4.18777 10.0025 4.34263Q10.0557 4.4975 10.1016 4.65551Q10.1474 4.81353 10.1858 4.97437Q10.2242 5.13521 10.2549 5.29854Q10.2857 5.46188 10.3089 5.62738Q10.332 5.79288 10.3475 5.96021Q10.3629 6.12753 10.3706 6.29634Q10.3784 6.46515 10.3784 6.6351L10.3784 10.3784L6.6351 10.3784Q6.46515 10.3784 6.29634 10.3706Q6.12753 10.3629 5.96021 10.3475Q5.79288 10.332 5.62738 10.3089Q5.46188 10.2857 5.29854 10.2549Q5.13521 10.2242 4.97437 10.1858Q4.81353 10.1474 4.65551 10.1016Q4.4975 10.0557 4.34263 10.0025Q4.18777 9.94919 4.03636 9.88863Q3.88496 9.82807 3.73733 9.76033Q3.5897 9.6926 3.44614 9.61783Q3.30258 9.54306 3.16339 9.4614Q3.02419 9.37975 2.88965 9.29138Q2.75511 9.20301 2.62549 9.1081Q2.49587 9.0132 2.37144 8.91195Q2.24702 8.8107 2.12803 8.70332Q2.00904 8.59594 1.89574 8.48264Q1.78244 8.36934 1.67506 8.25035Q1.56768 8.13136 1.46643 8.00694Q1.36518 7.88251 1.27027 7.75289Q1.17537 7.62327 1.087 7.48873Q0.99863 7.35419 0.916977 7.21499Q0.835324 7.0758 0.760554 6.93224Q0.685783 6.78868 0.618048 6.64105Q0.550313 6.49342 0.489751 6.34202Q0.42919 6.19061 0.375925 6.03575Q0.322661 5.88088 0.276802 5.72286Q0.230943 5.56485 0.192584 5.40401Q0.154224 5.24317 0.123443 5.07983Q0.0926607 4.9165 0.0695192 4.751Q0.0463777 4.5855 0.0309237 4.41817Q0.0154697 4.25085 0.00773487 4.08204Q0 3.91323 0 3.74328L0 0Z" transform="translate(13.62162 0)" id="Rectangle-16-Copy" fill="#00B396" stroke="none" />
        <path d="M6.6351 0L10.3784 0L10.3784 3.74328Q10.3784 3.91323 10.3706 4.08204Q10.3629 4.25085 10.3475 4.41817Q10.332 4.5855 10.3089 4.751Q10.2857 4.9165 10.2549 5.07983Q10.2242 5.24317 10.1858 5.40401Q10.1474 5.56485 10.1016 5.72286Q10.0557 5.88088 10.0025 6.03575Q9.94919 6.19061 9.88863 6.34202Q9.82807 6.49342 9.76033 6.64105Q9.6926 6.78868 9.61783 6.93224Q9.54306 7.0758 9.4614 7.21499Q9.37975 7.35419 9.29138 7.48873Q9.20301 7.62327 9.1081 7.75289Q9.0132 7.88251 8.91195 8.00694Q8.8107 8.13136 8.70332 8.25035Q8.59594 8.36934 8.48264 8.48264Q8.36934 8.59594 8.25035 8.70332Q8.13136 8.8107 8.00694 8.91195Q7.88251 9.0132 7.75289 9.1081Q7.62327 9.20301 7.48873 9.29138Q7.35419 9.37975 7.21499 9.4614Q7.0758 9.54306 6.93224 9.61783Q6.78868 9.6926 6.64105 9.76033Q6.49342 9.82807 6.34202 9.88863Q6.19061 9.94919 6.03575 10.0025Q5.88088 10.0557 5.72286 10.1016Q5.56485 10.1474 5.40401 10.1858Q5.24317 10.2242 5.07983 10.2549Q4.9165 10.2857 4.751 10.3089Q4.5855 10.332 4.41817 10.3475Q4.25085 10.3629 4.08204 10.3706Q3.91323 10.3784 3.74328 10.3784L0 10.3784L0 6.6351Q0 6.46515 0.00773487 6.29634Q0.0154697 6.12753 0.0309237 5.96021Q0.0463777 5.79288 0.0695192 5.62738Q0.0926607 5.46188 0.123443 5.29854Q0.154224 5.13521 0.192584 4.97437Q0.230943 4.81353 0.276802 4.65551Q0.322661 4.4975 0.375925 4.34263Q0.42919 4.18777 0.489751 4.03636Q0.550313 3.88496 0.618048 3.73733Q0.685783 3.5897 0.760554 3.44614Q0.835324 3.30258 0.916977 3.16339Q0.998631 3.02419 1.087 2.88965Q1.17537 2.75511 1.27027 2.62549Q1.36518 2.49587 1.46643 2.37144Q1.56768 2.24702 1.67506 2.12803Q1.78244 2.00904 1.89574 1.89574Q2.00904 1.78244 2.12803 1.67506Q2.24702 1.56768 2.37144 1.46643Q2.49587 1.36518 2.62549 1.27027Q2.75511 1.17537 2.88965 1.087Q3.02419 0.99863 3.16339 0.916977Q3.30258 0.835324 3.44614 0.760554Q3.5897 0.685783 3.73733 0.618048Q3.88496 0.550313 4.03636 0.489751Q4.18777 0.42919 4.34263 0.375925Q4.4975 0.322661 4.65551 0.276802Q4.81353 0.230943 4.97437 0.192584Q5.13521 0.154224 5.29854 0.123443Q5.46188 0.0926607 5.62738 0.0695192Q5.79288 0.0463777 5.96021 0.0309237Q6.12753 0.0154697 6.29634 0.00773487Q6.46515 0 6.6351 0Z" transform="translate(13.62162 13.62162)" id="Rectangle-16-Copy-4" fill="#03DAC4" stroke="none" />
      </g>
    </g>
  </g>
</svg>