<?xml version="1.0" encoding="utf-8"?>
<svg width="14px" height="16px" viewBox="0 0 14 16" version="1.1" xmlns:xlink="http://www.w3.org/1999/xlink" xmlns="http://www.w3.org/2000/svg">
  <desc>Created with Lunacy</desc>
  <path d="M13.8756 2.75732C13.8162 2.69503 13.7401 2.66373 13.6476 2.66373L10.5828 2.66373L9.88852 0.926105C9.78937 0.669376 9.61081 0.450843 9.35308 0.270469C9.0951 0.0901321 8.83379 0 8.56939 0L5.39549 0C5.13109 0 4.86985 0.0901321 4.61198 0.270469C4.35407 0.450843 4.17554 0.669339 4.07633 0.926105L3.38206 2.66373L0.317345 2.66373C0.224695 2.66373 0.148754 2.69503 0.0892109 2.75732C0.0298412 2.81975 0 2.89957 0 2.99667L0 3.66269C0 3.75978 0.0297022 3.8396 0.0892109 3.90192C0.148754 3.96432 0.224834 3.99552 0.317345 3.99552L1.26941 3.99552L1.26941 13.9017C1.26941 14.4776 1.4248 14.9683 1.73555 15.374C2.04636 15.78 2.41995 15.9828 2.85638 15.9828L11.1085 15.9828C11.545 15.9828 11.9186 15.773 12.2293 15.3534C12.5401 14.9336 12.6954 14.4359 12.6954 13.8602L12.6954 3.99552L13.6476 3.99552C13.7401 3.99552 13.8162 3.96432 13.8756 3.90192C13.9349 3.83964 13.9649 3.75978 13.9649 3.66269L13.9649 2.99667C13.9649 2.89957 13.935 2.81975 13.8756 2.75732ZM5.24677 1.44612C5.29301 1.38373 5.34925 1.34546 5.41536 1.33168L8.55942 1.33168C8.62553 1.34557 8.68188 1.3838 8.72804 1.44612L9.20429 2.66358L4.76076 2.66358L5.24677 1.44612ZM11.4259 13.8603C11.4259 14.0128 11.4029 14.1534 11.3565 14.2816C11.3102 14.4098 11.2621 14.5035 11.2126 14.5625C11.1629 14.6216 11.1285 14.6509 11.1085 14.6509L2.85642 14.6509C2.83658 14.6509 2.80205 14.6216 2.75234 14.5625C2.70269 14.5035 2.65472 14.4098 2.60841 14.2816C2.56217 14.1534 2.53904 14.0127 2.53904 13.8603L2.53904 3.99552L11.4259 3.99552L11.4259 13.8603L11.4259 13.8603Z" id="Shape" fill="#FFFFFF" stroke="none" />
</svg>