<?xml version="1.0" encoding="utf-8"?>
<svg width="234px" height="190px" viewBox="0 0 234 190" version="1.1" xmlns:xlink="http://www.w3.org/1999/xlink" xmlns="http://www.w3.org/2000/svg">
  <desc>Created with Lunacy</desc>
  <defs>
    <filter filterUnits="userSpaceOnUse" color-interpolation-filters="sRGB" id="filter_1">
      <feFlood flood-opacity="0" result="BackgroundImageFix" />
      <feColorMatrix in="SourceAlpha" type="matrix" values="0 0 0 0 0 0 0 0 0 0 0 0 0 0 0 0 0 0 127 0" />
      <feOffset dx="0" dy="4" />
      <feGaussianBlur stdDeviation="6" />
      <feColorMatrix type="matrix" values="0 0 0 0 0 0 0 0 0 0 0 0 0 0 0 0 0 0 0.2980392 0" />
      <feBlend mode="normal" in2="BackgroundImageFix" result="effect0_dropShadow" />
      <feBlend mode="normal" in="SourceGraphic" in2="effect0_dropShadow" result="shape" />
    </filter>
  </defs>
  <g filter="url(#filter_1)">
    <path d="M192 9L187.5 0L183 9L5 9Q4.87193 9 4.74472 9.00583Q4.61751 9.01166 4.49142 9.0233Q4.36533 9.03495 4.24061 9.05239Q4.1159 9.06983 3.99281 9.09302Q3.86973 9.11622 3.74853 9.14513Q3.62732 9.17403 3.50825 9.20859Q3.38917 9.24315 3.27247 9.28329Q3.15577 9.32343 3.04167 9.36906Q2.92758 9.4147 2.81633 9.46574Q2.70508 9.51679 2.5969 9.57313Q2.48872 9.62947 2.38383 9.69101Q2.27894 9.75254 2.17755 9.81913Q2.07616 9.88572 1.97849 9.95724Q1.88081 10.0288 1.78704 10.1051Q1.69328 10.1814 1.60362 10.2623Q1.51395 10.3432 1.42857 10.4286Q1.34319 10.514 1.26227 10.6036Q1.18135 10.6933 1.10505 10.787Q1.02876 10.8808 0.957239 10.9785Q0.885721 11.0762 0.819128 11.1775Q0.752536 11.2789 0.691005 11.3838Q0.629473 11.4887 0.573129 11.5969Q0.516784 11.7051 0.465741 11.8163Q0.414698 11.9276 0.369061 12.0417Q0.323424 12.1558 0.283285 12.2725Q0.243147 12.3892 0.208589 12.5082Q0.174031 12.6273 0.145125 12.7485Q0.116219 12.8697 0.0930224 12.9928Q0.0698261 13.1159 0.0523874 13.2406Q0.0349487 13.3653 0.0233031 13.4914Q0.0116575 13.6175 0.00582875 13.7447Q0 13.8719 0 14L0 161Q0 161.128 0.00582875 161.255Q0.0116575 161.383 0.0233031 161.509Q0.0349487 161.635 0.0523874 161.759Q0.0698261 161.884 0.0930224 162.007Q0.116219 162.13 0.145125 162.251Q0.174032 162.373 0.208589 162.492Q0.243147 162.611 0.283285 162.728Q0.323424 162.844 0.369061 162.958Q0.414698 163.072 0.465741 163.184Q0.516784 163.295 0.573129 163.403Q0.629473 163.511 0.691005 163.616Q0.752536 163.721 0.819128 163.822Q0.885721 163.924 0.957238 164.022Q1.02876 164.119 1.10505 164.213Q1.18135 164.307 1.26227 164.396Q1.34319 164.486 1.42857 164.571Q1.51395 164.657 1.60362 164.738Q1.69328 164.819 1.78704 164.895Q1.88081 164.971 1.97849 165.043Q2.07616 165.114 2.17755 165.181Q2.27894 165.247 2.38383 165.309Q2.48872 165.371 2.5969 165.427Q2.70508 165.483 2.81633 165.534Q2.92758 165.585 3.04167 165.631Q3.15577 165.677 3.27247 165.717Q3.38917 165.757 3.50825 165.791Q3.62732 165.826 3.74853 165.855Q3.86973 165.884 3.99281 165.907Q4.1159 165.93 4.24061 165.948Q4.36533 165.965 4.49142 165.977Q4.61751 165.988 4.74472 165.994Q4.87193 166 5 166L205 166Q205.128 166 205.255 165.994Q205.383 165.988 205.509 165.977Q205.635 165.965 205.759 165.948Q205.884 165.93 206.007 165.907Q206.13 165.884 206.251 165.855Q206.373 165.826 206.492 165.791Q206.611 165.757 206.728 165.717Q206.844 165.677 206.958 165.631Q207.072 165.585 207.184 165.534Q207.295 165.483 207.403 165.427Q207.511 165.371 207.616 165.309Q207.721 165.247 207.822 165.181Q207.924 165.114 208.022 165.043Q208.119 164.971 208.213 164.895Q208.307 164.819 208.396 164.738Q208.486 164.657 208.571 164.571Q208.657 164.486 208.738 164.396Q208.819 164.307 208.895 164.213Q208.971 164.119 209.043 164.022Q209.114 163.924 209.181 163.822Q209.247 163.721 209.309 163.616Q209.371 163.511 209.427 163.403Q209.483 163.295 209.534 163.184Q209.585 163.072 209.631 162.958Q209.677 162.844 209.717 162.728Q209.757 162.611 209.791 162.492Q209.826 162.373 209.855 162.251Q209.884 162.13 209.907 162.007Q209.93 161.884 209.948 161.759Q209.965 161.635 209.977 161.509Q209.988 161.383 209.994 161.255Q210 161.128 210 161L210 14Q210 13.8719 209.994 13.7447Q209.988 13.6175 209.977 13.4914Q209.965 13.3653 209.948 13.2406Q209.93 13.1159 209.907 12.9928Q209.884 12.8697 209.855 12.7485Q209.826 12.6273 209.791 12.5082Q209.757 12.3892 209.717 12.2725Q209.677 12.1558 209.631 12.0417Q209.585 11.9276 209.534 11.8163Q209.483 11.7051 209.427 11.5969Q209.371 11.4887 209.309 11.3838Q209.247 11.2789 209.181 11.1775Q209.114 11.0762 209.043 10.9785Q208.971 10.8808 208.895 10.787Q208.819 10.6933 208.738 10.6036Q208.657 10.514 208.571 10.4286Q208.486 10.3432 208.396 10.2623Q208.307 10.1814 208.213 10.1051Q208.119 10.0288 208.022 9.95724Q207.924 9.88572 207.822 9.81913Q207.721 9.75254 207.616 9.69101Q207.511 9.62947 207.403 9.57313Q207.295 9.51679 207.184 9.46574Q207.072 9.4147 206.958 9.36906Q206.844 9.32343 206.728 9.28329Q206.611 9.24315 206.492 9.20859Q206.373 9.17403 206.252 9.14513Q206.13 9.11622 206.007 9.09302Q205.884 9.06983 205.759 9.05239Q205.635 9.03495 205.509 9.0233Q205.383 9.01166 205.255 9.00583Q205.128 9 205 9L192 9Z" transform="translate(12 8)" id="Combined-Shape" fill="#FFFFFF" fill-rule="evenodd" stroke="none" />
  </g>
</svg>