<?xml version="1.0" encoding="utf-8"?>
<svg width="20px" height="16px" viewBox="0 0 20 16" version="1.1" xmlns:xlink="http://www.w3.org/1999/xlink" xmlns="http://www.w3.org/2000/svg">
  <desc>Created with Lunacy</desc>
  <g id="comments">
    <path d="M11.7939 10.8308C13.0021 10.3132 13.9556 9.60858 14.6543 8.71674C15.3532 7.82511 15.7027 6.85411 15.7027 5.80371C15.7027 4.75327 15.3532 3.78231 14.6543 2.89052C13.9556 1.99885 13.0021 1.29417 11.7939 0.776417C10.5857 0.258739 9.27156 0 7.85137 0C6.43129 0 5.11719 0.258898 3.90891 0.776576C2.70078 1.29425 1.74723 1.99893 1.04844 2.89064C0.349492 3.78231 0 4.75323 0 5.80371C0 6.70289 0.264219 7.54962 0.792031 8.34295C1.31984 9.1364 2.0448 9.8053 2.96668 10.3493C2.89238 10.5308 2.81617 10.6969 2.73809 10.8482C2.65996 10.9993 2.56711 11.1447 2.45922 11.2846C2.35141 11.4245 2.26785 11.534 2.20832 11.6131C2.14883 11.6924 2.05219 11.804 1.91832 11.9475C1.78441 12.0911 1.69887 12.1855 1.6618 12.2307C1.6618 12.2232 1.64684 12.2403 1.61715 12.2818C1.58734 12.3234 1.57063 12.3422 1.56687 12.3387C1.5632 12.3346 1.54828 12.3535 1.5223 12.395C1.49629 12.4366 1.48324 12.4574 1.48324 12.4574L1.45531 12.5139C1.44422 12.5365 1.43672 12.559 1.43305 12.5819C1.4293 12.6044 1.42742 12.6291 1.42742 12.6555C1.42742 12.6818 1.43109 12.7063 1.43859 12.7291C1.45355 12.8272 1.49629 12.9064 1.56687 12.9671C1.63754 13.0275 1.71363 13.0576 1.79555 13.0576L1.82902 13.0576C2.2007 13.0047 2.52047 12.9443 2.78809 12.8762C3.93309 12.5739 4.96664 12.0902 5.88855 11.4253C6.55762 11.5462 7.21199 11.6067 7.85137 11.6067C9.27145 11.6071 10.5857 11.3485 11.7939 10.8308Z" transform="translate(0 0.03180149)" id="Shape" fill="#FFFFFF" stroke="none" />
    <path d="M12.3235 7.16955C12.8515 6.37963 13.1154 5.53163 13.1154 4.62471C13.1154 3.69525 12.8365 2.82608 12.2791 2.01763C11.7214 1.20921 10.9629 0.536536 10.0039 0C10.1747 0.56671 10.2602 1.141 10.2602 1.723C10.2602 2.73552 10.0115 3.69525 9.51301 4.60216C9.01488 5.5088 8.30109 6.30976 7.37176 7.0051C6.50926 7.63986 5.52781 8.12713 4.42734 8.4673C3.32719 8.80723 2.1784 8.97739 0.981328 8.97739C0.758359 8.97739 0.431172 8.96242 0 8.93225C1.49437 9.92953 3.2491 10.4284 5.26391 10.4284C5.9034 10.4284 6.55762 10.3678 7.22684 10.2469C8.14871 10.9122 9.1823 11.3956 10.3272 11.698C10.5949 11.7662 10.9146 11.8265 11.2864 11.8794C11.3755 11.8871 11.4575 11.8605 11.5318 11.8002C11.6061 11.7396 11.6545 11.6567 11.6767 11.551C11.6732 11.5056 11.6767 11.4807 11.6879 11.4771C11.6989 11.4735 11.697 11.4489 11.6823 11.4036C11.6676 11.3582 11.6601 11.3355 11.6601 11.3355L11.6323 11.279C11.6246 11.264 11.612 11.2431 11.5933 11.2168C11.5747 11.1906 11.5599 11.1715 11.5486 11.1601C11.5377 11.1488 11.5211 11.1298 11.4986 11.1036C11.4764 11.0774 11.4615 11.0602 11.454 11.0526C11.4168 11.0072 11.3314 10.9128 11.1976 10.7692C11.0636 10.6257 10.9671 10.5143 10.9077 10.435C10.8482 10.3556 10.7645 10.2461 10.6567 10.1062C10.549 9.96649 10.4559 9.82098 10.3779 9.6698C10.2998 9.51869 10.2236 9.35238 10.1493 9.17114C11.0709 8.62658 11.796 7.95974 12.3235 7.16955Z" transform="translate(6.869766 4.11208)" id="Shape" fill="#FFFFFF" stroke="none" />
    <path d="M1 2C1.55228 2 2 1.55228 2 1C2 0.447715 1.55228 0 1 0C0.447715 0 0 0.447715 0 1C0 1.55228 0.447715 2 1 2Z" transform="translate(3.5 4.5)" id="Oval-3" fill="#FFFFFF" stroke="none" />
    <path d="M1 2C1.55228 2 2 1.55228 2 1C2 0.447715 1.55228 0 1 0C0.447715 0 0 0.447715 0 1C0 1.55228 0.447715 2 1 2Z" transform="translate(7 4.5)" id="Oval-3-Copy" fill="#FFFFFF" stroke="none" />
    <path d="M1 2C1.55228 2 2 1.55228 2 1C2 0.447715 1.55228 0 1 0C0.447715 0 0 0.447715 0 1C0 1.55228 0.447715 2 1 2Z" transform="translate(10.5 4.5)" id="Oval-3-Copy-2" fill="#FFFFFF" stroke="none" />
  </g>
</svg>