<?xml version="1.0" encoding="utf-8"?>
<svg width="30px" height="24px" viewBox="0 0 30 24" version="1.1" xmlns:xlink="http://www.w3.org/1999/xlink" xmlns="http://www.w3.org/2000/svg">
  <desc>Created with Lunacy</desc>
  <g id="comments-copy">
    <path d="M17.6908 16.2462C19.5031 15.4698 20.9334 14.4129 21.9815 13.0751C23.0298 11.7377 23.554 10.2812 23.554 8.70557C23.554 7.12991 23.0298 5.67347 21.9815 4.33578C20.9334 2.99827 19.5031 1.94126 17.6908 1.16463C15.8785 0.388109 13.9073 0 11.7771 0C9.64693 0 7.67578 0.388347 5.86336 1.16486C4.05117 1.94138 2.62084 2.99839 1.57266 4.33596C0.524238 5.67347 0 7.12985 0 8.70557C0 10.0543 0.396328 11.3244 1.18805 12.5144C1.97977 13.7046 3.06721 14.7079 4.45002 15.5239C4.33857 15.7962 4.22426 16.0453 4.10713 16.2723C3.98994 16.499 3.85066 16.717 3.68883 16.9268C3.52711 17.1368 3.40178 17.301 3.31248 17.4197C3.22324 17.5386 3.07828 17.706 2.87748 17.9212C2.67662 18.1366 2.5483 18.2783 2.4927 18.3461C2.4927 18.3347 2.47025 18.3604 2.42572 18.4228C2.38102 18.4851 2.35594 18.5133 2.35031 18.508C2.3448 18.5019 2.32242 18.5302 2.28346 18.5926C2.24443 18.655 2.22486 18.6861 2.22486 18.6861L2.18297 18.7709C2.16633 18.8047 2.15508 18.8386 2.14957 18.8728C2.14395 18.9066 2.14113 18.9437 2.14113 18.9832C2.14113 19.0228 2.14664 19.0595 2.15789 19.0936C2.18033 19.2408 2.24443 19.3596 2.35031 19.4507C2.45631 19.5412 2.57045 19.5864 2.69332 19.5864L2.74354 19.5864C3.30105 19.5071 3.7807 19.4165 4.18213 19.3143C5.89963 18.8609 7.44996 18.1354 8.83283 17.138C9.83642 17.3194 10.818 17.41 11.7771 17.41C13.9072 17.4107 15.8786 17.0227 17.6908 16.2462Z" transform="translate(0 0.04770223)" id="Shape" fill="#0CA1D7" stroke="none" />
    <path d="M18.4852 10.7543C19.2773 9.56945 19.673 8.29745 19.673 6.93707C19.673 5.54287 19.2547 4.23913 18.4186 3.02644C17.5821 1.81382 16.4443 0.804804 15.0058 0C15.2621 0.850064 15.3904 1.7115 15.3904 2.5845C15.3904 4.10329 15.0172 5.54287 14.2695 6.90325C13.5223 8.26321 12.4516 9.46463 11.0576 10.5077C9.76389 11.4598 8.29172 12.1907 6.64102 12.7009C4.99078 13.2108 3.2676 13.4661 1.47199 13.4661C1.13754 13.4661 0.646758 13.4436 0 13.3984C2.24156 14.8943 4.87365 15.6426 7.89586 15.6426C8.8551 15.6426 9.83643 15.5518 10.8403 15.3704C12.2231 16.3682 13.7735 17.0934 15.4908 17.547C15.8923 17.6493 16.3719 17.7398 16.9296 17.8191C17.0633 17.8307 17.1863 17.7907 17.2977 17.7003C17.4092 17.6094 17.4818 17.485 17.5151 17.3265C17.5099 17.2584 17.5151 17.2211 17.5319 17.2157C17.5484 17.2103 17.5455 17.1733 17.5235 17.1054C17.5014 17.0373 17.4902 17.0033 17.4902 17.0033L17.4485 16.9185C17.4369 16.8961 17.418 16.8647 17.3899 16.8251C17.362 16.7858 17.3398 16.7572 17.3229 16.7401C17.3065 16.7232 17.2816 16.6947 17.2479 16.6553C17.2147 16.616 17.1922 16.5903 17.181 16.5789C17.1253 16.5109 16.997 16.3692 16.7964 16.1538C16.5954 15.9386 16.4507 15.7715 16.3615 15.6525C16.2722 15.5334 16.1467 15.3692 15.9851 15.1592C15.8235 14.9497 15.6839 14.7315 15.5668 14.5047C15.4497 14.278 15.3354 14.0286 15.2239 13.7567C16.6063 12.9399 17.694 11.9396 18.4852 10.7543Z" transform="translate(10.30465 6.168119)" id="Shape" fill="#0CA1D7" stroke="none" />
    <path d="M1.5 3C2.32843 3 3 2.32843 3 1.5C3 0.671573 2.32843 0 1.5 0C0.671573 0 0 0.671573 0 1.5C0 2.32843 0.671573 3 1.5 3Z" transform="translate(5.25 6.75)" id="Oval-3" fill="#0CA1D7" stroke="none" />
    <path d="M1.5 3C2.32843 3 3 2.32843 3 1.5C3 0.671573 2.32843 0 1.5 0C0.671573 0 0 0.671573 0 1.5C0 2.32843 0.671573 3 1.5 3Z" transform="translate(10.5 6.75)" id="Oval-3-Copy" fill="#0CA1D7" stroke="none" />
    <path d="M1.5 3C2.32843 3 3 2.32843 3 1.5C3 0.671573 2.32843 0 1.5 0C0.671573 0 0 0.671573 0 1.5C0 2.32843 0.671573 3 1.5 3Z" transform="translate(15.75 6.75)" id="Oval-3-Copy-2" fill="#0CA1D7" stroke="none" />
  </g>
</svg>