<?xml version="1.0" encoding="UTF-8"?>
<svg width="80px" height="80px" viewBox="0 0 80 80" version="1.1" xmlns="http://www.w3.org/2000/svg" xmlns:xlink="http://www.w3.org/1999/xlink">
    <!-- Generator: Sketch 50.2 (55047) - http://www.bohemiancoding.com/sketch -->
    <title>countries_icon</title>
    <desc>Created with Sketch.</desc>
    <defs></defs>
    <g id="Page-1" stroke="none" stroke-width="1" fill="none" fill-rule="evenodd">
        <g id="Artboard" transform="translate(-140.000000, -154.000000)" fill="#0097B3" fill-rule="nonzero">
            <g id="countries_icon" transform="translate(140.000000, 154.000000)">
                <path d="M68.1991011,11.7011236 C75.7447191,19.2467416 79.9000749,29.2791011 79.9000749,39.9502622 C79.9000749,50.6212734 75.7444195,60.6534831 68.1991011,68.1991011 C60.6533333,75.7445693 50.6211236,79.9000749 39.9501124,79.9000749 C29.2791011,79.9000749 19.2467416,75.7445693 11.7011236,68.1991011 C4.15550562,60.6534831 0,50.6211236 0,39.9502622 C0,29.2792509 4.15520599,19.2467416 11.7009738,11.7011236 C19.2467416,4.15550562 29.2791011,0 39.9501124,0 C50.6211236,0 60.6533333,4.15550562 68.1991011,11.7011236 Z M64.6678652,64.668015 C69.5881648,59.7477154 72.8597753,53.6187266 74.208839,46.9508614 C73.1573034,48.4985768 72.1516105,49.0729588 71.5289888,45.6083895 C70.8876404,39.96 65.6996255,43.5682397 62.4371536,41.5617978 C59.0035955,43.8759551 51.2865918,37.0626217 52.5980524,44.7472659 C54.621573,48.2134831 63.5225468,40.1084644 59.0859925,47.442397 C56.2555805,52.562397 48.7361798,63.900824 49.7144569,69.778427 C49.8377528,78.3414232 40.964794,71.5640449 37.9077154,68.7235955 C35.851236,63.0338577 37.2068914,53.088839 31.8295131,50.3023221 C25.9929588,50.0489888 20.9833708,49.5185019 18.7213483,42.9935581 C17.3601498,38.3252434 20.1698876,31.3757303 25.1725843,30.3029213 C32.4954307,25.7020225 35.1113109,35.6909363 41.9790262,35.8767041 C44.1113109,33.6455431 49.9234457,32.9361798 50.4053933,30.4343071 C45.8993258,29.6391011 56.1222472,26.6453933 49.9740824,24.9426217 C46.5820225,25.341573 44.3967041,28.4596255 46.1998502,31.1035206 C39.6269663,32.6361049 39.4164794,21.5916105 33.0981273,25.0753558 C32.9375281,30.583221 22.7812734,26.8609738 29.5841199,25.7441199 C31.9214981,24.7229963 25.7716854,21.7635955 29.0940824,22.3014232 C30.7261423,22.2127341 36.2205243,20.2873408 34.733633,18.9929588 C37.7929588,17.0937828 40.3640449,23.5411236 43.3586517,18.8461423 C45.5205993,15.2361049 42.451985,14.569588 39.7420225,16.3994007 C38.2142322,14.688839 42.4395506,10.9940075 46.1662921,9.39745318 C47.4082397,8.86531835 48.5944569,8.57543071 49.501573,8.65752809 C51.3788764,10.8260674 54.8503371,11.2016479 55.0320599,8.39670412 C50.383221,6.17033708 45.2572285,4.9941573 39.9501124,4.9941573 C32.3328839,4.9941573 25.0882397,7.41483146 19.0927341,11.8909363 C20.70397,12.6290637 21.6185768,13.5481648 20.066367,14.7229963 C18.8603745,18.3165543 13.9670412,23.1403745 9.67131086,22.4573783 C7.44074906,26.3036704 5.97183521,30.5414232 5.34397004,34.9829213 C8.94187266,36.1733333 9.77153558,38.5292884 8.99850187,39.3173034 C7.16524345,40.9159551 6.03835206,43.1820225 5.45797753,45.6626217 C6.62906367,52.8284644 9.99700375,59.4325094 15.2325094,64.6681648 C21.8346067,71.2702622 30.6127341,74.906367 39.9501124,74.906367 C49.287191,74.906367 58.0654682,71.2702622 64.6678652,64.668015 Z" id="Shape"></path>
            </g>
        </g>
    </g>
</svg>