<?xml version="1.0" encoding="UTF-8"?>
<svg width="16px" height="16px" viewBox="0 0 16 16" version="1.1" xmlns="http://www.w3.org/2000/svg" xmlns:xlink="http://www.w3.org/1999/xlink">
    <!-- Generator: Sketch 50.2 (55047) - http://www.bohemiancoding.com/sketch -->
    <title>date_icon</title>
    <desc>Created with Sketch.</desc>
    <defs></defs>
    <g id="Page-1" stroke="none" stroke-width="1" fill="none" fill-rule="evenodd">
        <g id="Artboard" transform="translate(-400.000000, -66.000000)" fill="#777777" fill-rule="nonzero">
            <g id="date_icon" transform="translate(400.000000, 66.000000)">
                <path d="M1.99677366,2.496 L1.99677366,0.499193416 C1.99677366,0.223242798 2.22001646,0 2.49603292,0 C2.7719177,0 2.99516049,0.223242798 2.99516049,0.499193416 L2.99516049,2.496 C2.99516049,2.77188477 2.7719177,2.99512757 2.49603292,2.99512757 C2.22001646,2.99516049 1.99677366,2.77188477 1.99677366,2.496 Z M10.4830947,2.99516049 C10.7589136,2.99516049 10.9822881,2.7719177 10.9822881,2.49603292 L10.9822881,0.499193416 C10.9822881,0.223242798 10.7589136,0 10.4830947,0 C10.207144,0 9.98373663,0.223242798 9.98373663,0.499193416 L9.98373663,2.496 C9.98373663,2.77188477 10.207144,2.99516049 10.4830947,2.99516049 Z M15.9740576,11.9804444 C15.9740576,14.1860741 14.1860082,15.9740905 11.9805432,15.9740905 C9.7752428,15.9740905 7.98706173,14.1860741 7.98706173,11.9804444 C7.98706173,9.77514403 9.77520988,7.98702881 11.9805432,7.98702881 C14.1860082,7.98702881 15.9740576,9.77511111 15.9740576,11.9804444 Z M14.9758025,11.9804444 C14.9758025,10.3290535 13.6322634,8.98534979 11.9805761,8.98534979 C10.3290206,8.98534979 8.98548148,10.3290206 8.98548148,11.9804444 C8.98548148,13.6321646 10.3290206,14.9756708 11.9805761,14.9756708 C13.6322634,14.9756708 14.9758025,13.6321646 14.9758025,11.9804444 Z M3.99358025,5.99028807 L1.99677366,5.99028807 L1.99677366,7.98702881 L3.99358025,7.98702881 L3.99358025,5.99028807 Z M1.99677366,10.9821893 L3.99358025,10.9821893 L3.99358025,8.98534979 L1.99677366,8.98534979 L1.99677366,10.9821893 Z M4.99190123,7.98702881 L6.98874074,7.98702881 L6.98874074,5.99028807 L4.99190123,5.99028807 L4.99190123,7.98702881 Z M4.99190123,10.9821893 L6.98874074,10.9821893 L6.98874074,8.98534979 L4.99190123,8.98534979 L4.99190123,10.9821893 Z M0.998452675,11.8811852 L0.998452675,4.99186831 L11.9805761,4.99186831 L11.9805761,6.9886749 L12.9789959,6.9886749 L12.9789959,3.09465021 C12.9789959,2.48819753 12.4953086,1.99674074 11.8977449,1.99674074 L11.4813827,1.99674074 L11.4813827,2.49603292 C11.4813827,3.04586008 11.0337778,3.49438683 10.4831276,3.49438683 C9.93231276,3.49438683 9.48474074,3.04586008 9.48474074,2.49603292 L9.48474074,1.99674074 L3.49432099,1.99674074 L3.49432099,2.49603292 C3.49432099,3.04586008 3.04681481,3.49438683 2.49606584,3.49438683 C1.94518519,3.49438683 1.49764609,3.04586008 1.49764609,2.49603292 L1.49764609,1.99674074 L1.08177778,1.99674074 C0.48418107,1.99674074 3.29218107e-05,2.48819753 3.29218107e-05,3.09465021 L3.29218107e-05,11.8812181 C3.29218107e-05,12.4856626 0.48418107,12.9790288 1.08177778,12.9790288 L6.98874074,12.9790288 L6.98874074,11.9804774 L1.08177778,11.9804774 C1.03654321,11.9804444 0.998452675,11.9337284 0.998452675,11.8811852 Z M9.98373663,7.98702881 L9.98373663,5.99028807 L7.98709465,5.99028807 L7.98709465,7.98702881 L9.98373663,7.98702881 Z M13.4781564,11.9804444 L11.9805432,11.9804444 L11.9805432,10.4828313 C11.9805432,10.2070453 11.7573004,9.98380247 11.4813498,9.98380247 C11.2053992,9.98380247 10.9822881,10.2070453 10.9822881,10.4828313 L10.9822881,12.4798025 C10.9822881,12.7556214 11.2053992,12.9789959 11.4813498,12.9789959 L13.4781564,12.9789959 C13.754107,12.9789959 13.9773498,12.7556214 13.9773498,12.4798025 C13.9773498,12.2038519 13.754107,11.9804444 13.4781564,11.9804444 Z" id="Shape"></path>
            </g>
        </g>
    </g>
</svg>