<?xml version="1.0" encoding="utf-8"?>
<svg width="20px" height="20px" viewBox="0 0 20 20" version="1.1" xmlns:xlink="http://www.w3.org/1999/xlink" xmlns="http://www.w3.org/2000/svg">
  <desc>Created with Lunacy</desc>
  <g id="edit-3">
    <path d="M18.6779 1.29255C16.9588 -0.430851 14.163 -0.430851 12.4439 1.29255L1.01407 12.7181C0.92471 12.8074 0.869391 12.9223 0.85237 13.0457L0.00556123 19.3181C-0.0199707 19.4968 0.0438591 19.6755 0.167263 19.7989C0.273646 19.9053 0.422583 19.9691 0.571519 19.9691C0.597051 19.9691 0.622582 19.9691 0.648114 19.9649L4.42684 19.4543C4.74173 19.4117 4.96301 19.1223 4.92045 18.8074C4.8779 18.4926 4.58854 18.2713 4.27365 18.3138L1.24386 18.7223L1.83535 14.3479L6.4396 18.9521C6.54599 19.0585 6.69492 19.1223 6.84386 19.1223C6.9928 19.1223 7.14173 19.0628 7.24811 18.9521L18.6779 7.5266C19.5119 6.69255 19.9715 5.58617 19.9715 4.40745C19.9715 3.22872 19.5119 2.12234 18.6779 1.29255ZM12.6651 2.69681L14.5843 4.61596L4.1545 15.0457L2.23535 13.1266L12.6651 2.69681ZM6.84811 17.7351L4.97152 15.8585L15.4013 5.42872L17.2779 7.30532L6.84811 17.7351ZM18.0779 6.48404L13.4864 1.89255C14.0694 1.4117 14.7971 1.14787 15.563 1.14787C16.4353 1.14787 17.2524 1.4883 17.8694 2.10106C18.4864 2.71383 18.8226 3.53511 18.8226 4.40745C18.8226 5.17766 18.5588 5.90106 18.0779 6.48404Z" transform="translate(1.324224E-05 0.001191489)" id="Shape" fill="#0097B3" stroke="none" />
  </g>
</svg>