<?xml version="1.0" encoding="UTF-8"?>
<svg width="100px" height="139px" viewBox="0 0 100 139" version="1.1" xmlns="http://www.w3.org/2000/svg" xmlns:xlink="http://www.w3.org/1999/xlink">
    <!-- Generator: Sketch 50.2 (55047) - http://www.bohemiancoding.com/sketch -->
    <title>Group 11 Copy</title>
    <desc>Created with Sketch.</desc>
    <defs>
        <circle id="path-1" cx="46" cy="46" r="46"></circle>
    </defs>
    <g id="Page-1" stroke="none" stroke-width="1" fill="none" fill-rule="evenodd">
        <g id="Desktop-Events-Page-Client" transform="translate(-144.000000, -78.000000)">
            <g id="Group-11-Copy" transform="translate(148.000000, 78.000000)">
                <circle id="Oval-3" stroke="#0097B3" stroke-width="7" opacity="0.504296875" cx="46" cy="89" r="46"></circle>
                <g id="Group-14">
                    <mask id="mask-2" fill="white">
                        <use xlink:href="#path-1"></use>
                    </mask>
                    <g id="Mask"></g>
                    <g mask="url(#mask-2)" fill="#0097B3" id="Combined-Shape" opacity="0.504631696">
                        <g transform="translate(-8.000000, -8.000000)">
                            <path d="M106,108 C104.895431,108 104,107.104569 104,106 C104,104.895431 104.895431,104 106,104 C107.104569,104 108,104.895431 108,106 C108,107.104569 107.104569,108 106,108 Z M98,108 C96.8954305,108 96,107.104569 96,106 C96,104.895431 96.8954305,104 98,104 C99.1045695,104 100,104.895431 100,106 C100,107.104569 99.1045695,108 98,108 Z M90,108 C88.8954305,108 88,107.104569 88,106 C88,104.895431 88.8954305,104 90,104 C91.1045695,104 92,104.895431 92,106 C92,107.104569 91.1045695,108 90,108 Z M82,108 C80.8954305,108 80,107.104569 80,106 C80,104.895431 80.8954305,104 82,104 C83.1045695,104 84,104.895431 84,106 C84,107.104569 83.1045695,108 82,108 Z M74,108 C72.8954305,108 72,107.104569 72,106 C72,104.895431 72.8954305,104 74,104 C75.1045695,104 76,104.895431 76,106 C76,107.104569 75.1045695,108 74,108 Z M66,108 C64.8954305,108 64,107.104569 64,106 C64,104.895431 64.8954305,104 66,104 C67.1045695,104 68,104.895431 68,106 C68,107.104569 67.1045695,108 66,108 Z M58,108 C56.8954305,108 56,107.104569 56,106 C56,104.895431 56.8954305,104 58,104 C59.1045695,104 60,104.895431 60,106 C60,107.104569 59.1045695,108 58,108 Z M50,108 C48.8954305,108 48,107.104569 48,106 C48,104.895431 48.8954305,104 50,104 C51.1045695,104 52,104.895431 52,106 C52,107.104569 51.1045695,108 50,108 Z M42,108 C40.8954305,108 40,107.104569 40,106 C40,104.895431 40.8954305,104 42,104 C43.1045695,104 44,104.895431 44,106 C44,107.104569 43.1045695,108 42,108 Z M34,108 C32.8954305,108 32,107.104569 32,106 C32,104.895431 32.8954305,104 34,104 C35.1045695,104 36,104.895431 36,106 C36,107.104569 35.1045695,108 34,108 Z M26,108 C24.8954305,108 24,107.104569 24,106 C24,104.895431 24.8954305,104 26,104 C27.1045695,104 28,104.895431 28,106 C28,107.104569 27.1045695,108 26,108 Z M18,108 C16.8954305,108 16,107.104569 16,106 C16,104.895431 16.8954305,104 18,104 C19.1045695,104 20,104.895431 20,106 C20,107.104569 19.1045695,108 18,108 Z M10,108 C8.8954305,108 8,107.104569 8,106 C8,104.895431 8.8954305,104 10,104 C11.1045695,104 12,104.895431 12,106 C12,107.104569 11.1045695,108 10,108 Z M2,108 C0.8954305,108 0,107.104569 0,106 C0,104.895431 0.8954305,104 2,104 C3.1045695,104 4,104.895431 4,106 C4,107.104569 3.1045695,108 2,108 Z M106,100 C104.895431,100 104,99.1045695 104,98 C104,96.8954305 104.895431,96 106,96 C107.104569,96 108,96.8954305 108,98 C108,99.1045695 107.104569,100 106,100 Z M98,100 C96.8954305,100 96,99.1045695 96,98 C96,96.8954305 96.8954305,96 98,96 C99.1045695,96 100,96.8954305 100,98 C100,99.1045695 99.1045695,100 98,100 Z M90,100 C88.8954305,100 88,99.1045695 88,98 C88,96.8954305 88.8954305,96 90,96 C91.1045695,96 92,96.8954305 92,98 C92,99.1045695 91.1045695,100 90,100 Z M82,100 C80.8954305,100 80,99.1045695 80,98 C80,96.8954305 80.8954305,96 82,96 C83.1045695,96 84,96.8954305 84,98 C84,99.1045695 83.1045695,100 82,100 Z M74,100 C72.8954305,100 72,99.1045695 72,98 C72,96.8954305 72.8954305,96 74,96 C75.1045695,96 76,96.8954305 76,98 C76,99.1045695 75.1045695,100 74,100 Z M66,100 C64.8954305,100 64,99.1045695 64,98 C64,96.8954305 64.8954305,96 66,96 C67.1045695,96 68,96.8954305 68,98 C68,99.1045695 67.1045695,100 66,100 Z M58,100 C56.8954305,100 56,99.1045695 56,98 C56,96.8954305 56.8954305,96 58,96 C59.1045695,96 60,96.8954305 60,98 C60,99.1045695 59.1045695,100 58,100 Z M50,100 C48.8954305,100 48,99.1045695 48,98 C48,96.8954305 48.8954305,96 50,96 C51.1045695,96 52,96.8954305 52,98 C52,99.1045695 51.1045695,100 50,100 Z M42,100 C40.8954305,100 40,99.1045695 40,98 C40,96.8954305 40.8954305,96 42,96 C43.1045695,96 44,96.8954305 44,98 C44,99.1045695 43.1045695,100 42,100 Z M34,100 C32.8954305,100 32,99.1045695 32,98 C32,96.8954305 32.8954305,96 34,96 C35.1045695,96 36,96.8954305 36,98 C36,99.1045695 35.1045695,100 34,100 Z M26,100 C24.8954305,100 24,99.1045695 24,98 C24,96.8954305 24.8954305,96 26,96 C27.1045695,96 28,96.8954305 28,98 C28,99.1045695 27.1045695,100 26,100 Z M18,100 C16.8954305,100 16,99.1045695 16,98 C16,96.8954305 16.8954305,96 18,96 C19.1045695,96 20,96.8954305 20,98 C20,99.1045695 19.1045695,100 18,100 Z M10,100 C8.8954305,100 8,99.1045695 8,98 C8,96.8954305 8.8954305,96 10,96 C11.1045695,96 12,96.8954305 12,98 C12,99.1045695 11.1045695,100 10,100 Z M2,100 C0.8954305,100 0,99.1045695 0,98 C0,96.8954305 0.8954305,96 2,96 C3.1045695,96 4,96.8954305 4,98 C4,99.1045695 3.1045695,100 2,100 Z M106,92 C104.895431,92 104,91.1045695 104,90 C104,88.8954305 104.895431,88 106,88 C107.104569,88 108,88.8954305 108,90 C108,91.1045695 107.104569,92 106,92 Z M98,92 C96.8954305,92 96,91.1045695 96,90 C96,88.8954305 96.8954305,88 98,88 C99.1045695,88 100,88.8954305 100,90 C100,91.1045695 99.1045695,92 98,92 Z M90,92 C88.8954305,92 88,91.1045695 88,90 C88,88.8954305 88.8954305,88 90,88 C91.1045695,88 92,88.8954305 92,90 C92,91.1045695 91.1045695,92 90,92 Z M82,92 C80.8954305,92 80,91.1045695 80,90 C80,88.8954305 80.8954305,88 82,88 C83.1045695,88 84,88.8954305 84,90 C84,91.1045695 83.1045695,92 82,92 Z M74,92 C72.8954305,92 72,91.1045695 72,90 C72,88.8954305 72.8954305,88 74,88 C75.1045695,88 76,88.8954305 76,90 C76,91.1045695 75.1045695,92 74,92 Z M66,92 C64.8954305,92 64,91.1045695 64,90 C64,88.8954305 64.8954305,88 66,88 C67.1045695,88 68,88.8954305 68,90 C68,91.1045695 67.1045695,92 66,92 Z M58,92 C56.8954305,92 56,91.1045695 56,90 C56,88.8954305 56.8954305,88 58,88 C59.1045695,88 60,88.8954305 60,90 C60,91.1045695 59.1045695,92 58,92 Z M50,92 C48.8954305,92 48,91.1045695 48,90 C48,88.8954305 48.8954305,88 50,88 C51.1045695,88 52,88.8954305 52,90 C52,91.1045695 51.1045695,92 50,92 Z M42,92 C40.8954305,92 40,91.1045695 40,90 C40,88.8954305 40.8954305,88 42,88 C43.1045695,88 44,88.8954305 44,90 C44,91.1045695 43.1045695,92 42,92 Z M34,92 C32.8954305,92 32,91.1045695 32,90 C32,88.8954305 32.8954305,88 34,88 C35.1045695,88 36,88.8954305 36,90 C36,91.1045695 35.1045695,92 34,92 Z M26,92 C24.8954305,92 24,91.1045695 24,90 C24,88.8954305 24.8954305,88 26,88 C27.1045695,88 28,88.8954305 28,90 C28,91.1045695 27.1045695,92 26,92 Z M18,92 C16.8954305,92 16,91.1045695 16,90 C16,88.8954305 16.8954305,88 18,88 C19.1045695,88 20,88.8954305 20,90 C20,91.1045695 19.1045695,92 18,92 Z M10,92 C8.8954305,92 8,91.1045695 8,90 C8,88.8954305 8.8954305,88 10,88 C11.1045695,88 12,88.8954305 12,90 C12,91.1045695 11.1045695,92 10,92 Z M2,92 C0.8954305,92 0,91.1045695 0,90 C0,88.8954305 0.8954305,88 2,88 C3.1045695,88 4,88.8954305 4,90 C4,91.1045695 3.1045695,92 2,92 Z M106,84 C104.895431,84 104,83.1045695 104,82 C104,80.8954305 104.895431,80 106,80 C107.104569,80 108,80.8954305 108,82 C108,83.1045695 107.104569,84 106,84 Z M98,84 C96.8954305,84 96,83.1045695 96,82 C96,80.8954305 96.8954305,80 98,80 C99.1045695,80 100,80.8954305 100,82 C100,83.1045695 99.1045695,84 98,84 Z M90,84 C88.8954305,84 88,83.1045695 88,82 C88,80.8954305 88.8954305,80 90,80 C91.1045695,80 92,80.8954305 92,82 C92,83.1045695 91.1045695,84 90,84 Z M82,84 C80.8954305,84 80,83.1045695 80,82 C80,80.8954305 80.8954305,80 82,80 C83.1045695,80 84,80.8954305 84,82 C84,83.1045695 83.1045695,84 82,84 Z M74,84 C72.8954305,84 72,83.1045695 72,82 C72,80.8954305 72.8954305,80 74,80 C75.1045695,80 76,80.8954305 76,82 C76,83.1045695 75.1045695,84 74,84 Z M66,84 C64.8954305,84 64,83.1045695 64,82 C64,80.8954305 64.8954305,80 66,80 C67.1045695,80 68,80.8954305 68,82 C68,83.1045695 67.1045695,84 66,84 Z M58,84 C56.8954305,84 56,83.1045695 56,82 C56,80.8954305 56.8954305,80 58,80 C59.1045695,80 60,80.8954305 60,82 C60,83.1045695 59.1045695,84 58,84 Z M50,84 C48.8954305,84 48,83.1045695 48,82 C48,80.8954305 48.8954305,80 50,80 C51.1045695,80 52,80.8954305 52,82 C52,83.1045695 51.1045695,84 50,84 Z M42,84 C40.8954305,84 40,83.1045695 40,82 C40,80.8954305 40.8954305,80 42,80 C43.1045695,80 44,80.8954305 44,82 C44,83.1045695 43.1045695,84 42,84 Z M34,84 C32.8954305,84 32,83.1045695 32,82 C32,80.8954305 32.8954305,80 34,80 C35.1045695,80 36,80.8954305 36,82 C36,83.1045695 35.1045695,84 34,84 Z M26,84 C24.8954305,84 24,83.1045695 24,82 C24,80.8954305 24.8954305,80 26,80 C27.1045695,80 28,80.8954305 28,82 C28,83.1045695 27.1045695,84 26,84 Z M18,84 C16.8954305,84 16,83.1045695 16,82 C16,80.8954305 16.8954305,80 18,80 C19.1045695,80 20,80.8954305 20,82 C20,83.1045695 19.1045695,84 18,84 Z M10,84 C8.8954305,84 8,83.1045695 8,82 C8,80.8954305 8.8954305,80 10,80 C11.1045695,80 12,80.8954305 12,82 C12,83.1045695 11.1045695,84 10,84 Z M2,84 C0.8954305,84 0,83.1045695 0,82 C0,80.8954305 0.8954305,80 2,80 C3.1045695,80 4,80.8954305 4,82 C4,83.1045695 3.1045695,84 2,84 Z M106,76 C104.895431,76 104,75.1045695 104,74 C104,72.8954305 104.895431,72 106,72 C107.104569,72 108,72.8954305 108,74 C108,75.1045695 107.104569,76 106,76 Z M98,76 C96.8954305,76 96,75.1045695 96,74 C96,72.8954305 96.8954305,72 98,72 C99.1045695,72 100,72.8954305 100,74 C100,75.1045695 99.1045695,76 98,76 Z M90,76 C88.8954305,76 88,75.1045695 88,74 C88,72.8954305 88.8954305,72 90,72 C91.1045695,72 92,72.8954305 92,74 C92,75.1045695 91.1045695,76 90,76 Z M82,76 C80.8954305,76 80,75.1045695 80,74 C80,72.8954305 80.8954305,72 82,72 C83.1045695,72 84,72.8954305 84,74 C84,75.1045695 83.1045695,76 82,76 Z M74,76 C72.8954305,76 72,75.1045695 72,74 C72,72.8954305 72.8954305,72 74,72 C75.1045695,72 76,72.8954305 76,74 C76,75.1045695 75.1045695,76 74,76 Z M66,76 C64.8954305,76 64,75.1045695 64,74 C64,72.8954305 64.8954305,72 66,72 C67.1045695,72 68,72.8954305 68,74 C68,75.1045695 67.1045695,76 66,76 Z M58,76 C56.8954305,76 56,75.1045695 56,74 C56,72.8954305 56.8954305,72 58,72 C59.1045695,72 60,72.8954305 60,74 C60,75.1045695 59.1045695,76 58,76 Z M50,76 C48.8954305,76 48,75.1045695 48,74 C48,72.8954305 48.8954305,72 50,72 C51.1045695,72 52,72.8954305 52,74 C52,75.1045695 51.1045695,76 50,76 Z M42,76 C40.8954305,76 40,75.1045695 40,74 C40,72.8954305 40.8954305,72 42,72 C43.1045695,72 44,72.8954305 44,74 C44,75.1045695 43.1045695,76 42,76 Z M34,76 C32.8954305,76 32,75.1045695 32,74 C32,72.8954305 32.8954305,72 34,72 C35.1045695,72 36,72.8954305 36,74 C36,75.1045695 35.1045695,76 34,76 Z M26,76 C24.8954305,76 24,75.1045695 24,74 C24,72.8954305 24.8954305,72 26,72 C27.1045695,72 28,72.8954305 28,74 C28,75.1045695 27.1045695,76 26,76 Z M18,76 C16.8954305,76 16,75.1045695 16,74 C16,72.8954305 16.8954305,72 18,72 C19.1045695,72 20,72.8954305 20,74 C20,75.1045695 19.1045695,76 18,76 Z M10,76 C8.8954305,76 8,75.1045695 8,74 C8,72.8954305 8.8954305,72 10,72 C11.1045695,72 12,72.8954305 12,74 C12,75.1045695 11.1045695,76 10,76 Z M2,76 C0.8954305,76 0,75.1045695 0,74 C0,72.8954305 0.8954305,72 2,72 C3.1045695,72 4,72.8954305 4,74 C4,75.1045695 3.1045695,76 2,76 Z M106,68 C104.895431,68 104,67.1045695 104,66 C104,64.8954305 104.895431,64 106,64 C107.104569,64 108,64.8954305 108,66 C108,67.1045695 107.104569,68 106,68 Z M98,68 C96.8954305,68 96,67.1045695 96,66 C96,64.8954305 96.8954305,64 98,64 C99.1045695,64 100,64.8954305 100,66 C100,67.1045695 99.1045695,68 98,68 Z M90,68 C88.8954305,68 88,67.1045695 88,66 C88,64.8954305 88.8954305,64 90,64 C91.1045695,64 92,64.8954305 92,66 C92,67.1045695 91.1045695,68 90,68 Z M82,68 C80.8954305,68 80,67.1045695 80,66 C80,64.8954305 80.8954305,64 82,64 C83.1045695,64 84,64.8954305 84,66 C84,67.1045695 83.1045695,68 82,68 Z M74,68 C72.8954305,68 72,67.1045695 72,66 C72,64.8954305 72.8954305,64 74,64 C75.1045695,64 76,64.8954305 76,66 C76,67.1045695 75.1045695,68 74,68 Z M66,68 C64.8954305,68 64,67.1045695 64,66 C64,64.8954305 64.8954305,64 66,64 C67.1045695,64 68,64.8954305 68,66 C68,67.1045695 67.1045695,68 66,68 Z M58,68 C56.8954305,68 56,67.1045695 56,66 C56,64.8954305 56.8954305,64 58,64 C59.1045695,64 60,64.8954305 60,66 C60,67.1045695 59.1045695,68 58,68 Z M50,68 C48.8954305,68 48,67.1045695 48,66 C48,64.8954305 48.8954305,64 50,64 C51.1045695,64 52,64.8954305 52,66 C52,67.1045695 51.1045695,68 50,68 Z M42,68 C40.8954305,68 40,67.1045695 40,66 C40,64.8954305 40.8954305,64 42,64 C43.1045695,64 44,64.8954305 44,66 C44,67.1045695 43.1045695,68 42,68 Z M34,68 C32.8954305,68 32,67.1045695 32,66 C32,64.8954305 32.8954305,64 34,64 C35.1045695,64 36,64.8954305 36,66 C36,67.1045695 35.1045695,68 34,68 Z M26,68 C24.8954305,68 24,67.1045695 24,66 C24,64.8954305 24.8954305,64 26,64 C27.1045695,64 28,64.8954305 28,66 C28,67.1045695 27.1045695,68 26,68 Z M18,68 C16.8954305,68 16,67.1045695 16,66 C16,64.8954305 16.8954305,64 18,64 C19.1045695,64 20,64.8954305 20,66 C20,67.1045695 19.1045695,68 18,68 Z M10,68 C8.8954305,68 8,67.1045695 8,66 C8,64.8954305 8.8954305,64 10,64 C11.1045695,64 12,64.8954305 12,66 C12,67.1045695 11.1045695,68 10,68 Z M2,68 C0.8954305,68 0,67.1045695 0,66 C0,64.8954305 0.8954305,64 2,64 C3.1045695,64 4,64.8954305 4,66 C4,67.1045695 3.1045695,68 2,68 Z M106,60 C104.895431,60 104,59.1045695 104,58 C104,56.8954305 104.895431,56 106,56 C107.104569,56 108,56.8954305 108,58 C108,59.1045695 107.104569,60 106,60 Z M98,60 C96.8954305,60 96,59.1045695 96,58 C96,56.8954305 96.8954305,56 98,56 C99.1045695,56 100,56.8954305 100,58 C100,59.1045695 99.1045695,60 98,60 Z M90,60 C88.8954305,60 88,59.1045695 88,58 C88,56.8954305 88.8954305,56 90,56 C91.1045695,56 92,56.8954305 92,58 C92,59.1045695 91.1045695,60 90,60 Z M82,60 C80.8954305,60 80,59.1045695 80,58 C80,56.8954305 80.8954305,56 82,56 C83.1045695,56 84,56.8954305 84,58 C84,59.1045695 83.1045695,60 82,60 Z M74,60 C72.8954305,60 72,59.1045695 72,58 C72,56.8954305 72.8954305,56 74,56 C75.1045695,56 76,56.8954305 76,58 C76,59.1045695 75.1045695,60 74,60 Z M66,60 C64.8954305,60 64,59.1045695 64,58 C64,56.8954305 64.8954305,56 66,56 C67.1045695,56 68,56.8954305 68,58 C68,59.1045695 67.1045695,60 66,60 Z M58,60 C56.8954305,60 56,59.1045695 56,58 C56,56.8954305 56.8954305,56 58,56 C59.1045695,56 60,56.8954305 60,58 C60,59.1045695 59.1045695,60 58,60 Z M50,60 C48.8954305,60 48,59.1045695 48,58 C48,56.8954305 48.8954305,56 50,56 C51.1045695,56 52,56.8954305 52,58 C52,59.1045695 51.1045695,60 50,60 Z M42,60 C40.8954305,60 40,59.1045695 40,58 C40,56.8954305 40.8954305,56 42,56 C43.1045695,56 44,56.8954305 44,58 C44,59.1045695 43.1045695,60 42,60 Z M34,60 C32.8954305,60 32,59.1045695 32,58 C32,56.8954305 32.8954305,56 34,56 C35.1045695,56 36,56.8954305 36,58 C36,59.1045695 35.1045695,60 34,60 Z M26,60 C24.8954305,60 24,59.1045695 24,58 C24,56.8954305 24.8954305,56 26,56 C27.1045695,56 28,56.8954305 28,58 C28,59.1045695 27.1045695,60 26,60 Z M18,60 C16.8954305,60 16,59.1045695 16,58 C16,56.8954305 16.8954305,56 18,56 C19.1045695,56 20,56.8954305 20,58 C20,59.1045695 19.1045695,60 18,60 Z M10,60 C8.8954305,60 8,59.1045695 8,58 C8,56.8954305 8.8954305,56 10,56 C11.1045695,56 12,56.8954305 12,58 C12,59.1045695 11.1045695,60 10,60 Z M2,60 C0.8954305,60 0,59.1045695 0,58 C0,56.8954305 0.8954305,56 2,56 C3.1045695,56 4,56.8954305 4,58 C4,59.1045695 3.1045695,60 2,60 Z M106,52 C104.895431,52 104,51.1045695 104,50 C104,48.8954305 104.895431,48 106,48 C107.104569,48 108,48.8954305 108,50 C108,51.1045695 107.104569,52 106,52 Z M98,52 C96.8954305,52 96,51.1045695 96,50 C96,48.8954305 96.8954305,48 98,48 C99.1045695,48 100,48.8954305 100,50 C100,51.1045695 99.1045695,52 98,52 Z M90,52 C88.8954305,52 88,51.1045695 88,50 C88,48.8954305 88.8954305,48 90,48 C91.1045695,48 92,48.8954305 92,50 C92,51.1045695 91.1045695,52 90,52 Z M82,52 C80.8954305,52 80,51.1045695 80,50 C80,48.8954305 80.8954305,48 82,48 C83.1045695,48 84,48.8954305 84,50 C84,51.1045695 83.1045695,52 82,52 Z M74,52 C72.8954305,52 72,51.1045695 72,50 C72,48.8954305 72.8954305,48 74,48 C75.1045695,48 76,48.8954305 76,50 C76,51.1045695 75.1045695,52 74,52 Z M66,52 C64.8954305,52 64,51.1045695 64,50 C64,48.8954305 64.8954305,48 66,48 C67.1045695,48 68,48.8954305 68,50 C68,51.1045695 67.1045695,52 66,52 Z M58,52 C56.8954305,52 56,51.1045695 56,50 C56,48.8954305 56.8954305,48 58,48 C59.1045695,48 60,48.8954305 60,50 C60,51.1045695 59.1045695,52 58,52 Z M50,52 C48.8954305,52 48,51.1045695 48,50 C48,48.8954305 48.8954305,48 50,48 C51.1045695,48 52,48.8954305 52,50 C52,51.1045695 51.1045695,52 50,52 Z M42,52 C40.8954305,52 40,51.1045695 40,50 C40,48.8954305 40.8954305,48 42,48 C43.1045695,48 44,48.8954305 44,50 C44,51.1045695 43.1045695,52 42,52 Z M34,52 C32.8954305,52 32,51.1045695 32,50 C32,48.8954305 32.8954305,48 34,48 C35.1045695,48 36,48.8954305 36,50 C36,51.1045695 35.1045695,52 34,52 Z M26,52 C24.8954305,52 24,51.1045695 24,50 C24,48.8954305 24.8954305,48 26,48 C27.1045695,48 28,48.8954305 28,50 C28,51.1045695 27.1045695,52 26,52 Z M18,52 C16.8954305,52 16,51.1045695 16,50 C16,48.8954305 16.8954305,48 18,48 C19.1045695,48 20,48.8954305 20,50 C20,51.1045695 19.1045695,52 18,52 Z M10,52 C8.8954305,52 8,51.1045695 8,50 C8,48.8954305 8.8954305,48 10,48 C11.1045695,48 12,48.8954305 12,50 C12,51.1045695 11.1045695,52 10,52 Z M2,52 C0.8954305,52 0,51.1045695 0,50 C0,48.8954305 0.8954305,48 2,48 C3.1045695,48 4,48.8954305 4,50 C4,51.1045695 3.1045695,52 2,52 Z M106,44 C104.895431,44 104,43.1045695 104,42 C104,40.8954305 104.895431,40 106,40 C107.104569,40 108,40.8954305 108,42 C108,43.1045695 107.104569,44 106,44 Z M98,44 C96.8954305,44 96,43.1045695 96,42 C96,40.8954305 96.8954305,40 98,40 C99.1045695,40 100,40.8954305 100,42 C100,43.1045695 99.1045695,44 98,44 Z M90,44 C88.8954305,44 88,43.1045695 88,42 C88,40.8954305 88.8954305,40 90,40 C91.1045695,40 92,40.8954305 92,42 C92,43.1045695 91.1045695,44 90,44 Z M82,44 C80.8954305,44 80,43.1045695 80,42 C80,40.8954305 80.8954305,40 82,40 C83.1045695,40 84,40.8954305 84,42 C84,43.1045695 83.1045695,44 82,44 Z M74,44 C72.8954305,44 72,43.1045695 72,42 C72,40.8954305 72.8954305,40 74,40 C75.1045695,40 76,40.8954305 76,42 C76,43.1045695 75.1045695,44 74,44 Z M66,44 C64.8954305,44 64,43.1045695 64,42 C64,40.8954305 64.8954305,40 66,40 C67.1045695,40 68,40.8954305 68,42 C68,43.1045695 67.1045695,44 66,44 Z M58,44 C56.8954305,44 56,43.1045695 56,42 C56,40.8954305 56.8954305,40 58,40 C59.1045695,40 60,40.8954305 60,42 C60,43.1045695 59.1045695,44 58,44 Z M50,44 C48.8954305,44 48,43.1045695 48,42 C48,40.8954305 48.8954305,40 50,40 C51.1045695,40 52,40.8954305 52,42 C52,43.1045695 51.1045695,44 50,44 Z M42,44 C40.8954305,44 40,43.1045695 40,42 C40,40.8954305 40.8954305,40 42,40 C43.1045695,40 44,40.8954305 44,42 C44,43.1045695 43.1045695,44 42,44 Z M34,44 C32.8954305,44 32,43.1045695 32,42 C32,40.8954305 32.8954305,40 34,40 C35.1045695,40 36,40.8954305 36,42 C36,43.1045695 35.1045695,44 34,44 Z M26,44 C24.8954305,44 24,43.1045695 24,42 C24,40.8954305 24.8954305,40 26,40 C27.1045695,40 28,40.8954305 28,42 C28,43.1045695 27.1045695,44 26,44 Z M18,44 C16.8954305,44 16,43.1045695 16,42 C16,40.8954305 16.8954305,40 18,40 C19.1045695,40 20,40.8954305 20,42 C20,43.1045695 19.1045695,44 18,44 Z M10,44 C8.8954305,44 8,43.1045695 8,42 C8,40.8954305 8.8954305,40 10,40 C11.1045695,40 12,40.8954305 12,42 C12,43.1045695 11.1045695,44 10,44 Z M2,44 C0.8954305,44 0,43.1045695 0,42 C0,40.8954305 0.8954305,40 2,40 C3.1045695,40 4,40.8954305 4,42 C4,43.1045695 3.1045695,44 2,44 Z M106,36 C104.895431,36 104,35.1045695 104,34 C104,32.8954305 104.895431,32 106,32 C107.104569,32 108,32.8954305 108,34 C108,35.1045695 107.104569,36 106,36 Z M98,36 C96.8954305,36 96,35.1045695 96,34 C96,32.8954305 96.8954305,32 98,32 C99.1045695,32 100,32.8954305 100,34 C100,35.1045695 99.1045695,36 98,36 Z M90,36 C88.8954305,36 88,35.1045695 88,34 C88,32.8954305 88.8954305,32 90,32 C91.1045695,32 92,32.8954305 92,34 C92,35.1045695 91.1045695,36 90,36 Z M82,36 C80.8954305,36 80,35.1045695 80,34 C80,32.8954305 80.8954305,32 82,32 C83.1045695,32 84,32.8954305 84,34 C84,35.1045695 83.1045695,36 82,36 Z M74,36 C72.8954305,36 72,35.1045695 72,34 C72,32.8954305 72.8954305,32 74,32 C75.1045695,32 76,32.8954305 76,34 C76,35.1045695 75.1045695,36 74,36 Z M66,36 C64.8954305,36 64,35.1045695 64,34 C64,32.8954305 64.8954305,32 66,32 C67.1045695,32 68,32.8954305 68,34 C68,35.1045695 67.1045695,36 66,36 Z M58,36 C56.8954305,36 56,35.1045695 56,34 C56,32.8954305 56.8954305,32 58,32 C59.1045695,32 60,32.8954305 60,34 C60,35.1045695 59.1045695,36 58,36 Z M50,36 C48.8954305,36 48,35.1045695 48,34 C48,32.8954305 48.8954305,32 50,32 C51.1045695,32 52,32.8954305 52,34 C52,35.1045695 51.1045695,36 50,36 Z M42,36 C40.8954305,36 40,35.1045695 40,34 C40,32.8954305 40.8954305,32 42,32 C43.1045695,32 44,32.8954305 44,34 C44,35.1045695 43.1045695,36 42,36 Z M34,36 C32.8954305,36 32,35.1045695 32,34 C32,32.8954305 32.8954305,32 34,32 C35.1045695,32 36,32.8954305 36,34 C36,35.1045695 35.1045695,36 34,36 Z M26,36 C24.8954305,36 24,35.1045695 24,34 C24,32.8954305 24.8954305,32 26,32 C27.1045695,32 28,32.8954305 28,34 C28,35.1045695 27.1045695,36 26,36 Z M18,36 C16.8954305,36 16,35.1045695 16,34 C16,32.8954305 16.8954305,32 18,32 C19.1045695,32 20,32.8954305 20,34 C20,35.1045695 19.1045695,36 18,36 Z M10,36 C8.8954305,36 8,35.1045695 8,34 C8,32.8954305 8.8954305,32 10,32 C11.1045695,32 12,32.8954305 12,34 C12,35.1045695 11.1045695,36 10,36 Z M2,36 C0.8954305,36 0,35.1045695 0,34 C0,32.8954305 0.8954305,32 2,32 C3.1045695,32 4,32.8954305 4,34 C4,35.1045695 3.1045695,36 2,36 Z M106,28 C104.895431,28 104,27.1045695 104,26 C104,24.8954305 104.895431,24 106,24 C107.104569,24 108,24.8954305 108,26 C108,27.1045695 107.104569,28 106,28 Z M98,28 C96.8954305,28 96,27.1045695 96,26 C96,24.8954305 96.8954305,24 98,24 C99.1045695,24 100,24.8954305 100,26 C100,27.1045695 99.1045695,28 98,28 Z M90,28 C88.8954305,28 88,27.1045695 88,26 C88,24.8954305 88.8954305,24 90,24 C91.1045695,24 92,24.8954305 92,26 C92,27.1045695 91.1045695,28 90,28 Z M82,28 C80.8954305,28 80,27.1045695 80,26 C80,24.8954305 80.8954305,24 82,24 C83.1045695,24 84,24.8954305 84,26 C84,27.1045695 83.1045695,28 82,28 Z M74,28 C72.8954305,28 72,27.1045695 72,26 C72,24.8954305 72.8954305,24 74,24 C75.1045695,24 76,24.8954305 76,26 C76,27.1045695 75.1045695,28 74,28 Z M66,28 C64.8954305,28 64,27.1045695 64,26 C64,24.8954305 64.8954305,24 66,24 C67.1045695,24 68,24.8954305 68,26 C68,27.1045695 67.1045695,28 66,28 Z M58,28 C56.8954305,28 56,27.1045695 56,26 C56,24.8954305 56.8954305,24 58,24 C59.1045695,24 60,24.8954305 60,26 C60,27.1045695 59.1045695,28 58,28 Z M50,28 C48.8954305,28 48,27.1045695 48,26 C48,24.8954305 48.8954305,24 50,24 C51.1045695,24 52,24.8954305 52,26 C52,27.1045695 51.1045695,28 50,28 Z M42,28 C40.8954305,28 40,27.1045695 40,26 C40,24.8954305 40.8954305,24 42,24 C43.1045695,24 44,24.8954305 44,26 C44,27.1045695 43.1045695,28 42,28 Z M34,28 C32.8954305,28 32,27.1045695 32,26 C32,24.8954305 32.8954305,24 34,24 C35.1045695,24 36,24.8954305 36,26 C36,27.1045695 35.1045695,28 34,28 Z M26,28 C24.8954305,28 24,27.1045695 24,26 C24,24.8954305 24.8954305,24 26,24 C27.1045695,24 28,24.8954305 28,26 C28,27.1045695 27.1045695,28 26,28 Z M18,28 C16.8954305,28 16,27.1045695 16,26 C16,24.8954305 16.8954305,24 18,24 C19.1045695,24 20,24.8954305 20,26 C20,27.1045695 19.1045695,28 18,28 Z M10,28 C8.8954305,28 8,27.1045695 8,26 C8,24.8954305 8.8954305,24 10,24 C11.1045695,24 12,24.8954305 12,26 C12,27.1045695 11.1045695,28 10,28 Z M2,28 C0.8954305,28 0,27.1045695 0,26 C0,24.8954305 0.8954305,24 2,24 C3.1045695,24 4,24.8954305 4,26 C4,27.1045695 3.1045695,28 2,28 Z M106,20 C104.895431,20 104,19.1045695 104,18 C104,16.8954305 104.895431,16 106,16 C107.104569,16 108,16.8954305 108,18 C108,19.1045695 107.104569,20 106,20 Z M98,20 C96.8954305,20 96,19.1045695 96,18 C96,16.8954305 96.8954305,16 98,16 C99.1045695,16 100,16.8954305 100,18 C100,19.1045695 99.1045695,20 98,20 Z M90,20 C88.8954305,20 88,19.1045695 88,18 C88,16.8954305 88.8954305,16 90,16 C91.1045695,16 92,16.8954305 92,18 C92,19.1045695 91.1045695,20 90,20 Z M82,20 C80.8954305,20 80,19.1045695 80,18 C80,16.8954305 80.8954305,16 82,16 C83.1045695,16 84,16.8954305 84,18 C84,19.1045695 83.1045695,20 82,20 Z M74,20 C72.8954305,20 72,19.1045695 72,18 C72,16.8954305 72.8954305,16 74,16 C75.1045695,16 76,16.8954305 76,18 C76,19.1045695 75.1045695,20 74,20 Z M66,20 C64.8954305,20 64,19.1045695 64,18 C64,16.8954305 64.8954305,16 66,16 C67.1045695,16 68,16.8954305 68,18 C68,19.1045695 67.1045695,20 66,20 Z M58,20 C56.8954305,20 56,19.1045695 56,18 C56,16.8954305 56.8954305,16 58,16 C59.1045695,16 60,16.8954305 60,18 C60,19.1045695 59.1045695,20 58,20 Z M50,20 C48.8954305,20 48,19.1045695 48,18 C48,16.8954305 48.8954305,16 50,16 C51.1045695,16 52,16.8954305 52,18 C52,19.1045695 51.1045695,20 50,20 Z M42,20 C40.8954305,20 40,19.1045695 40,18 C40,16.8954305 40.8954305,16 42,16 C43.1045695,16 44,16.8954305 44,18 C44,19.1045695 43.1045695,20 42,20 Z M34,20 C32.8954305,20 32,19.1045695 32,18 C32,16.8954305 32.8954305,16 34,16 C35.1045695,16 36,16.8954305 36,18 C36,19.1045695 35.1045695,20 34,20 Z M26,20 C24.8954305,20 24,19.1045695 24,18 C24,16.8954305 24.8954305,16 26,16 C27.1045695,16 28,16.8954305 28,18 C28,19.1045695 27.1045695,20 26,20 Z M18,20 C16.8954305,20 16,19.1045695 16,18 C16,16.8954305 16.8954305,16 18,16 C19.1045695,16 20,16.8954305 20,18 C20,19.1045695 19.1045695,20 18,20 Z M10,20 C8.8954305,20 8,19.1045695 8,18 C8,16.8954305 8.8954305,16 10,16 C11.1045695,16 12,16.8954305 12,18 C12,19.1045695 11.1045695,20 10,20 Z M2,20 C0.8954305,20 0,19.1045695 0,18 C0,16.8954305 0.8954305,16 2,16 C3.1045695,16 4,16.8954305 4,18 C4,19.1045695 3.1045695,20 2,20 Z M106,12 C104.895431,12 104,11.1045695 104,10 C104,8.8954305 104.895431,8 106,8 C107.104569,8 108,8.8954305 108,10 C108,11.1045695 107.104569,12 106,12 Z M98,12 C96.8954305,12 96,11.1045695 96,10 C96,8.8954305 96.8954305,8 98,8 C99.1045695,8 100,8.8954305 100,10 C100,11.1045695 99.1045695,12 98,12 Z M90,12 C88.8954305,12 88,11.1045695 88,10 C88,8.8954305 88.8954305,8 90,8 C91.1045695,8 92,8.8954305 92,10 C92,11.1045695 91.1045695,12 90,12 Z M82,12 C80.8954305,12 80,11.1045695 80,10 C80,8.8954305 80.8954305,8 82,8 C83.1045695,8 84,8.8954305 84,10 C84,11.1045695 83.1045695,12 82,12 Z M74,12 C72.8954305,12 72,11.1045695 72,10 C72,8.8954305 72.8954305,8 74,8 C75.1045695,8 76,8.8954305 76,10 C76,11.1045695 75.1045695,12 74,12 Z M66,12 C64.8954305,12 64,11.1045695 64,10 C64,8.8954305 64.8954305,8 66,8 C67.1045695,8 68,8.8954305 68,10 C68,11.1045695 67.1045695,12 66,12 Z M58,12 C56.8954305,12 56,11.1045695 56,10 C56,8.8954305 56.8954305,8 58,8 C59.1045695,8 60,8.8954305 60,10 C60,11.1045695 59.1045695,12 58,12 Z M50,12 C48.8954305,12 48,11.1045695 48,10 C48,8.8954305 48.8954305,8 50,8 C51.1045695,8 52,8.8954305 52,10 C52,11.1045695 51.1045695,12 50,12 Z M42,12 C40.8954305,12 40,11.1045695 40,10 C40,8.8954305 40.8954305,8 42,8 C43.1045695,8 44,8.8954305 44,10 C44,11.1045695 43.1045695,12 42,12 Z M34,12 C32.8954305,12 32,11.1045695 32,10 C32,8.8954305 32.8954305,8 34,8 C35.1045695,8 36,8.8954305 36,10 C36,11.1045695 35.1045695,12 34,12 Z M26,12 C24.8954305,12 24,11.1045695 24,10 C24,8.8954305 24.8954305,8 26,8 C27.1045695,8 28,8.8954305 28,10 C28,11.1045695 27.1045695,12 26,12 Z M18,12 C16.8954305,12 16,11.1045695 16,10 C16,8.8954305 16.8954305,8 18,8 C19.1045695,8 20,8.8954305 20,10 C20,11.1045695 19.1045695,12 18,12 Z M10,12 C8.8954305,12 8,11.1045695 8,10 C8,8.8954305 8.8954305,8 10,8 C11.1045695,8 12,8.8954305 12,10 C12,11.1045695 11.1045695,12 10,12 Z M2,12 C0.8954305,12 0,11.1045695 0,10 C0,8.8954305 0.8954305,8 2,8 C3.1045695,8 4,8.8954305 4,10 C4,11.1045695 3.1045695,12 2,12 Z M106,4 C104.895431,4 104,3.1045695 104,2 C104,0.8954305 104.895431,0 106,0 C107.104569,0 108,0.8954305 108,2 C108,3.1045695 107.104569,4 106,4 Z M98,4 C96.8954305,4 96,3.1045695 96,2 C96,0.8954305 96.8954305,0 98,0 C99.1045695,0 100,0.8954305 100,2 C100,3.1045695 99.1045695,4 98,4 Z M90,4 C88.8954305,4 88,3.1045695 88,2 C88,0.8954305 88.8954305,0 90,0 C91.1045695,0 92,0.8954305 92,2 C92,3.1045695 91.1045695,4 90,4 Z M82,4 C80.8954305,4 80,3.1045695 80,2 C80,0.8954305 80.8954305,0 82,0 C83.1045695,0 84,0.8954305 84,2 C84,3.1045695 83.1045695,4 82,4 Z M74,4 C72.8954305,4 72,3.1045695 72,2 C72,0.8954305 72.8954305,0 74,0 C75.1045695,0 76,0.8954305 76,2 C76,3.1045695 75.1045695,4 74,4 Z M66,4 C64.8954305,4 64,3.1045695 64,2 C64,0.8954305 64.8954305,0 66,0 C67.1045695,0 68,0.8954305 68,2 C68,3.1045695 67.1045695,4 66,4 Z M58,4 C56.8954305,4 56,3.1045695 56,2 C56,0.8954305 56.8954305,0 58,0 C59.1045695,0 60,0.8954305 60,2 C60,3.1045695 59.1045695,4 58,4 Z M50,4 C48.8954305,4 48,3.1045695 48,2 C48,0.8954305 48.8954305,0 50,0 C51.1045695,0 52,0.8954305 52,2 C52,3.1045695 51.1045695,4 50,4 Z M42,4 C40.8954305,4 40,3.1045695 40,2 C40,0.8954305 40.8954305,0 42,0 C43.1045695,0 44,0.8954305 44,2 C44,3.1045695 43.1045695,4 42,4 Z M34,4 C32.8954305,4 32,3.1045695 32,2 C32,0.8954305 32.8954305,0 34,0 C35.1045695,0 36,0.8954305 36,2 C36,3.1045695 35.1045695,4 34,4 Z M26,4 C24.8954305,4 24,3.1045695 24,2 C24,0.8954305 24.8954305,0 26,0 C27.1045695,0 28,0.8954305 28,2 C28,3.1045695 27.1045695,4 26,4 Z M18,4 C16.8954305,4 16,3.1045695 16,2 C16,0.8954305 16.8954305,0 18,0 C19.1045695,0 20,0.8954305 20,2 C20,3.1045695 19.1045695,4 18,4 Z M10,4 C8.8954305,4 8,3.1045695 8,2 C8,0.8954305 8.8954305,0 10,0 C11.1045695,0 12,0.8954305 12,2 C12,3.1045695 11.1045695,4 10,4 Z M2,4 C0.8954305,4 0,3.1045695 0,2 C0,0.8954305 0.8954305,0 2,0 C3.1045695,0 4,0.8954305 4,2 C4,3.1045695 3.1045695,4 2,4 Z"></path>
                        </g>
                    </g>
                </g>
            </g>
        </g>
    </g>
</svg>