<?xml version="1.0" encoding="utf-8"?>
<svg width="16px" height="16px" viewBox="0 0 16 16" version="1.1" xmlns:xlink="http://www.w3.org/1999/xlink" xmlns="http://www.w3.org/2000/svg">

  <g id="Group">
    <path d="M3.83283 7.50085C5.94623 7.50085 7.66554 5.81836 7.66554 3.75037C7.66554 1.68237 5.94623 0 3.83283 0C1.71931 0 0 1.68237 0 3.75037C0 5.81836 1.71944 7.50085 3.83283 7.50085ZM3.83283 0.944824C5.4138 0.944824 6.69998 2.20337 6.69998 3.75037C6.69998 5.29736 5.4138 6.55603 3.83283 6.55603C2.25187 6.55603 0.965569 5.29736 0.965569 3.75037C0.965569 2.20337 2.25187 0.944824 3.83283 0.944824Z" transform="translate(4.155029 6.244141)" id="Shape" fill="#555555" stroke="none" />
    <path d="M14.4142 1.00598L13.5336 1.00598L13.5336 0.472412C13.5336 0.211548 13.3174 0 13.0508 0C12.7842 0 12.568 0.211548 12.568 0.472412L12.568 1.00598L11.6193 1.00598L11.6193 0.472412C11.6193 0.211548 11.4031 0 11.1364 0C10.8698 0 10.6536 0.211548 10.6536 0.472412L10.6536 1.00598L5.32223 1.00598L5.32223 0.472412C5.32223 0.211548 5.10604 0 4.83932 0C4.57273 0 4.35654 0.211548 4.35654 0.472412L4.35654 1.00598L3.40781 1.00598L3.40781 0.472412C3.40781 0.211548 3.19162 0 2.9249 0C2.65831 0 2.44212 0.211548 2.44212 0.472412L2.44212 1.00598L1.56138 1.00598C0.700474 1.00598 0 1.69141 0 2.53394L0 14.4722C0 15.3146 0.700474 16 1.56138 16L14.4142 16C15.2752 16 15.9755 15.3146 15.9755 14.4722L15.9755 2.53394C15.9755 1.69141 15.2751 1.00598 14.4142 1.00598ZM15.0099 14.4722C15.0099 14.7936 14.7426 15.0552 14.4142 15.0552L1.56138 15.0552C1.23291 15.0552 0.965569 14.7936 0.965569 14.4722L0.965569 4.93433L15.0099 4.93433L15.0099 14.4722ZM0.965569 2.53394C0.965569 2.2124 1.23291 1.95093 1.56138 1.95093L2.44212 1.95093L2.44212 2.4845C2.44212 2.74536 2.65831 2.95691 2.92502 2.95691C3.19162 2.95691 3.40781 2.74536 3.40781 2.4845L3.40781 1.95093L4.35654 1.95093L4.35654 2.4845C4.35654 2.74536 4.57273 2.95691 4.83945 2.95691C5.10604 2.95691 5.32223 2.74536 5.32223 2.4845L5.32223 1.95093L10.6536 1.95093L10.6536 2.4845C10.6536 2.74536 10.8698 2.95691 11.1365 2.95691C11.4031 2.95691 11.6193 2.74536 11.6193 2.4845L11.6193 1.95093L12.568 1.95093L12.568 2.4845C12.568 2.74536 12.7842 2.95691 13.0508 2.95691C13.3175 2.95691 13.5337 2.74536 13.5337 2.4845L13.5337 1.95093L14.4142 1.95093C14.7426 1.95093 15.01 2.2124 15.01 2.53394L15.01 3.98938L0.965569 3.98938L0.965569 2.53394Z" id="Shape" fill="#555555" stroke="none" />
  </g>
</svg>
