<?xml version="1.0" encoding="utf-8"?>
<svg width="67px" height="64px" viewBox="0 0 67 64" version="1.1" xmlns:xlink="http://www.w3.org/1999/xlink" xmlns="http://www.w3.org/2000/svg">
  <desc>Created with Lunacy</desc>
  <g id="excel">
    <g id="Group">
      <path d="M38.5586 0.310668C38.2274 0.0432214 37.7913 -0.0590225 37.3749 0.0332051L1.08332 8.35841C0.444591 8.50436 -0.00608821 9.07229 6.21851e-05 9.72374L6.21851e-05 56.8999C0.000323904 57.5846 0.502955 58.1668 1.18369 58.2709L37.4753 63.821C38.2373 63.9375 38.95 63.4179 39.0671 62.6606C39.0778 62.591 39.0833 62.5206 39.0833 62.4502L39.0833 1.39854C39.0846 0.975384 38.8913 0.574864 38.5586 0.310668Z" transform="translate(-6.218515E-05 0.08139651)" id="Shape" fill="#00B396" stroke="none" />
      <path d="M29.3126 52.7262L1.39588 52.7262C0.624984 52.7262 0 52.105 0 51.3387C0 50.5724 0.624984 49.9511 1.39588 49.9511L27.9168 49.9511L27.9168 2.77502L1.39588 2.77502C0.624984 2.77502 0 2.15376 0 1.38745C0 0.621138 0.624984 0 1.39588 0L29.3125 0C30.0834 0 30.7084 0.621268 30.7084 1.38758L30.7084 51.3388C30.7084 52.1051 30.0835 52.7262 29.3126 52.7262Z" transform="translate(36.29162 5.642537)" id="Shape" fill="#00B396" stroke="none" />
    </g>
    <g id="Group" transform="translate(11.12305 19.38211)">
      <path d="M15.3783 25.0127C14.897 25.0127 14.4498 24.7662 14.1947 24.3606L0.236328 2.16C-0.19276 1.52338 -0.021334 0.66146 0.619092 0.234923C1.25952 -0.191614 2.12659 -0.0212071 2.55568 0.615411C2.57256 0.640386 2.58853 0.665882 2.60371 0.691899L16.5621 22.8925C16.9691 23.5433 16.7683 24.3988 16.1136 24.8035C15.8929 24.9398 15.6382 25.0123 15.3783 25.0127Z" transform="translate(0.01950192 0.09873556)" id="Shape" fill="#FAFAFA" stroke="none" />
      <path d="M1.393 25.0155C0.622108 25.014 -0.00156735 24.3915 2.95884e-06 23.6252C0.000526396 23.3661 0.0740694 23.1123 0.212126 22.8926L14.1705 0.691999C14.5571 0.0289748 15.4112 -0.196976 16.078 0.187284C16.745 0.571544 16.9723 1.42058 16.5858 2.08348C16.5706 2.1095 16.5546 2.13499 16.5377 2.15997L2.5795 24.3606C2.32459 24.7681 1.87587 25.0159 1.393 25.0155Z" transform="translate(0.04645212 0.09590323)" id="Shape" fill="#FAFAFA" stroke="none" />
    </g>
    <g id="Group" transform="translate(36.24805 5.593496)">
      <path d="M1.39588 52.7264C0.624984 52.7264 0 52.1051 0 51.3388L0 1.38758C0 0.621268 0.624984 0 1.39588 0C2.16677 0 2.79175 0.621268 2.79175 1.38758L2.79175 51.3388C2.79162 52.1052 2.16677 52.7264 1.39588 52.7264Z" transform="translate(11.21033 0.04891057)" id="Shape" fill="#00B396" stroke="none" />
      <path d="M29.3126 2.77515L1.39588 2.77515C0.624984 2.77515 0 2.15389 0 1.38758C0 0.621268 0.624984 0 1.39588 0L29.3125 0C30.0834 0 30.7084 0.621268 30.7084 1.38758C30.7084 2.15402 30.0835 2.77515 29.3126 2.77515Z" transform="translate(0.04357617 41.67493)" id="Shape" fill="#00B396" stroke="none" />
      <path d="M29.3126 2.77515L1.39588 2.77515C0.624984 2.77515 0 2.15389 0 1.38758C0 0.621268 0.624984 0 1.39588 0L29.3125 0C30.0834 0 30.7084 0.621268 30.7084 1.38758C30.7084 2.15402 30.0835 2.77515 29.3126 2.77515Z" transform="translate(0.04357617 33.34972)" id="Shape" fill="#00B396" stroke="none" />
      <path d="M29.3126 2.77515L1.39588 2.77515C0.624984 2.77515 0 2.15389 0 1.38758C0 0.621268 0.624984 0 1.39588 0L29.3125 0C30.0834 0 30.7084 0.621268 30.7084 1.38758C30.7084 2.15402 30.0835 2.77515 29.3126 2.77515Z" transform="translate(0.04357617 25.02452)" id="Shape" fill="#00B396" stroke="none" />
      <path d="M29.3126 2.77515L1.39588 2.77515C0.624984 2.77515 0 2.15389 0 1.38758C0 0.621268 0.624984 0 1.39588 0L29.3125 0C30.0834 0 30.7084 0.621268 30.7084 1.38758C30.7084 2.15389 30.0835 2.77515 29.3126 2.77515Z" transform="translate(0.04357617 16.69932)" id="Shape" fill="#00B396" stroke="none" />
      <path d="M29.3126 2.77515L1.39588 2.77515C0.624984 2.77515 0 2.15389 0 1.38758C0 0.621268 0.624984 0 1.39588 0L29.3125 0C30.0834 0 30.7084 0.621268 30.7084 1.38758C30.7084 2.15402 30.0835 2.77515 29.3126 2.77515Z" transform="translate(0.04357617 8.374114)" id="Shape" fill="#00B396" stroke="none" />
    </g>
  </g>
</svg>