<?xml version="1.0" encoding="utf-8"?>
<svg width="72px" height="72px" viewBox="0 0 72 72" version="1.1" xmlns:xlink="http://www.w3.org/1999/xlink" xmlns="http://www.w3.org/2000/svg">
  <desc>Created with Lunacy</desc>
  <g id="Group-3" transform="translate(16 8)">
    <path d="M5 0L35 0Q35.1281 0 35.2553 0.00582875Q35.3825 0.0116575 35.5086 0.0233031Q35.6347 0.0349487 35.7594 0.0523874Q35.8841 0.0698261 36.0072 0.0930224Q36.1303 0.116219 36.2515 0.145125Q36.3727 0.174032 36.4918 0.208589Q36.6108 0.243147 36.7275 0.283285Q36.8442 0.323424 36.9583 0.369061Q37.0724 0.414698 37.1837 0.465741Q37.2949 0.516784 37.4031 0.573129Q37.5113 0.629473 37.6162 0.691005Q37.7211 0.752536 37.8225 0.819128Q37.9238 0.885721 38.0215 0.957238Q38.1192 1.02876 38.213 1.10505Q38.3067 1.18135 38.3964 1.26227Q38.4861 1.34319 38.5714 1.42857Q38.6568 1.51395 38.7377 1.60362Q38.8187 1.69328 38.895 1.78704Q38.9712 1.88081 39.0428 1.97849Q39.1143 2.07616 39.1809 2.17755Q39.2475 2.27894 39.309 2.38383Q39.3705 2.48872 39.4269 2.5969Q39.4832 2.70508 39.5343 2.81633Q39.5853 2.92758 39.6309 3.04167Q39.6766 3.15577 39.7167 3.27247Q39.7569 3.38917 39.7914 3.50825Q39.826 3.62732 39.8549 3.74853Q39.8838 3.86973 39.907 3.99281Q39.9302 4.1159 39.9476 4.24061Q39.9651 4.36533 39.9767 4.49142Q39.9883 4.61751 39.9942 4.74472Q40 4.87193 40 5L40 35Q40 35.1281 39.9942 35.2553Q39.9883 35.3825 39.9767 35.5086Q39.9651 35.6347 39.9476 35.7594Q39.9302 35.8841 39.907 36.0072Q39.8838 36.1303 39.8549 36.2515Q39.826 36.3727 39.7914 36.4918Q39.7569 36.6108 39.7167 36.7275Q39.6766 36.8442 39.6309 36.9583Q39.5853 37.0724 39.5343 37.1837Q39.4832 37.2949 39.4269 37.4031Q39.3705 37.5113 39.309 37.6162Q39.2475 37.7211 39.1809 37.8225Q39.1143 37.9238 39.0428 38.0215Q38.9712 38.1192 38.895 38.213Q38.8187 38.3067 38.7377 38.3964Q38.6568 38.4861 38.5714 38.5714Q38.4861 38.6568 38.3964 38.7377Q38.3067 38.8187 38.213 38.895Q38.1192 38.9712 38.0215 39.0428Q37.9238 39.1143 37.8225 39.1809Q37.7211 39.2475 37.6162 39.309Q37.5113 39.3705 37.4031 39.4269Q37.2949 39.4832 37.1837 39.5343Q37.0724 39.5853 36.9583 39.6309Q36.8442 39.6766 36.7275 39.7167Q36.6108 39.7569 36.4918 39.7914Q36.3727 39.826 36.2515 39.8549Q36.1303 39.8838 36.0072 39.907Q35.8841 39.9302 35.7594 39.9476Q35.6347 39.9651 35.5086 39.9767Q35.3825 39.9883 35.2553 39.9942Q35.1281 40 35 40L5 40Q4.87193 40 4.74472 39.9942Q4.61751 39.9883 4.49142 39.9767Q4.36533 39.9651 4.24061 39.9476Q4.1159 39.9302 3.99281 39.907Q3.86973 39.8838 3.74853 39.8549Q3.62732 39.826 3.50825 39.7914Q3.38917 39.7569 3.27247 39.7167Q3.15577 39.6766 3.04167 39.6309Q2.92758 39.5853 2.81633 39.5343Q2.70508 39.4832 2.5969 39.4269Q2.48872 39.3705 2.38383 39.309Q2.27894 39.2475 2.17755 39.1809Q2.07616 39.1143 1.97849 39.0428Q1.88081 38.9712 1.78704 38.895Q1.69328 38.8187 1.60362 38.7377Q1.51395 38.6568 1.42857 38.5714Q1.34319 38.4861 1.26227 38.3964Q1.18135 38.3067 1.10505 38.213Q1.02876 38.1192 0.957239 38.0215Q0.885721 37.9238 0.819128 37.8225Q0.752536 37.7211 0.691005 37.6162Q0.629473 37.5113 0.573129 37.4031Q0.516784 37.2949 0.465741 37.1837Q0.414698 37.0724 0.369061 36.9583Q0.323424 36.8442 0.283285 36.7275Q0.243147 36.6108 0.208589 36.4918Q0.174031 36.3727 0.145125 36.2515Q0.116219 36.1303 0.0930224 36.0072Q0.0698261 35.8841 0.0523874 35.7594Q0.0349487 35.6347 0.0233031 35.5086Q0.0116575 35.3825 0.00582875 35.2553Q0 35.1281 0 35L0 5Q0 4.87193 0.00582875 4.74472Q0.0116575 4.61751 0.0233031 4.49142Q0.0349487 4.36533 0.0523874 4.24061Q0.0698261 4.1159 0.0930224 3.99281Q0.116219 3.86973 0.145125 3.74853Q0.174032 3.62732 0.208589 3.50825Q0.243147 3.38917 0.283285 3.27247Q0.323424 3.15577 0.369061 3.04167Q0.414698 2.92758 0.465741 2.81633Q0.516784 2.70508 0.573129 2.5969Q0.629473 2.48872 0.691005 2.38383Q0.752536 2.27894 0.819128 2.17755Q0.885721 2.07616 0.957238 1.97849Q1.02876 1.88081 1.10505 1.78704Q1.18135 1.69328 1.26227 1.60362Q1.34319 1.51395 1.42857 1.42857Q1.51395 1.34319 1.60362 1.26227Q1.69328 1.18135 1.78704 1.10505Q1.88081 1.02876 1.97849 0.957239Q2.07616 0.885721 2.17755 0.819128Q2.27894 0.752536 2.38383 0.691005Q2.48872 0.629473 2.5969 0.573129Q2.70508 0.516784 2.81633 0.465741Q2.92758 0.414698 3.04167 0.369061Q3.15577 0.323424 3.27247 0.283285Q3.38917 0.243147 3.50825 0.208589Q3.62732 0.174031 3.74853 0.145125Q3.86973 0.116219 3.99281 0.0930224Q4.1159 0.0698261 4.24061 0.0523874Q4.36533 0.0349487 4.49142 0.0233031Q4.61751 0.0116575 4.74472 0.00582875Q4.87193 0 5 0Z" id="Rectangle-8" fill="#0097B3" stroke="none" />
    <g id="facebook-letter-logo" transform="translate(15 9)">
      <path d="M2.16145 4.2607C2.16145 4.81511 2.16145 7.28967 2.16145 7.28967L0 7.28967L0 10.9935L2.16145 10.9935L2.16145 22L6.60152 22L6.60152 10.9938L9.58101 10.9938C9.58101 10.9938 9.86006 9.21785 9.99532 7.27601C9.60752 7.27601 6.61831 7.27601 6.61831 7.27601C6.61831 7.27601 6.61831 5.12124 6.61831 4.74355C6.61831 4.36504 7.10241 3.8559 7.58088 3.8559C8.05846 3.8559 9.06642 3.8559 10 3.8559C10 3.35162 10 1.60921 10 0C8.7537 0 7.33582 0 6.71082 0C2.05169 -0.000255747 2.16145 3.70726 2.16145 4.2607Z" id="Facebook" fill="#FFFFFF" stroke="none" />
    </g>
  </g>
</svg>