<?xml version="1.0" encoding="utf-8"?>
<svg width="18px" height="16px" viewBox="0 0 18 16" version="1.1" xmlns:xlink="http://www.w3.org/1999/xlink" xmlns="http://www.w3.org/2000/svg">
  <defs>
    <path d="M17.282 6.03605C17.2251 5.86781 17.076 5.74764 16.8948 5.72017L11.4959 4.97854L9.0664 0.257511C8.9847 0.0995708 8.81776 0 8.63661 0L8.63661 0C8.45547 0 8.28853 0.0995708 8.20683 0.260944L5.80929 4.99571L0.410386 5.77167C0.229238 5.79914 0.0800578 5.91931 0.0232272 6.08755C-0.0336034 6.25579 0.0161234 6.4412 0.147544 6.56137L4.0653 10.2318L3.15957 15.43C3.1276 15.6052 3.20219 15.7803 3.35137 15.8833C3.43306 15.9416 3.53252 15.9725 3.63197 15.9725C3.71011 15.9725 3.7847 15.9554 3.85574 15.9176L8.67569 13.4489L13.5098 15.8901C13.5809 15.9245 13.6555 15.9416 13.7301 15.9416L13.7301 15.9416C13.9929 15.9416 14.2096 15.7322 14.2096 15.4781C14.2096 15.4403 14.206 15.406 14.1954 15.3717L13.2612 10.2043L17.1541 6.5133C17.2926 6.3897 17.3388 6.20429 17.282 6.03605Z" id="path_1" />
    <clipPath id="clip_1">
      <use xlink:href="#path_1" />
    </clipPath>
  </defs>
  <g id="Shape">
    <use stroke="none" fill="#0097B3" xlink:href="#path_1" />
    <g clip-path="url(#clip_1)">
      <use xlink:href="#path_1" fill="none" stroke="#0097B3" stroke-width="2" />
    </g>
  </g>
</svg>
