<?xml version="1.0" encoding="utf-8"?>
<svg width="26px" height="24px" viewBox="0 0 26 24" version="1.1" xmlns:xlink="http://www.w3.org/1999/xlink" xmlns="http://www.w3.org/2000/svg">
  <desc>Created with Lunacy</desc>
  <path d="M25.923 9.05408C25.8377 8.80172 25.6139 8.62146 25.3422 8.58026L17.2439 7.46781L13.5996 0.386266C13.4771 0.149356 13.2266 0 12.9549 0L12.9549 0C12.6832 0 12.4328 0.149356 12.3103 0.391416L8.71394 7.49356L0.615578 8.65751C0.343857 8.69871 0.120087 8.87897 0.0348408 9.13133C-0.0504051 9.38369 0.0241851 9.6618 0.221316 9.84206L6.09796 15.3476L4.73935 23.1451C4.6914 23.4077 4.80328 23.6704 5.02705 23.8249C5.14959 23.9124 5.29878 23.9588 5.44796 23.9588C5.56517 23.9588 5.67705 23.933 5.78361 23.8764L13.0135 20.1734L20.2648 23.8352C20.3713 23.8867 20.4832 23.9124 20.5951 23.9124L20.5951 23.9124C20.9893 23.9124 21.3143 23.5983 21.3143 23.2172C21.3143 23.1605 21.309 23.109 21.293 23.0575L19.8918 15.3064L25.7312 9.76996C25.9389 9.58455 26.0082 9.30644 25.923 9.05408ZM18.6238 14.57C18.4533 14.7296 18.3787 14.9614 18.4213 15.188L19.6414 21.9502L13.3439 18.7725C13.1361 18.6644 12.8857 18.6695 12.6725 18.7725L6.39632 21.9863L7.57378 15.2137C7.61107 14.9871 7.53648 14.7605 7.36599 14.6009L2.27255 9.82146L9.3 8.81202C9.53443 8.77597 9.73689 8.63691 9.83812 8.4309L12.9602 2.26609L16.125 8.41545C16.2316 8.62146 16.434 8.76052 16.6684 8.79657L23.7012 9.76481L18.6238 14.57Z" id="Shape" fill="#333333" stroke="none" />
</svg>