<?xml version="1.0" encoding="utf-8"?>
<svg width="14px" height="13px" viewBox="0 0 14 13" version="1.1" xmlns:xlink="http://www.w3.org/1999/xlink" xmlns="http://www.w3.org/2000/svg">
  <path d="M12.9615 4.52704C12.9189 4.40086 12.807 4.31073 12.6711 4.29013L8.62193 3.73391L6.7998 0.193133C6.73853 0.0746781 6.61332 0 6.47746 0L6.47746 0C6.3416 0 6.2164 0.0746781 6.15513 0.195708L4.35697 3.74678L0.307789 4.32876C0.171929 4.34936 0.0600434 4.43948 0.0174204 4.56567C-0.0252025 4.69185 0.0120925 4.8309 0.110658 4.92103L3.04898 7.67382L2.36967 11.5725C2.3457 11.7039 2.40164 11.8352 2.51353 11.9124C2.5748 11.9562 2.64939 11.9794 2.72398 11.9794C2.78258 11.9794 2.83853 11.9665 2.89181 11.9382L6.50676 10.0867L10.1324 11.9176C10.1857 11.9433 10.2416 11.9562 10.2975 11.9562L10.2975 11.9562C10.4947 11.9562 10.6572 11.7991 10.6572 11.6086C10.6572 11.5803 10.6545 11.5545 10.6465 11.5288L9.9459 7.65322L12.8656 4.88498C12.9695 4.79227 13.0041 4.65322 12.9615 4.52704ZM9.31189 7.28498C9.22664 7.36481 9.18935 7.48069 9.21066 7.59399L9.8207 10.9751L6.67193 9.38627C6.56804 9.33219 6.44283 9.33476 6.33627 9.38627L3.19816 10.9931L3.78689 7.60687C3.80554 7.49356 3.76824 7.38026 3.68299 7.30043L1.13627 4.91073L4.65 4.40601C4.76722 4.38798 4.86844 4.31845 4.91906 4.21545L6.48012 1.13305L8.0625 4.20773C8.11578 4.31073 8.21701 4.38026 8.33422 4.39828L11.8506 4.8824L9.31189 7.28498Z" transform="translate(0.1499023 0.1500244)" id="Shape" fill="#ffffff" stroke="#ffffff" stroke-width="0.3" />
</svg>
