<?xml version="1.0" encoding="utf-8"?>
<svg width="72px" height="64px" viewBox="0 0 72 64" version="1.1" xmlns:xlink="http://www.w3.org/1999/xlink" xmlns="http://www.w3.org/2000/svg">
  <desc>Created with Lunacy</desc>
  <g id="funds-2">
    <path d="M54.9174 26.8894C54.9158 26.8762 54.9148 26.8628 54.9129 26.8497C54.9034 26.7844 54.8909 26.7193 54.8732 26.6549C54.873 26.6543 54.8727 26.6536 54.8726 26.6528C54.856 26.5927 54.8348 26.5334 54.811 26.4747C54.8041 26.4579 54.7966 26.4418 54.7893 26.4253C54.7705 26.3829 54.7495 26.3412 54.7268 26.3002C54.7169 26.2823 54.7073 26.2643 54.6965 26.2467C54.6908 26.2372 54.6863 26.2273 54.6803 26.2178C54.6562 26.1798 54.6299 26.1441 54.6032 26.1087C54.5982 26.102 54.5941 26.0951 54.5891 26.0886C54.5485 26.0363 54.5046 25.9876 54.4586 25.9416C54.45 25.9328 54.4406 25.9248 54.4316 25.9164C54.3916 25.878 54.3502 25.8422 54.3069 25.8084C54.2959 25.7998 54.2852 25.7913 54.2738 25.783C54.2159 25.7404 54.1563 25.7006 54.094 25.6662L30.1496 12.1319L43.936 3.49938L67.0487 16.5631L57.3147 22.6582C56.555 23.1336 56.327 24.1316 56.8053 24.8869C57.2835 25.6423 58.2869 25.869 59.0466 25.3934L71.0779 17.8599C71.5616 17.5572 71.8498 17.0241 71.8368 16.4558C71.8239 15.8876 71.512 15.3681 71.015 15.0873L44.6963 0.21114C44.1758 -0.083325 43.5343 -0.0687795 43.0272 0.248473L26.1314 10.828C26.128 10.8301 26.1244 10.8324 26.121 10.8345L17.6781 16.1211C17.6742 16.1235 17.6703 16.126 17.6666 16.1284L0.759266 26.7152C0.275582 27.0179 -0.0125802 27.5511 0.000422081 28.1193C0.0132618 28.6876 0.325153 29.207 0.822165 29.4879L27.141 44.364C27.3903 44.5051 27.6673 44.5753 27.9441 44.5753C28.2452 44.5753 28.5459 44.492 28.81 44.3267L40.8413 36.7931C41.601 36.3176 41.829 35.3197 41.3507 34.5644C40.8727 33.809 39.8689 33.5821 39.1094 34.0579L27.9013 41.0759L4.78867 28.0119L18.5753 19.3791L43.2259 33.3124L43.2259 51.766C43.2259 52.3547 43.5476 52.8966 44.0657 53.181C44.3107 53.3155 44.5811 53.3822 44.8512 53.3822C45.1525 53.3822 45.4532 53.299 45.7172 53.1336L54.1709 47.8402C54.6436 47.5443 54.9302 47.0279 54.9302 46.4726L54.9302 27.0787C54.9302 27.0692 54.9286 27.0601 54.9283 27.0506C54.9273 26.9969 54.9237 26.9433 54.9174 26.8894ZM46.4765 48.8387L46.4765 32.3723C46.4765 31.7909 46.1625 31.2545 45.6543 30.9673L21.6958 17.4254L27.0289 14.0859L50.1414 27.1498L48.1177 28.4169C47.3581 28.8924 47.13 29.8903 47.6084 30.6456C47.9172 31.1336 48.4452 31.4008 48.9853 31.4008C49.2811 31.4008 49.5808 31.3205 49.8496 31.1521L51.6795 30.0064L51.6795 45.5807L46.4765 48.8387Z" transform="translate(0.0003905602 0.0157694)" id="Shape" fill="#0097B3" stroke="none" />
    <path d="M12.7909 0.248845L0.759541 7.78226C-0.000116191 8.25773 -0.228143 9.25571 0.250177 10.0109C0.558981 10.499 1.08704 10.7662 1.62712 10.7662C1.92292 10.7662 2.22262 10.6859 2.49144 10.5175L14.5228 2.98404C15.2824 2.50856 15.5104 1.51058 15.0321 0.75535C14.554 -4.39144e-05 13.5503 -0.226953 12.7909 0.248845Z" transform="translate(56.55571 21.35616)" id="Shape" fill="#0097B3" stroke="none" />
    <path d="M39.1097 7.59129L27.9016 14.6093L2.42868 0.211408C1.64887 -0.229481 0.656143 0.0413875 0.212603 0.817792C-0.230936 1.59371 0.0419488 2.58038 0.822409 3.02143L27.1413 17.8975C27.3906 18.0386 27.6675 18.1088 27.9443 18.1088C28.2455 18.1088 28.5461 18.0255 28.8103 17.8602L40.8416 10.3266C41.6012 9.85117 41.8293 8.85319 41.3509 8.09795C40.8729 7.3424 39.8692 7.11549 39.1097 7.59129Z" transform="translate(-1.652627E-05 32.9469)" id="Shape" fill="#0097B3" stroke="none" />
    <path d="M12.7909 0.248884L0.759541 7.7823C-0.000116191 8.25777 -0.228143 9.25575 0.250177 10.011C0.558981 10.4991 1.08704 10.7662 1.62712 10.7662C1.92292 10.7662 2.22262 10.6859 2.49144 10.5175L14.5228 2.98408C15.2824 2.5086 15.5104 1.51062 15.0321 0.755389C14.554 -0.000166262 13.5503 -0.226914 12.7909 0.248884Z" transform="translate(56.55571 27.82077)" id="Shape" fill="#0097B3" stroke="none" />
    <path d="M39.1097 7.59129L27.9016 14.6093L2.42868 0.211408C1.64887 -0.229481 0.656143 0.0413875 0.212603 0.817792C-0.230936 1.59371 0.0419488 2.58038 0.822409 3.02143L27.1413 17.8975C27.3906 18.0386 27.6675 18.1088 27.9443 18.1088C28.2455 18.1088 28.5461 18.0255 28.8103 17.8602L40.8416 10.3266C41.6012 9.85117 41.8293 8.85319 41.3509 8.09795C40.8729 7.34224 39.8692 7.11549 39.1097 7.59129Z" transform="translate(-1.652627E-05 39.41154)" id="Shape" fill="#0097B3" stroke="none" />
    <path d="M12.7909 0.248773L0.759541 7.78219C-0.000116191 8.25766 -0.228143 9.25564 0.250177 10.0109C0.558981 10.499 1.08704 10.7661 1.62712 10.7661C1.92292 10.7661 2.22262 10.6858 2.49144 10.5174L14.5228 2.98397C15.2824 2.50849 15.5104 1.51051 15.0321 0.755278C14.554 -0.000115539 13.5503 -0.226863 12.7909 0.248773Z" transform="translate(56.55571 34.28553)" id="Shape" fill="#0097B3" stroke="none" />
    <path d="M39.1097 7.59129L27.9016 14.6093L2.42868 0.211408C1.64887 -0.229481 0.656143 0.0413875 0.212603 0.817792C-0.230936 1.59371 0.0419488 2.58038 0.822409 3.02143L27.1413 17.8975C27.3906 18.0386 27.6675 18.1088 27.9443 18.1088C28.2455 18.1088 28.5461 18.0255 28.8103 17.8602L40.8416 10.3266C41.6012 9.85117 41.8293 8.85319 41.3509 8.09795C40.8729 7.3424 39.8692 7.11549 39.1097 7.59129Z" transform="translate(-1.652627E-05 45.87619)" id="Shape" fill="#0097B3" stroke="none" />
  </g>
</svg>