<?xml version="1.0" encoding="utf-8"?>
<svg width="64px" height="64px" viewBox="0 0 64 64" version="1.1" xmlns:xlink="http://www.w3.org/1999/xlink" xmlns="http://www.w3.org/2000/svg">
  <desc>Created with Lunacy</desc>
  <g id="global-2">
    <path d="M60.4898 17.4552C55.1834 7.1053 44.409 0 32 0C19.587 0 8.81114 7.10802 3.50611 17.4654C3.48505 17.5068 3.45992 17.5442 3.44361 17.5876C1.2466 21.9226 0 26.8173 0 32C0 37.1841 1.2466 42.0788 3.44361 46.4124C3.45992 46.4558 3.48505 46.4932 3.50611 46.5346C8.80978 56.892 19.587 64 32 64C44.409 64 55.1834 56.8961 60.4898 46.5448C60.5136 46.4986 60.5414 46.4572 60.5591 46.4083C62.7548 42.0747 64 37.1814 64 32C64 26.8186 62.7548 21.9253 60.5591 17.5917C60.5401 17.5428 60.5136 17.5014 60.4898 17.4552ZM58.358 44.5217L46.1284 44.5217C46.8077 41.0938 47.2113 37.3451 47.2874 33.3913L61.1467 33.3913C60.9586 37.3607 59.9817 41.1189 58.358 44.5217ZM32 61.2174C27.5992 61.2174 23.6522 55.5754 21.4137 47.3043L42.5863 47.3043C40.3478 55.5754 36.4008 61.2174 32 61.2174ZM20.7486 44.5217C20.0292 41.1005 19.5938 37.3383 19.5102 33.3913L44.4912 33.3913C44.4063 37.3383 43.9708 41.1005 43.2527 44.5217L20.7486 44.5217ZM2.85326 33.3913L16.7126 33.3913C16.7901 37.3451 17.1923 41.0938 17.8716 44.5217L5.64198 44.5217C4.01834 41.1189 3.04144 37.3607 2.85326 33.3913ZM5.64198 19.4783L17.8716 19.4783C17.1923 22.9063 16.7887 26.6549 16.7126 30.6087L2.85326 30.6087C3.04144 26.6393 4.01834 22.8811 5.64198 19.4783ZM32 2.78261C36.4008 2.78261 40.3478 8.42459 42.5863 16.6957L21.4137 16.6957C23.6522 8.42459 27.5992 2.78261 32 2.78261ZM43.2514 19.4783C43.9708 22.8981 44.4062 26.6617 44.4898 30.6087L19.5088 30.6087C19.5938 26.6617 20.0292 22.8981 20.7473 19.4783L43.2514 19.4783ZM47.2874 30.6087C47.2099 26.6549 46.8077 22.9063 46.1284 19.4783L58.358 19.4783C59.9817 22.8811 60.9586 26.6393 61.1467 30.6087L47.2874 30.6087ZM56.8404 16.6957L45.4986 16.6957C44.0904 11.1753 41.9314 6.67255 39.286 3.73981C46.6753 5.64742 52.9253 10.3641 56.8404 16.6957L56.8404 16.6957ZM24.7126 3.73981C22.0686 6.67255 19.9096 11.1753 18.5 16.6957L7.15829 16.6957C11.0747 10.3641 17.3247 5.64742 24.7126 3.73981ZM7.15965 47.3043L18.5 47.3043C19.9083 52.8247 22.0673 57.3274 24.7126 60.2602C17.3247 58.3526 11.0747 53.6345 7.15965 47.3043ZM39.2874 60.2602C41.9314 57.3274 44.0904 52.8247 45.5 47.3043L56.8404 47.3043C52.9253 53.6345 46.6753 58.3526 39.2874 60.2602L39.2874 60.2602Z" id="Shape" fill="#E7711B" stroke="none" />
  </g>
</svg>