<?xml version="1.0" encoding="UTF-8"?>
<svg width="14px" height="16px" viewBox="0 0 14 16" version="1.1" xmlns="http://www.w3.org/2000/svg" xmlns:xlink="http://www.w3.org/1999/xlink">
    <!-- Generator: Sketch 50.2 (55047) - http://www.bohemiancoding.com/sketch -->
    <title>medal-2</title>
    <desc>Created with Sketch.</desc>
    <defs></defs>
    <g id="Page-1" stroke="none" stroke-width="1" fill="none" fill-rule="evenodd">
        <g id="Desktop-Personal-Page-Organization" transform="translate(-34.000000, -576.000000)" fill="#555555" fill-rule="nonzero">
            <g id="Group-13-Copy-3" transform="translate(0.000000, 554.000000)">
                <g id="medal-2" transform="translate(34.000000, 22.000000)">
                    <path d="M13.9386435,13.2837438 L11.5363246,9.18522167 C11.7798029,9.07487685 11.9258899,8.8226601 11.909658,8.53891626 L11.7311072,7.08866995 L12.7537159,6.04827586 C12.9809623,5.82758621 12.9971942,5.44926108 12.7699478,5.18128079 L11.7473391,4.10935961 L11.9583536,2.64334975 C11.9908174,2.32807882 11.763571,2.01280788 11.4389333,1.94975369 L9.96183188,1.66600985 L9.24762899,0.389162562 C9.10154203,0.0896551724 8.74444058,-0.036453202 8.4198029,0.0896551724 L8.40357101,0.0896551724 L7.04009275,0.704433498 L5.70907826,0.0738916256 C5.5629913,-0.00492610837 5.38444058,-0.0206896552 5.22212174,0.0266009852 C5.0598029,0.0738916256 4.92994783,0.184236453 4.84878841,0.326108374 L4.11835362,1.60295567 L2.64125217,1.85517241 C2.30038261,1.9182266 2.07313623,2.21773399 2.1056,2.56453202 L2.28415072,4.01477833 L1.26154203,5.05517241 C1.03429565,5.27586207 1.01806377,5.65418719 1.24531014,5.92216749 L2.26791884,6.99408867 L2.05690435,8.46009852 C2.02444058,8.74384236 2.2029913,9.01182266 2.47893333,9.12216749 L0.0603826087,13.2837438 C-0.00454492754,13.3783251 0.0116869565,13.5044335 0.0603826087,13.5990148 C0.125310145,13.6935961 0.222701449,13.7566502 0.336324638,13.7566502 L2.93342609,13.7566502 L4.11835362,15.7586207 C4.18328116,15.853202 4.28067246,15.9162562 4.39429565,15.9162562 C4.50791884,15.9162562 4.62154203,15.853202 4.67023768,15.7586207 L6.9913971,11.9123153 L9.31255652,15.8059113 C9.37748406,15.9004926 9.47487536,15.9635468 9.58849855,15.9635468 C9.70212174,15.9635468 9.81574493,15.9004926 9.86444058,15.8059113 L11.0493681,13.7566502 L13.6464696,13.7566502 C13.7600928,13.7566502 13.8737159,13.6935961 13.9224116,13.5990148 C14.003571,13.5044335 14.003571,13.3783251 13.9386435,13.2837438 Z M4.41052754,14.9704433 L3.40415072,13.2837438 C3.33922319,13.1891626 3.24183188,13.1261084 3.1282087,13.1261084 L0.888208696,13.1261084 L3.1282087,9.27980296 L4.05342609,9.43743842 L4.76762899,10.7142857 C4.91371594,11.0137931 5.27081739,11.1399015 5.59545507,11.0137931 L5.61168696,11.0137931 L6.2771942,10.7142857 L6.60183188,11.2660099 L4.41052754,14.9704433 Z M5.35197681,10.4463054 C5.33574493,10.4463054 5.33574493,10.4463054 5.33574493,10.4463054 L4.62154203,9.13793103 C4.52415072,8.98029557 4.36183188,8.85418719 4.16704928,8.83842365 L2.67371594,8.57044335 L2.88473043,7.12019704 C2.9171942,6.93103448 2.85226667,6.72610837 2.72241159,6.6 L1.71603478,5.52807882 L2.73864348,4.48768473 C2.88473043,4.34581281 2.94965797,4.15665025 2.9171942,3.96748768 L2.73864348,2.53300493 C2.73864348,2.53300493 2.73864348,2.51724138 2.75487536,2.50147783 L4.23197681,2.24926108 C4.41052754,2.21773399 4.58907826,2.10738916 4.68646957,1.93399015 L5.41690435,0.657142857 L6.74791884,1.28768473 C6.92646957,1.38226601 7.15371594,1.38226601 7.33226667,1.28768473 L8.67951304,0.688669951 C8.69574493,0.688669951 8.69574493,0.688669951 8.69574493,0.688669951 L9.40994783,1.99704433 C9.50733913,2.1546798 9.66965797,2.28078818 9.8482087,2.29655172 L11.3253101,2.58029557 L11.1142957,4.03054187 C11.0818319,4.21970443 11.1467594,4.42463054 11.2766145,4.55073892 L12.2992232,5.6226601 L11.2603826,6.66305419 C11.1142957,6.80492611 11.0493681,6.99408867 11.0818319,7.18325123 L11.2603826,8.63349754 L9.79951304,8.86995074 C9.62096232,8.90147783 9.44241159,9.01182266 9.34502029,9.18522167 L8.61458551,10.462069 L7.28357101,9.83152709 C7.10502029,9.73694581 6.87777391,9.73694581 6.69922319,9.83152709 L5.35197681,10.4463054 Z M10.8708174,13.1261084 C10.7571942,13.1261084 10.643571,13.1891626 10.5948754,13.2837438 L9.58849855,15.017734 L7.2998029,11.1714286 C7.28357101,11.1241379 7.26733913,11.0926108 7.23487536,11.0610837 L6.87777391,10.4463054 L6.9913971,10.3990148 L8.32241159,11.0295567 C8.4198029,11.0768473 8.5171942,11.0926108 8.61458551,11.0926108 C8.84183188,11.0926108 9.06907826,10.982266 9.18270145,10.7773399 L9.91313623,9.50049261 L10.8870493,9.3270936 L13.1108174,13.1261084 L10.8708174,13.1261084 Z" id="Shape"></path>
                    <path d="M10.2377739,5.55960591 C10.2377739,3.82561576 8.77690435,2.40689655 6.9913971,2.40689655 C5.20588986,2.40689655 3.74502029,3.82561576 3.74502029,5.55960591 C3.74502029,7.29359606 5.20588986,8.71231527 6.9913971,8.71231527 C8.77690435,8.71231527 10.2377739,7.29359606 10.2377739,5.55960591 Z M6.9913971,8.0817734 C5.5629913,8.0817734 4.39429565,6.94679803 4.39429565,5.55960591 C4.39429565,4.17241379 5.5629913,3.03743842 6.9913971,3.03743842 C8.4198029,3.03743842 9.58849855,4.17241379 9.58849855,5.55960591 C9.58849855,6.94679803 8.4198029,8.0817734 6.9913971,8.0817734 Z" id="Shape"></path>
                </g>
            </g>
        </g>
    </g>
</svg>