<?xml version="1.0" encoding="UTF-8"?>
<svg width="77px" height="80px" viewBox="0 0 77 80" version="1.1" xmlns="http://www.w3.org/2000/svg" xmlns:xlink="http://www.w3.org/1999/xlink">
    <!-- Generator: Sketch 50.2 (55047) - http://www.bohemiancoding.com/sketch -->
    <title>irganizations_icon</title>
    <desc>Created with Sketch.</desc>
    <defs></defs>
    <g id="Page-1" stroke="none" stroke-width="1" fill="none" fill-rule="evenodd">
        <g id="Artboard" transform="translate(-264.000000, -154.000000)" fill="#00B396" fill-rule="nonzero">
            <g id="irganizations_icon" transform="translate(264.000000, 154.000000)">
                <path d="M11.0453415,16.6661279 C11.9269512,17.3414141 13.1863171,17.1714478 13.8591951,16.2868687 C19.7806829,8.49777778 28.7617805,4.03097643 38.5,4.03097643 C48.2382195,4.03097643 57.2193171,8.49804714 63.1408049,16.2868687 C63.536,16.8064646 64.1334878,17.0793266 64.7382195,17.0793266 C65.1626585,17.0793266 65.591122,16.9446465 65.9546585,16.6661279 C66.8357317,15.9905724 67.0047561,14.7259259 66.3324146,13.8410774 C59.6446829,5.04484848 49.5002683,0 38.5,0 C27.4997317,0 17.3553171,5.04484848 10.6678537,13.8410774 C9.9952439,14.7259259 10.1642683,15.9905724 11.0453415,16.6661279 Z" id="Shape"></path>
                <path d="M59.8391951,27.4171044 C59.8391951,30.8878114 62.6519756,33.7117845 66.1089268,33.7117845 C69.565878,33.7117845 72.3786585,30.8878114 72.3786585,27.4171044 C72.3786585,23.9463973 69.565878,21.1224242 66.1089268,21.1224242 C62.6519756,21.1224242 59.8391951,23.9461279 59.8391951,27.4171044 Z" id="Shape"></path>
                <path d="M72.5254146,35.8006734 C72.5109268,35.7958249 70.9312195,35.3090909 70.9312195,35.3090909 C70.3592195,35.1337374 69.7378537,35.2417508 69.2589512,35.6016162 L66.1089268,37.9695623 L62.9589024,35.6016162 C62.4797317,35.2414815 61.8580976,35.133468 61.2866341,35.3090909 C61.2866341,35.3090909 59.7069268,35.7958249 59.692439,35.8006734 C57.1506341,36.6515825 55.4429512,39.030303 55.4429512,41.7201347 L55.4429512,51.2363636 C55.4429512,51.6035017 55.5497317,51.9625589 55.7509512,52.2690909 L58.9296829,57.1259259 L58.9296829,69.8806734 C58.9296829,70.919596 59.7683659,71.7616162 60.8031707,71.7616162 L71.4149512,71.7616162 C72.4497561,71.7616162 73.288439,70.919596 73.288439,69.8806734 L73.288439,57.1259259 L76.4671707,52.2690909 C76.668122,51.9622896 76.7751707,51.6032323 76.7751707,51.2363636 L76.7751707,41.7201347 C76.7751707,39.030303 75.0672195,36.6515825 72.5254146,35.8006734 Z" id="Shape"></path>
                <path d="M10.8910732,33.7117845 C14.3480244,33.7117845 17.1608049,30.8878114 17.1608049,27.4171044 C17.1608049,23.9463973 14.3480244,21.1224242 10.8910732,21.1224242 C7.43412195,21.1224242 4.62107317,23.9461279 4.62107317,27.4171044 C4.62107317,30.8880808 7.43385366,33.7117845 10.8910732,33.7117845 Z" id="Shape"></path>
                <path d="M17.307561,35.8006734 C17.2930732,35.7958249 15.7133659,35.3090909 15.7133659,35.3090909 C15.1410976,35.1337374 14.5202683,35.2417508 14.0410976,35.6016162 L10.8910732,37.9695623 L7.74104878,35.6016162 C7.26214634,35.2414815 6.6402439,35.133468 6.06878049,35.3090909 C6.06878049,35.3090909 4.48907317,35.7958249 4.47458537,35.8006734 C1.93278049,36.6515825 0.225097561,39.030303 0.225097561,41.7201347 L0.225097561,51.2363636 C0.225097561,51.6035017 0.331878049,51.9625589 0.533097561,52.2690909 L3.71182927,57.1259259 L3.71182927,69.8806734 C3.71182927,70.919596 4.5505122,71.7616162 5.58531707,71.7616162 L16.1968293,71.7616162 C17.2316341,71.7616162 18.0703171,70.919596 18.0703171,69.8806734 L18.0703171,57.1259259 L21.2490488,52.2690909 C21.45,51.9622896 21.5570488,51.6032323 21.5570488,51.2363636 L21.5570488,41.7201347 C21.5570488,39.030303 19.8490976,36.6515825 17.307561,35.8006734 Z" id="Shape"></path>
                <path d="M46.586878,18.5457239 C46.586878,14.0689562 42.9590244,10.4266667 38.5,10.4266667 C34.0409756,10.4266667 30.413122,14.0689562 30.413122,18.5457239 C30.413122,23.0227609 34.0409756,26.6647811 38.5,26.6647811 C42.9590244,26.6647811 46.586878,23.0227609 46.586878,18.5457239 Z" id="Shape"></path>
                <path d="M47.3823659,30.599596 L47.3689512,30.5952862 L45.0608293,29.8841751 C44.6967561,29.7718519 44.3077317,29.9652525 44.1768049,30.3259259 L39.3233902,43.6956229 C39.0432927,44.4668013 37.9569756,44.4668013 37.676878,43.6956229 L32.8234634,30.3259259 C32.7177561,30.0347475 32.4440976,29.8521212 32.1505854,29.8521212 C32.0810976,29.8521212 29.634,30.5942088 29.634,30.5942088 C26.6854634,31.5806061 24.7156585,34.3248485 24.7156585,37.4278788 L24.7156585,51.5709091 C24.7156585,51.7112458 24.7567073,51.8486195 24.833439,51.9660606 L29.8977317,59.703165 L29.8977317,79.2802694 C29.8977317,79.6778451 30.2186098,80 30.6146098,80 L46.3856585,80 C46.7816585,80 47.1025366,79.6778451 47.1025366,79.2802694 L47.1025366,59.703165 L52.1668293,51.9660606 C52.243561,51.8486195 52.2846098,51.7112458 52.2846098,51.5709091 L52.2846098,37.3907071 C52.2843415,34.3011448 50.3067561,31.5614815 47.3823659,30.599596 Z" id="Shape"></path>
                <path d="M40.3962927,30.3181145 C40.195878,30.0988552 39.9026341,29.9884175 39.6059024,29.9884175 L37.3938293,29.9884175 C37.0973659,29.9884175 36.804122,30.0988552 36.603439,30.3181145 C36.2930244,30.6577778 36.2479512,31.1482828 36.4682195,31.5315825 L37.6505854,33.3212121 L37.0970976,38.0094276 L38.1871707,40.9206734 C38.2934146,41.213468 38.7057805,41.213468 38.8122927,40.9206734 L39.9023659,38.0094276 L39.348878,33.3212121 L40.5312439,31.5315825 C40.7517805,31.1482828 40.7067073,30.6577778 40.3962927,30.3181145 Z" id="Shape"></path>
            </g>
        </g>
    </g>
</svg>