<?xml version="1.0" encoding="utf-8"?>
<svg width="24px" height="24px" viewBox="0 0 24 24" version="1.1" xmlns:xlink="http://www.w3.org/1999/xlink" xmlns="http://www.w3.org/2000/svg">
  <desc>Created with Lunacy</desc>
  <g id="key">
    <path d="M1.49708 3C2.32389 3 2.99415 2.32843 2.99415 1.5C2.99415 0.671573 2.32389 0 1.49708 0C0.670264 0 0 0.671573 0 1.5C0 2.32843 0.670264 3 1.49708 3Z" transform="translate(15.53216 5.065406)" id="Oval" fill="#0097B3" stroke="none" />
    <path d="M23.6949 7.77516C23.1952 6.50044 22.279 4.6612 20.7515 3.13795C19.2294 1.61995 17.4132 0.728205 16.1576 0.247361C14.7792 -0.280499 13.2128 0.0522202 12.1672 1.09495L8.49291 4.75917C7.40374 5.84531 7.08982 7.5166 7.71172 8.91792C7.90456 9.35255 8.11429 9.77766 8.33839 10.1884L0.274058 18.2684C0.0985731 18.4442 0 18.6827 0 18.9314L0 23.0564C0 23.5741 0.418901 23.9939 0.935672 23.9939L5.05263 23.9939C5.5694 23.9939 5.9883 23.5741 5.9883 23.0564L5.9883 21.3689L7.67251 21.3688C8.18929 21.3688 8.60819 20.9491 8.60819 20.4313L8.60819 18.7439L10.2924 18.7439C10.8092 18.7439 11.2281 18.3241 11.2281 17.8064C11.2281 17.2886 10.8092 16.8689 10.2924 16.8689L7.67251 16.8689C7.15574 16.8689 6.73684 17.2886 6.73684 17.8064L6.73684 19.4938L5.05263 19.4939C4.53586 19.4939 4.11696 19.9136 4.11696 20.4314L4.11696 22.1189L1.87134 22.1189L1.87134 19.3197L10.1687 11.0062C10.4735 10.7008 10.5306 10.2263 10.307 9.85697C9.98278 9.32147 9.68491 8.74922 9.42175 8.15611C9.11303 7.46044 9.27032 6.62939 9.81315 6.08803L13.4874 2.42386C14.012 1.90078 14.7978 1.73395 15.4896 1.9988C16.576 2.41486 18.1418 3.1807 19.4314 4.46686C20.729 5.7608 21.5189 7.35281 21.9531 8.46047C22.224 9.15178 22.0594 9.93717 21.5337 10.4614L17.815 14.1699C17.2735 14.7098 16.4653 14.8677 15.7558 14.5721C15.1707 14.3282 14.604 14.0385 14.0716 13.7111C13.6312 13.4403 13.055 13.5785 12.7847 14.0198C12.5144 14.461 12.6523 15.0383 13.0927 15.3092C13.708 15.6876 14.3622 16.022 15.0371 16.3033C16.4473 16.891 18.0558 16.5751 19.1351 15.4988L22.8538 11.7904C23.9085 10.7386 24.2386 9.16252 23.6949 7.77516Z" transform="translate(0 0.00313915)" id="Shape" fill="#0097B3" stroke="none" />
  </g>
</svg>