<?xml version="1.0" encoding="utf-8"?>
<svg width="64px" height="84px" viewBox="0 0 64 84" version="1.1" xmlns:xlink="http://www.w3.org/1999/xlink" xmlns="http://www.w3.org/2000/svg">
  <desc>Created with Lunacy</desc>
  <defs>
    <filter filterUnits="userSpaceOnUse" color-interpolation-filters="sRGB" id="filter_1">
      <feFlood flood-opacity="0" result="BackgroundImageFix" />
      <feColorMatrix in="SourceAlpha" type="matrix" values="0 0 0 0 0 0 0 0 0 0 0 0 0 0 0 0 0 0 127 0" />
      <feOffset dx="0" dy="1" />
      <feGaussianBlur stdDeviation="1" />
      <feColorMatrix type="matrix" values="0 0 0 0 0 0 0 0 0 0 0 0 0 0 0 0 0 0 0.2 0" />
      <feBlend mode="normal" in2="BackgroundImageFix" result="effect0_dropShadow" />
      <feBlend mode="normal" in="SourceGraphic" in2="effect0_dropShadow" result="shape" />
    </filter>
    <path d="M0.780488 2.89989e-15L46.3313 0L64 16.8167L64 83.2195Q64 83.2997 63.9855 83.3767Q63.971 83.4538 63.9424 83.5252Q63.9138 83.5966 63.8721 83.6601Q63.8305 83.7236 63.777 83.777Q63.7236 83.8305 63.6601 83.8721Q63.5966 83.9138 63.5252 83.9424Q63.4538 83.971 63.3767 83.9855Q63.2997 84 63.2195 84L0.780488 84Q0.700318 84 0.623268 83.9855Q0.546219 83.971 0.474798 83.9424Q0.403377 83.9138 0.33991 83.8721Q0.276443 83.8305 0.222997 83.777Q0.16955 83.7236 0.127864 83.6601Q0.0861779 83.5966 0.0576095 83.5252Q0.0290411 83.4538 0.0145206 83.3767Q9.00906e-17 83.2997 9.04234e-17 83.2195L4.32676e-16 0.780488Q4.33008e-16 0.700318 0.0145206 0.623268Q0.0290411 0.546219 0.0576095 0.474798Q0.0861779 0.403377 0.127864 0.33991Q0.16955 0.276443 0.222997 0.222997Q0.276443 0.16955 0.33991 0.127864Q0.403377 0.0861779 0.474798 0.0576095Q0.546219 0.0290411 0.623268 0.0145206Q0.700318 2.90499e-15 0.780488 2.89989e-15Z" id="path_1" />
    <clipPath id="mask_1">
      <use xlink:href="#path_1" />
    </clipPath>
  </defs>
  <g id="Group-14">
    <g id="Path-7-Copy-3">
      <g filter="url(#filter_1)">
        <path d="M0.780488 2.89989e-15L46.3313 0L64 16.8167L64 83.2195Q64 83.2997 63.9855 83.3767Q63.971 83.4538 63.9424 83.5252Q63.9138 83.5966 63.8721 83.6601Q63.8305 83.7236 63.777 83.777Q63.7236 83.8305 63.6601 83.8721Q63.5966 83.9138 63.5252 83.9424Q63.4538 83.971 63.3767 83.9855Q63.2997 84 63.2195 84L0.780488 84Q0.700318 84 0.623268 83.9855Q0.546219 83.971 0.474798 83.9424Q0.403377 83.9138 0.33991 83.8721Q0.276443 83.8305 0.222997 83.777Q0.16955 83.7236 0.127864 83.6601Q0.0861779 83.5966 0.0576095 83.5252Q0.0290411 83.4538 0.0145206 83.3767Q9.00906e-17 83.2997 9.04234e-17 83.2195L4.32676e-16 0.780488Q4.33008e-16 0.700318 0.0145206 0.623268Q0.0290411 0.546219 0.0576095 0.474798Q0.0861779 0.403377 0.127864 0.33991Q0.16955 0.276443 0.222997 0.222997Q0.276443 0.16955 0.33991 0.127864Q0.403377 0.0861779 0.474798 0.0576095Q0.546219 0.0290411 0.623268 0.0145206Q0.700318 2.90499e-15 0.780488 2.89989e-15Z" id="Mask" fill="#F0FBFF" stroke="none" />
      </g>
      <g clip-path="url(#mask_1)">
        <path d="M6.97465e-16 0L17.6677 16.8L0.780488 16.8Q0.700318 16.8 0.623268 16.7854Q0.546219 16.7709 0.474798 16.7423Q0.403377 16.7138 0.33991 16.6721Q0.276443 16.6304 0.222997 16.577Q0.16955 16.5235 0.127864 16.46Q0.0861779 16.3966 0.0576095 16.3252Q0.0290411 16.2537 0.0145206 16.1767Q2.90743e-17 16.0996 3.24026e-17 16.0195L6.97465e-16 0Z" transform="translate(46.33186 0.001508278)" id="Path-7" fill="#0097B3" stroke="none" />
      </g>
    </g>
    <g id="COURT" fill="#0097B3" transform="translate(11 37)">
      <path d="M16.5 7.98828Q16.5 10.1152 15.4453 11.2578Q14.3906 12.4004 12.4219 12.4004Q10.4531 12.4004 9.39844 11.2578Q8.34375 10.1152 8.34375 7.97656Q8.34375 5.83789 9.40137 4.70996Q10.459 3.58203 12.4336 3.58203Q14.4082 3.58203 15.4541 4.71875Q16.5 5.85547 16.5 7.98828ZM4.7168 5.10547Q3.69141 5.10547 3.12891 5.87598Q2.56641 6.64648 2.56641 8.02344Q2.56641 9.85629 3.44634 10.5167Q3.94198 10.8887 4.7168 10.8887Q5.61914 10.8887 6.90234 10.4375L6.90234 11.9609Q5.84766 12.4004 4.54688 12.4004Q2.67773 12.4004 1.6875 11.2666Q0.697266 10.1328 0.697266 8.01172Q0.697266 6.67578 1.18359 5.6709Q1.66992 4.66602 2.58105 4.12988Q3.49219 3.59375 4.7168 3.59375Q5.96484 3.59375 7.22461 4.19727L6.63867 5.67383Q6.1582 5.44531 5.67188 5.27539Q5.18555 5.10547 4.7168 5.10547ZM25.248 9.25977L25.248 3.7168L23.4375 3.7168L23.4375 8.94922Q23.4375 9.94531 23.0361 10.4111Q22.6348 10.877 21.7441 10.877Q20.8242 10.877 20.4258 10.4141Q20.0273 9.95117 20.0273 8.96094L20.0273 3.7168L18.2168 3.7168L18.2168 9.23633Q18.2168 10.707 19.1309 11.5537Q20.0449 12.4004 21.6973 12.4004Q22.793 12.4004 23.5957 12.0195Q24.3984 11.6387 24.8232 10.9238Q25.248 10.209 25.248 9.25977ZM29.1621 8.99609L29.1621 12.2832L27.3457 12.2832L27.3457 3.7168L29.8418 3.7168Q31.5879 3.7168 32.4258 4.35254Q33.2637 4.98828 33.2637 6.2832Q33.2637 7.03906 32.8477 7.62793Q32.4316 8.2168 31.6699 8.55078Q33.6035 11.4395 34.1895 12.2832L32.1738 12.2832L30.1289 8.99609L29.1621 8.99609ZM36.7559 12.2832L38.5723 12.2832L38.5723 5.22852L40.8984 5.22852L40.8984 3.7168L34.4297 3.7168L34.4297 5.22852L36.7559 5.22852L36.7559 12.2832ZM10.248 7.98828Q10.248 9.42383 10.793 10.1504Q11.3379 10.877 12.4219 10.877Q14.5957 10.877 14.5957 7.98828Q14.5957 5.09375 12.4336 5.09375Q11.3496 5.09375 10.7988 5.82324Q10.248 6.55274 10.248 7.98828ZM29.1621 7.51953L29.748 7.51953Q30.6094 7.51953 31.0195 7.23242Q31.4297 6.94531 31.4297 6.33008Q31.4297 5.7207 31.0107 5.46289Q30.5918 5.20508 29.7129 5.20508L29.1621 5.20508L29.1621 7.51953Z" />
    </g>
  </g>
</svg>