<?xml version="1.0" encoding="utf-8"?>
<svg width="11px" height="16px" viewBox="0 0 11 16" version="1.1" xmlns:xlink="http://www.w3.org/1999/xlink" xmlns="http://www.w3.org/2000/svg">

  <g id="law">
    <path d="M10.3039 0L0.656716 0C0.294004 0 0 0.297683 0 0.664935L0 13.5181C0 13.8854 0.294004 14.1831 0.656716 14.1831L1.67791 14.1831L1.67791 15.626C1.67791 15.8096 1.82489 15.9584 2.00623 15.9585C2.10223 15.9585 2.19343 15.916 2.25582 15.8421L2.97821 14.991L3.7006 15.8421C3.81848 15.9816 4.02575 15.998 4.16354 15.8787C4.23648 15.8155 4.27851 15.7232 4.27851 15.626L4.27851 14.1831L10.3039 14.1831C10.6666 14.1831 10.9606 13.8854 10.9606 13.5181L10.9606 0.664935C10.9606 0.297683 10.6666 0 10.3039 0ZM3.22776 14.2529C3.10988 14.1133 2.9026 14.097 2.76482 14.2163C2.75185 14.2275 2.73978 14.2397 2.72866 14.2529L2.33463 14.7183L2.33463 13.455C2.74947 13.6132 3.20695 13.6132 3.62179 13.455L3.62179 14.7183L3.22776 14.2529ZM4.17015 11.6862C4.17019 12.3549 3.63862 12.8991 2.97821 12.9064L2.96507 12.9064C2.29953 12.9064 1.76 12.3601 1.76 11.6862C1.76 11.0124 2.29953 10.4661 2.96507 10.4661C3.63062 10.4661 4.17015 11.0124 4.17015 11.6862C4.17015 11.6862 4.17015 11.6862 4.17015 11.6862ZM10.2875 13.5148L4.27851 13.5148L4.27851 13.0327C5.0144 12.3056 5.02881 11.1121 4.31069 10.367C3.59257 9.6219 2.4138 9.60731 1.67791 10.3344C0.942019 11.0615 0.927612 12.255 1.64573 13.0001C1.65632 13.0112 1.66703 13.022 1.67791 13.0327L1.67791 13.5148L0.656716 13.5148L0.656716 0.664935L10.3039 0.664935L10.2875 13.5148Z" transform="translate(0.01970149 0)" id="Shape" fill="#555555" stroke="none" />
    <path d="M6.03522 0L0.328358 0C0.147022 0 0 0.148862 0 0.332468C0 0.516073 0.147022 0.664935 0.328358 0.664935L6.03522 0.664935C6.21656 0.664935 6.36358 0.516073 6.36358 0.332468C6.36358 0.148862 6.2166 0 6.03522 0Z" transform="translate(2.318209 2.629818)" id="Shape" fill="#555555" stroke="none" />
    <path d="M6.03522 0L0.328358 0C0.147022 0 0 0.148862 0 0.332468C0 0.516073 0.147022 0.664935 0.328358 0.664935L6.03522 0.664935C6.21656 0.664935 6.36358 0.516073 6.36358 0.332468C6.36358 0.148862 6.2166 0 6.03522 0Z" transform="translate(2.318209 4.541506)" id="Shape" fill="#555555" stroke="none" />
    <path d="M6.03522 0L0.328358 0C0.147022 0 0 0.148862 0 0.332468C0 0.516073 0.147022 0.664935 0.328358 0.664935L6.03522 0.664935C6.21656 0.664935 6.36358 0.516073 6.36358 0.332468C6.36358 0.148862 6.2166 0 6.03522 0Z" transform="translate(2.318209 6.453195)" id="Shape" fill="#555555" stroke="none" />
    <path d="M6.03522 0L0.328358 0C0.147022 0 0 0.148862 0 0.332468C0 0.516073 0.147022 0.664935 0.328358 0.664935L6.03522 0.664935C6.21656 0.664935 6.36358 0.516073 6.36358 0.332468C6.36358 0.148862 6.2166 0 6.03522 0Z" transform="translate(2.318209 8.364883)" id="Shape" fill="#555555" stroke="none" />
    <path d="M2.93552 0L0.328358 0C0.147022 0 0 0.148862 0 0.332468C0 0.516073 0.147022 0.664935 0.328358 0.664935L2.93552 0.664935C3.11686 0.664935 3.26388 0.516073 3.26388 0.332468C3.26388 0.148862 3.1169 0 2.93552 0Z" transform="translate(5.417911 10.27657)" id="Shape" fill="#555555" stroke="none" />
  </g>
</svg>