<?xml version="1.0" encoding="utf-8"?>
<svg width="11px" height="16px" viewBox="0 0 11 16" version="1.1" xmlns:xlink="http://www.w3.org/1999/xlink" xmlns="http://www.w3.org/2000/svg">
  <desc>Created with Lunacy</desc>
  <g id="placeholder">
    <path d="M5.5 0C2.4673 0 0 2.52338 0 5.625C0 6.67294 0.283831 7.69562 0.820997 8.58288L5.18693 15.7784C5.27056 15.9163 5.4179 16 5.57636 16C5.57758 16 5.57877 16 5.57999 16C5.73983 15.9987 5.88747 15.9124 5.96958 15.7721L10.2242 8.50688C10.7318 7.63837 11 6.64184 11 5.625C11 2.52338 8.5327 0 5.5 0ZM9.43757 8.02556L5.56942 14.6308L1.6001 8.08894C1.15298 7.35044 0.910556 6.49844 0.910556 5.625C0.910556 3.04031 2.97275 0.93125 5.5 0.93125C8.02725 0.93125 10.0864 3.04031 10.0864 5.625C10.0864 6.47253 9.85994 7.30275 9.43757 8.02556Z" id="Shape" fill="#777777" stroke="none" />
    <path d="M2.75 0C1.23365 0 0 1.26169 0 2.8125C0 4.35341 1.21358 5.625 2.75 5.625C4.30537 5.625 5.5 4.33647 5.5 2.8125C5.5 1.26169 4.26635 0 2.75 0ZM2.75 4.69375C1.73381 4.69375 0.910556 3.84897 0.910556 2.8125C0.910556 1.77862 1.7391 0.93125 2.75 0.93125C3.7609 0.93125 4.58639 1.77862 4.58639 2.8125C4.58639 3.83384 3.78229 4.69375 2.75 4.69375Z" transform="translate(2.75 2.8125)" id="Shape" fill="#777777" stroke="none" />
  </g>
</svg>