<?xml version="1.0" encoding="utf-8"?>
<svg width="76px" height="64px" viewBox="0 0 76 64" version="1.1" xmlns:xlink="http://www.w3.org/1999/xlink" xmlns="http://www.w3.org/2000/svg">
  <desc>Created with Lunacy</desc>
  <g id="month-calendar">
    <path d="M74.2805 5.88073L66.7765 5.88073L66.7765 5.05496C66.7765 2.26768 64.5223 0 61.7515 0C58.9808 0 56.7266 2.26768 56.7266 5.05496L56.7266 5.88073L50.9422 5.88073L50.9422 5.05496C50.9422 2.26768 48.688 0 45.9172 0C43.1465 0 40.8923 2.26768 40.8923 5.05496L40.8923 5.88073L35.1077 5.88073L35.1077 5.05496C35.1077 2.26768 32.8535 0 30.0828 0C27.312 0 25.0578 2.26768 25.0578 5.05496L25.0578 5.88073L19.2732 5.88073L19.2732 5.05496C19.2732 2.26768 17.019 0 14.2483 0C11.4775 0 9.22334 2.26768 9.22334 5.05496L9.22334 5.88073L1.71946 5.88073C0.769801 5.88073 0 6.65514 0 7.61046L0 62.1184C0 63.0737 0.769801 63.8481 1.71946 63.8481L74.2805 63.8481C75.2302 63.8481 76 63.0737 76 62.1184L76 7.61046C76 6.65514 75.2302 5.88073 74.2805 5.88073ZM61.7515 3.45929C62.6261 3.45929 63.3376 4.17505 63.3376 5.05479L63.3376 10.1658C63.3376 11.0455 62.6261 11.7613 61.7515 11.7613C60.877 11.7613 60.1655 11.0455 60.1655 10.1658L60.1655 7.61202C60.1655 7.6115 60.1655 7.61098 60.1655 7.61029C60.1655 7.6096 60.1655 7.60925 60.1655 7.60856L60.1655 5.05479C60.1655 4.17505 60.877 3.45929 61.7515 3.45929ZM45.9172 3.45929C46.7918 3.45929 47.5033 4.17505 47.5033 5.05479L47.5033 10.1658C47.5033 11.0455 46.7918 11.7613 45.9172 11.7613C45.0427 11.7613 44.3312 11.0455 44.3312 10.1658L44.3312 7.61202C44.3312 7.6115 44.3312 7.61098 44.3312 7.61029C44.3312 7.6096 44.3312 7.60925 44.3312 7.60856L44.3312 5.05479C44.3312 4.17505 45.0425 3.45929 45.9172 3.45929ZM28.4967 5.05479C28.4967 4.17505 29.2082 3.45929 30.0828 3.45929C30.9573 3.45929 31.6688 4.17505 31.6688 5.05479L31.6688 7.60874C31.6688 7.60925 31.6688 7.60977 31.6688 7.61047C31.6688 7.61116 31.6688 7.6115 31.6688 7.6122L31.6688 10.166C31.6688 11.0457 30.9573 11.7615 30.0828 11.7615C29.2082 11.7615 28.4967 11.0457 28.4967 10.166L28.4967 5.05479ZM14.2485 3.45929C15.123 3.45929 15.8345 4.17505 15.8345 5.05479L15.8345 10.1658C15.8345 11.0455 15.123 11.7613 14.2485 11.7613C13.3739 11.7613 12.6624 11.0455 12.6624 10.1658L12.6624 7.61202C12.6624 7.6115 12.6624 7.61098 12.6624 7.61029C12.6624 7.6096 12.6624 7.60925 12.6624 7.60856L12.6624 5.05479C12.6624 4.17505 13.3738 3.45929 14.2485 3.45929ZM9.22351 9.34019L9.22351 10.166C9.22351 12.9533 11.4777 15.2209 14.2485 15.2209C17.0192 15.2209 19.2734 12.9533 19.2734 10.166L19.2734 9.34019L25.058 9.34019L25.058 10.166C25.058 12.9533 27.3122 15.2209 30.0829 15.2209C32.8537 15.2209 35.1079 12.9533 35.1079 10.166L35.1079 9.34019L40.8925 9.34019L40.8925 10.166C40.8925 12.9533 43.1467 15.2209 45.9174 15.2209C48.6881 15.2209 50.9424 12.9533 50.9424 10.166L50.9424 9.34019L56.7268 9.34019L56.7268 10.166C56.7268 12.9533 58.981 15.2209 61.7517 15.2209C64.5225 15.2209 66.7767 12.9533 66.7767 10.166L66.7767 9.34019L72.5611 9.34019L72.5611 17.5976L3.43891 17.5976L3.43891 9.34019L9.22351 9.34019ZM3.43891 60.3885L3.43891 21.0569L72.5611 21.0569L72.5611 60.3885L3.43891 60.3885L3.43891 60.3885Z" transform="translate(0 0.07610811)" id="Shape" fill="#0097B3" stroke="none" />
    <path d="M7.30958 0L1.71946 0C0.769801 0 0 0.7744 0 1.72973C0 2.68506 0.769801 3.45946 1.71946 3.45946L7.30958 3.45946C8.25924 3.45946 9.02904 2.68506 9.02904 1.72973C9.02904 0.7744 8.25924 0 7.30958 0Z" transform="translate(9.280598 29.21963)" id="Shape" fill="#0097B3" stroke="none" />
    <path d="M7.30958 0L1.71946 0C0.769801 0 0 0.7744 0 1.72973C0 2.68506 0.769801 3.45946 1.71946 3.45946L7.30958 3.45946C8.25924 3.45946 9.02904 2.68506 9.02904 1.72973C9.02904 0.7744 8.25924 0 7.30958 0Z" transform="translate(25.41375 29.21963)" id="Shape" fill="#0097B3" stroke="none" />
    <path d="M7.30958 0L1.71946 0C0.769801 0 0 0.7744 0 1.72973C0 2.68506 0.769801 3.45946 1.71946 3.45946L7.30958 3.45946C8.25924 3.45946 9.02904 2.68506 9.02904 1.72973C9.02904 0.7744 8.25924 0 7.30958 0Z" transform="translate(41.54707 29.21963)" id="Shape" fill="#0097B3" stroke="none" />
    <path d="M7.30958 0L1.71946 0C0.769801 0 0 0.7744 0 1.72973C0 2.68506 0.769801 3.45946 1.71946 3.45946L7.30958 3.45946C8.25924 3.45946 9.02904 2.68506 9.02904 1.72973C9.02904 0.7744 8.25924 0 7.30958 0Z" transform="translate(57.68022 29.21963)" id="Shape" fill="#0097B3" stroke="none" />
    <path d="M7.30958 0L1.71946 0C0.769801 0 0 0.7744 0 1.72973C0 2.68506 0.769801 3.45946 1.71946 3.45946L7.30958 3.45946C8.25924 3.45946 9.02904 2.68506 9.02904 1.72973C9.02904 0.7744 8.25924 0 7.30958 0Z" transform="translate(9.280598 38.98378)" id="Shape" fill="#0097B3" stroke="none" />
    <path d="M7.30958 0L1.71946 0C0.769801 0 0 0.7744 0 1.72973C0 2.68506 0.769801 3.45946 1.71946 3.45946L7.30958 3.45946C8.25924 3.45946 9.02904 2.68506 9.02904 1.72973C9.02904 0.7744 8.25924 0 7.30958 0Z" transform="translate(25.41375 38.98378)" id="Shape" fill="#0097B3" stroke="none" />
    <path d="M7.30958 0L1.71946 0C0.769801 0 0 0.7744 0 1.72973C0 2.68506 0.769801 3.45946 1.71946 3.45946L7.30958 3.45946C8.25924 3.45946 9.02904 2.68506 9.02904 1.72973C9.02904 0.7744 8.25924 0 7.30958 0Z" transform="translate(41.54707 38.98378)" id="Shape" fill="#0097B3" stroke="none" />
    <path d="M7.30958 0L1.71946 0C0.769801 0 0 0.7744 0 1.72973C0 2.68506 0.769801 3.45946 1.71946 3.45946L7.30958 3.45946C8.25924 3.45946 9.02904 2.68506 9.02904 1.72973C9.02904 0.7744 8.25924 0 7.30958 0Z" transform="translate(57.68022 38.98378)" id="Shape" fill="#0097B3" stroke="none" />
    <path d="M7.30958 0L1.71946 0C0.769801 0 0 0.7744 0 1.72973C0 2.68506 0.769801 3.45946 1.71946 3.45946L7.30958 3.45946C8.25924 3.45946 9.02904 2.68506 9.02904 1.72973C9.02904 0.7744 8.25924 0 7.30958 0Z" transform="translate(9.280598 48.74776)" id="Shape" fill="#0097B3" stroke="none" />
    <path d="M7.30958 0L1.71946 0C0.769801 0 0 0.7744 0 1.72973C0 2.68506 0.769801 3.45946 1.71946 3.45946L7.30958 3.45946C8.25924 3.45946 9.02904 2.68506 9.02904 1.72973C9.02904 0.7744 8.25924 0 7.30958 0Z" transform="translate(25.41375 48.74776)" id="Shape" fill="#0097B3" stroke="none" />
    <path d="M7.30958 0L1.71946 0C0.769801 0 0 0.7744 0 1.72973C0 2.68506 0.769801 3.45946 1.71946 3.45946L7.30958 3.45946C8.25924 3.45946 9.02904 2.68506 9.02904 1.72973C9.02904 0.7744 8.25924 0 7.30958 0Z" transform="translate(41.54707 48.74776)" id="Shape" fill="#0097B3" stroke="none" />
    <path d="M7.30958 0L1.71946 0C0.769801 0 0 0.7744 0 1.72973C0 2.68506 0.769801 3.45946 1.71946 3.45946L7.30958 3.45946C8.25924 3.45946 9.02904 2.68506 9.02904 1.72973C9.02904 0.7744 8.25924 0 7.30958 0Z" transform="translate(57.68022 48.74776)" id="Shape" fill="#0097B3" stroke="none" />
  </g>
</svg>