<?xml version="1.0" encoding="utf-8"?>
<svg width="76px" height="64px" viewBox="0 0 76 64" version="1.1" xmlns:xlink="http://www.w3.org/1999/xlink" xmlns="http://www.w3.org/2000/svg">
  <desc>Created with Lunacy</desc>
  <g id="month-calendar">
    <path d="M74.2805 5.88073L66.7765 5.88073L66.7765 5.05496C66.7765 2.26768 64.5223 0 61.7515 0C58.9808 0 56.7266 2.26768 56.7266 5.05496L56.7266 5.88073L50.9422 5.88073L50.9422 5.05496C50.9422 2.26768 48.688 0 45.9172 0C43.1465 0 40.8923 2.26768 40.8923 5.05496L40.8923 5.88073L35.1077 5.88073L35.1077 5.05496C35.1077 2.26768 32.8535 0 30.0828 0C27.312 0 25.0578 2.26768 25.0578 5.05496L25.0578 5.88073L19.2732 5.88073L19.2732 5.05496C19.2732 2.26768 17.019 0 14.2483 0C11.4775 0 9.22334 2.26768 9.22334 5.05496L9.22334 5.88073L1.71946 5.88073C0.769801 5.88073 0 6.65514 0 7.61046L0 62.1184C0 63.0737 0.769801 63.8481 1.71946 63.8481L74.2805 63.8481C75.2302 63.8481 76 63.0737 76 62.1184L76 7.61046C76 6.65514 75.2302 5.88073 74.2805 5.88073ZM61.7515 3.45929C62.6261 3.45929 63.3376 4.17505 63.3376 5.05479L63.3376 10.1658C63.3376 11.0455 62.6261 11.7613 61.7515 11.7613C60.877 11.7613 60.1655 11.0455 60.1655 10.1658L60.1655 7.61202C60.1655 7.6115 60.1655 7.61098 60.1655 7.61029C60.1655 7.6096 60.1655 7.60925 60.1655 7.60856L60.1655 5.05479C60.1655 4.17505 60.877 3.45929 61.7515 3.45929ZM45.9172 3.45929C46.7918 3.45929 47.5033 4.17505 47.5033 5.05479L47.5033 10.1658C47.5033 11.0455 46.7918 11.7613 45.9172 11.7613C45.0427 11.7613 44.3312 11.0455 44.3312 10.1658L44.3312 7.61202C44.3312 7.6115 44.3312 7.61098 44.3312 7.61029C44.3312 7.6096 44.3312 7.60925 44.3312 7.60856L44.3312 5.05479C44.3312 4.17505 45.0425 3.45929 45.9172 3.45929ZM28.4967 5.05479C28.4967 4.17505 29.2082 3.45929 30.0828 3.45929C30.9573 3.45929 31.6688 4.17505 31.6688 5.05479L31.6688 7.60874C31.6688 7.60925 31.6688 7.60977 31.6688 7.61047C31.6688 7.61116 31.6688 7.6115 31.6688 7.6122L31.6688 10.166C31.6688 11.0457 30.9573 11.7615 30.0828 11.7615C29.2082 11.7615 28.4967 11.0457 28.4967 10.166L28.4967 5.05479ZM14.2485 3.45929C15.123 3.45929 15.8345 4.17505 15.8345 5.05479L15.8345 10.1658C15.8345 11.0455 15.123 11.7613 14.2485 11.7613C13.3739 11.7613 12.6624 11.0455 12.6624 10.1658L12.6624 7.61202C12.6624 7.6115 12.6624 7.61098 12.6624 7.61029C12.6624 7.6096 12.6624 7.60925 12.6624 7.60856L12.6624 5.05479C12.6624 4.17505 13.3738 3.45929 14.2485 3.45929ZM9.22351 9.34019L9.22351 10.166C9.22351 12.9533 11.4777 15.2209 14.2485 15.2209C17.0192 15.2209 19.2734 12.9533 19.2734 10.166L19.2734 9.34019L25.058 9.34019L25.058 10.166C25.058 12.9533 27.3122 15.2209 30.0829 15.2209C32.8537 15.2209 35.1079 12.9533 35.1079 10.166L35.1079 9.34019L40.8925 9.34019L40.8925 10.166C40.8925 12.9533 43.1467 15.2209 45.9174 15.2209C48.6881 15.2209 50.9424 12.9533 50.9424 10.166L50.9424 9.34019L56.7268 9.34019L56.7268 10.166C56.7268 12.9533 58.981 15.2209 61.7517 15.2209C64.5225 15.2209 66.7767 12.9533 66.7767 10.166L66.7767 9.34019L72.5611 9.34019L72.5611 17.5976L3.43891 17.5976L3.43891 9.34019L9.22351 9.34019ZM3.43891 60.3885L3.43891 21.0569L72.5611 21.0569L72.5611 60.3885L3.43891 60.3885L3.43891 60.3885Z" transform="translate(0 0.07610811)" id="Shape" fill="#0097B3" stroke="none" />
    <g id="forbidden" transform="translate(24 26)">
      <path d="M3.46352 0.170874C3.34677 0.0541162 3.18954 -0.00631346 3.02034 0.000522476C2.85512 0.00965529 2.70189 0.0876944 2.59766 0.216429C0.922305 2.28602 0 4.88991 0 7.54909C0 13.9823 5.23348 19.2157 11.6666 19.2157C14.3258 19.2157 16.9298 18.2934 18.9993 16.6181C19.128 16.5139 19.2061 16.3606 19.2152 16.1954C19.2237 16.0302 19.1617 15.869 19.0449 15.7522L3.46352 0.170874ZM11.6666 18.0491C5.87716 18.0491 1.16665 13.3386 1.16665 7.54915C1.16665 5.33944 1.83657 3.25049 3.11035 1.46801L17.7478 16.1054C15.9653 17.3792 13.8764 18.0491 11.6666 18.0491Z" transform="translate(2.333352 6.450852)" id="Shape" fill="#0097B3" stroke="none" />
      <path d="M14 0C6.28053 0 0 6.28053 0 14C0 21.7195 6.28053 28 14 28C21.7195 28 28 21.7195 28 14C28 6.28053 21.7195 0 14 0ZM14 26.8334C6.92366 26.8334 1.16665 21.0763 1.16665 14C1.16665 6.92366 6.92366 1.16665 14 1.16665C21.0763 1.16665 26.8334 6.92366 26.8334 14C26.8334 21.0763 21.0763 26.8334 14 26.8334Z" id="Shape" fill="#0097B3" stroke="none" />
      <path d="M7.54935 0C4.89017 0 2.28622 0.922305 0.216683 2.59766C0.0879486 2.70189 0.00990951 2.85512 0.000776699 3.02034C-0.00775455 3.18555 0.0543158 3.34677 0.171128 3.46352L15.7525 19.0449C15.8618 19.1548 16.0105 19.2158 16.1649 19.2158C16.1752 19.2158 16.1854 19.2158 16.1957 19.2153C16.3609 19.2061 16.5142 19.1281 16.6184 18.9994C18.2937 16.9298 19.216 14.3259 19.216 11.6667C19.216 5.23348 13.9825 0 7.54935 0ZM16.1056 17.7478L1.46821 3.11035C3.25069 1.83657 5.33964 1.16665 7.54935 1.16665C13.3388 1.16665 18.0493 5.87716 18.0493 11.6666C18.0493 13.8764 17.3794 15.9653 16.1056 17.7478Z" transform="translate(6.450653 2.333352)" id="Shape" fill="#0097B3" stroke="none" />
    </g>
  </g>
</svg>