<?xml version="1.0" encoding="utf-8"?>
<svg width="200px" height="19px" viewBox="0 0 200 19" version="1.1" xmlns:xlink="http://www.w3.org/1999/xlink" xmlns="http://www.w3.org/2000/svg">
  <desc>Created with Lunacy</desc>
  <g id="Group-7">
    <g id="Group">
      <g id="Group-3">
        <path d="M5 0L8.21622 0L8.21622 3.21622Q8.21622 3.34429 8.21039 3.4715Q8.20456 3.59871 8.19291 3.7248Q8.18127 3.85089 8.16383 3.9756Q8.14639 4.10032 8.12319 4.2234Q8.1 4.34649 8.07109 4.46769Q8.04219 4.5889 8.00763 4.70797Q7.97307 4.82704 7.93293 4.94375Q7.89279 5.06045 7.84716 5.17454Q7.80152 5.28864 7.75048 5.39989Q7.69943 5.51114 7.64309 5.61932Q7.58674 5.7275 7.52521 5.83239Q7.46368 5.93728 7.39709 6.03867Q7.3305 6.14006 7.25898 6.23773Q7.18746 6.33541 7.11116 6.42917Q7.03487 6.52294 6.95395 6.6126Q6.87302 6.70227 6.78764 6.78764Q6.70227 6.87302 6.6126 6.95395Q6.52294 7.03487 6.42917 7.11116Q6.33541 7.18746 6.23773 7.25898Q6.14006 7.3305 6.03867 7.39709Q5.93728 7.46368 5.83239 7.52521Q5.7275 7.58674 5.61932 7.64309Q5.51114 7.69943 5.39989 7.75047Q5.28864 7.80152 5.17454 7.84716Q5.06045 7.89279 4.94375 7.93293Q4.82704 7.97307 4.70797 8.00763Q4.5889 8.04218 4.46769 8.07109Q4.34649 8.1 4.2234 8.12319Q4.10032 8.14639 3.9756 8.16383Q3.85089 8.18127 3.7248 8.19291Q3.59871 8.20456 3.4715 8.21039Q3.34429 8.21622 3.21622 8.21622L0 8.21622L0 5Q0 4.87193 0.00582875 4.74472Q0.0116575 4.61751 0.0233031 4.49142Q0.0349487 4.36533 0.0523874 4.24061Q0.0698261 4.1159 0.0930224 3.99281Q0.116219 3.86973 0.145125 3.74853Q0.174032 3.62732 0.208589 3.50825Q0.243147 3.38917 0.283285 3.27247Q0.323424 3.15577 0.369061 3.04167Q0.414698 2.92758 0.465741 2.81633Q0.516784 2.70508 0.573129 2.5969Q0.629473 2.48872 0.691005 2.38383Q0.752536 2.27894 0.819128 2.17755Q0.885721 2.07616 0.957238 1.97849Q1.02876 1.88081 1.10505 1.78704Q1.18135 1.69328 1.26227 1.60362Q1.34319 1.51395 1.42857 1.42857Q1.51395 1.34319 1.60362 1.26227Q1.69328 1.18135 1.78704 1.10505Q1.88081 1.02876 1.97849 0.957239Q2.07616 0.885721 2.17755 0.819128Q2.27894 0.752536 2.38383 0.691005Q2.48872 0.629473 2.5969 0.573129Q2.70508 0.516784 2.81633 0.465741Q2.92758 0.414698 3.04167 0.369061Q3.15577 0.323424 3.27247 0.283285Q3.38917 0.243147 3.50825 0.208589Q3.62732 0.174031 3.74853 0.145125Q3.86973 0.116219 3.99281 0.0930224Q4.1159 0.0698261 4.24061 0.0523874Q4.36533 0.0349487 4.49142 0.0233031Q4.61751 0.0116575 4.74472 0.00582875Q4.87193 0 5 0Z" id="Rectangle-16" fill="#EF5350" stroke="none" />
        <path d="M0 0L3.21622 0Q3.34429 0 3.4715 0.00582875Q3.59871 0.0116575 3.7248 0.0233031Q3.85089 0.0349487 3.9756 0.0523874Q4.10032 0.0698261 4.2234 0.0930224Q4.34649 0.116219 4.46769 0.145125Q4.5889 0.174032 4.70797 0.208589Q4.82704 0.243147 4.94375 0.283285Q5.06045 0.323424 5.17454 0.369061Q5.28864 0.414698 5.39989 0.465741Q5.51114 0.516784 5.61932 0.573129Q5.7275 0.629473 5.83239 0.691005Q5.93728 0.752536 6.03867 0.819128Q6.14006 0.885721 6.23773 0.957238Q6.33541 1.02876 6.42917 1.10505Q6.52294 1.18135 6.6126 1.26227Q6.70227 1.34319 6.78764 1.42857Q6.87302 1.51395 6.95395 1.60362Q7.03487 1.69328 7.11116 1.78704Q7.18746 1.88081 7.25898 1.97849Q7.3305 2.07616 7.39709 2.17755Q7.46368 2.27894 7.52521 2.38383Q7.58674 2.48872 7.64309 2.5969Q7.69943 2.70508 7.75047 2.81633Q7.80152 2.92758 7.84716 3.04167Q7.89279 3.15577 7.93293 3.27247Q7.97307 3.38917 8.00763 3.50825Q8.04218 3.62732 8.07109 3.74853Q8.1 3.86973 8.12319 3.99281Q8.14639 4.1159 8.16383 4.24061Q8.18127 4.36533 8.19291 4.49142Q8.20456 4.61751 8.21039 4.74472Q8.21622 4.87193 8.21622 5L8.21622 8.21622L5 8.21622Q4.87193 8.21622 4.74472 8.21039Q4.61751 8.20456 4.49142 8.19291Q4.36533 8.18127 4.24061 8.16383Q4.1159 8.14639 3.99281 8.12319Q3.86973 8.1 3.74853 8.07109Q3.62732 8.04218 3.50825 8.00763Q3.38917 7.97307 3.27247 7.93293Q3.15577 7.89279 3.04167 7.84716Q2.92758 7.80152 2.81633 7.75048Q2.70508 7.69943 2.5969 7.64309Q2.48872 7.58674 2.38383 7.52521Q2.27894 7.46368 2.17755 7.39709Q2.07616 7.3305 1.97849 7.25898Q1.88081 7.18746 1.78704 7.11116Q1.69328 7.03487 1.60362 6.95395Q1.51395 6.87302 1.42857 6.78764Q1.34319 6.70227 1.26227 6.6126Q1.18135 6.52294 1.10505 6.42917Q1.02876 6.33541 0.957239 6.23773Q0.885721 6.14006 0.819128 6.03867Q0.752536 5.93728 0.691005 5.83239Q0.629473 5.7275 0.573129 5.61932Q0.516784 5.51114 0.465741 5.39989Q0.414698 5.28864 0.369061 5.17454Q0.323424 5.06045 0.283285 4.94375Q0.243147 4.82704 0.208589 4.70797Q0.174031 4.5889 0.145125 4.46769Q0.116219 4.34649 0.0930224 4.2234Q0.0698261 4.10032 0.0523874 3.9756Q0.0349487 3.85089 0.0233031 3.7248Q0.0116575 3.59871 0.00582875 3.4715Q0 3.34429 0 3.21622L0 0Z" transform="translate(0 10.78378)" id="Rectangle-16-Copy-3" fill="#EF9A9A" stroke="none" />
        <path d="M0 0L3.21622 0Q3.34429 0 3.4715 0.00582875Q3.59871 0.0116575 3.7248 0.0233031Q3.85089 0.0349487 3.9756 0.0523874Q4.10032 0.0698261 4.2234 0.0930224Q4.34649 0.116219 4.46769 0.145125Q4.5889 0.174032 4.70797 0.208589Q4.82704 0.243147 4.94375 0.283285Q5.06045 0.323424 5.17454 0.369061Q5.28864 0.414698 5.39989 0.465741Q5.51114 0.516784 5.61932 0.573129Q5.7275 0.629473 5.83239 0.691005Q5.93728 0.752536 6.03867 0.819128Q6.14006 0.885721 6.23773 0.957238Q6.33541 1.02876 6.42917 1.10505Q6.52294 1.18135 6.6126 1.26227Q6.70227 1.34319 6.78764 1.42857Q6.87302 1.51395 6.95395 1.60362Q7.03487 1.69328 7.11116 1.78704Q7.18746 1.88081 7.25898 1.97849Q7.3305 2.07616 7.39709 2.17755Q7.46368 2.27894 7.52521 2.38383Q7.58674 2.48872 7.64309 2.5969Q7.69943 2.70508 7.75047 2.81633Q7.80152 2.92758 7.84716 3.04167Q7.89279 3.15577 7.93293 3.27247Q7.97307 3.38917 8.00763 3.50825Q8.04218 3.62732 8.07109 3.74853Q8.1 3.86973 8.12319 3.99281Q8.14639 4.1159 8.16383 4.24061Q8.18127 4.36533 8.19291 4.49142Q8.20456 4.61751 8.21039 4.74472Q8.21622 4.87193 8.21622 5L8.21622 8.21622L5 8.21622Q4.87193 8.21622 4.74472 8.21039Q4.61751 8.20456 4.49142 8.19291Q4.36533 8.18127 4.24061 8.16383Q4.1159 8.14639 3.99281 8.12319Q3.86973 8.1 3.74853 8.07109Q3.62732 8.04218 3.50825 8.00763Q3.38917 7.97307 3.27247 7.93293Q3.15577 7.89279 3.04167 7.84716Q2.92758 7.80152 2.81633 7.75048Q2.70508 7.69943 2.5969 7.64309Q2.48872 7.58674 2.38383 7.52521Q2.27894 7.46368 2.17755 7.39709Q2.07616 7.3305 1.97849 7.25898Q1.88081 7.18746 1.78704 7.11116Q1.69328 7.03487 1.60362 6.95395Q1.51395 6.87302 1.42857 6.78764Q1.34319 6.70227 1.26227 6.6126Q1.18135 6.52294 1.10505 6.42917Q1.02876 6.33541 0.957239 6.23773Q0.885721 6.14006 0.819128 6.03867Q0.752536 5.93728 0.691005 5.83239Q0.629473 5.7275 0.573129 5.61932Q0.516784 5.51114 0.465741 5.39989Q0.414698 5.28864 0.369061 5.17454Q0.323424 5.06045 0.283285 4.94375Q0.243147 4.82704 0.208589 4.70797Q0.174031 4.5889 0.145125 4.46769Q0.116219 4.34649 0.0930224 4.2234Q0.0698261 4.10032 0.0523874 3.9756Q0.0349487 3.85089 0.0233031 3.7248Q0.0116575 3.59871 0.00582875 3.4715Q0 3.34429 0 3.21622L0 0Z" transform="translate(10.78378 0)" id="Rectangle-16-Copy" fill="#00B396" stroke="none" />
        <path d="M5 0L8.21622 0L8.21622 3.21622Q8.21622 3.34429 8.21039 3.4715Q8.20456 3.59871 8.19291 3.7248Q8.18127 3.85089 8.16383 3.9756Q8.14639 4.10032 8.12319 4.2234Q8.1 4.34649 8.07109 4.46769Q8.04219 4.5889 8.00763 4.70797Q7.97307 4.82704 7.93293 4.94375Q7.89279 5.06045 7.84716 5.17454Q7.80152 5.28864 7.75048 5.39989Q7.69943 5.51114 7.64309 5.61932Q7.58674 5.7275 7.52521 5.83239Q7.46368 5.93728 7.39709 6.03867Q7.3305 6.14006 7.25898 6.23773Q7.18746 6.33541 7.11116 6.42917Q7.03487 6.52294 6.95395 6.6126Q6.87302 6.70227 6.78764 6.78764Q6.70227 6.87302 6.6126 6.95395Q6.52294 7.03487 6.42917 7.11116Q6.33541 7.18746 6.23773 7.25898Q6.14006 7.3305 6.03867 7.39709Q5.93728 7.46368 5.83239 7.52521Q5.7275 7.58674 5.61932 7.64309Q5.51114 7.69943 5.39989 7.75047Q5.28864 7.80152 5.17454 7.84716Q5.06045 7.89279 4.94375 7.93293Q4.82704 7.97307 4.70797 8.00763Q4.5889 8.04218 4.46769 8.07109Q4.34649 8.1 4.2234 8.12319Q4.10032 8.14639 3.9756 8.16383Q3.85089 8.18127 3.7248 8.19291Q3.59871 8.20456 3.4715 8.21039Q3.34429 8.21622 3.21622 8.21622L0 8.21622L0 5Q0 4.87193 0.00582875 4.74472Q0.0116575 4.61751 0.0233031 4.49142Q0.0349487 4.36533 0.0523874 4.24061Q0.0698261 4.1159 0.0930224 3.99281Q0.116219 3.86973 0.145125 3.74853Q0.174032 3.62732 0.208589 3.50825Q0.243147 3.38917 0.283285 3.27247Q0.323424 3.15577 0.369061 3.04167Q0.414698 2.92758 0.465741 2.81633Q0.516784 2.70508 0.573129 2.5969Q0.629473 2.48872 0.691005 2.38383Q0.752536 2.27894 0.819128 2.17755Q0.885721 2.07616 0.957238 1.97849Q1.02876 1.88081 1.10505 1.78704Q1.18135 1.69328 1.26227 1.60362Q1.34319 1.51395 1.42857 1.42857Q1.51395 1.34319 1.60362 1.26227Q1.69328 1.18135 1.78704 1.10505Q1.88081 1.02876 1.97849 0.957239Q2.07616 0.885721 2.17755 0.819128Q2.27894 0.752536 2.38383 0.691005Q2.48872 0.629473 2.5969 0.573129Q2.70508 0.516784 2.81633 0.465741Q2.92758 0.414698 3.04167 0.369061Q3.15577 0.323424 3.27247 0.283285Q3.38917 0.243147 3.50825 0.208589Q3.62732 0.174031 3.74853 0.145125Q3.86973 0.116219 3.99281 0.0930224Q4.1159 0.0698261 4.24061 0.0523874Q4.36533 0.0349487 4.49142 0.0233031Q4.61751 0.0116575 4.74472 0.00582875Q4.87193 0 5 0Z" transform="translate(10.78378 10.78378)" id="Rectangle-16-Copy-4" fill="#03DAC4" stroke="none" />
      </g>
    </g>
    <g id="NGO-Healthcare-Platform" fill="#0074B5" transform="translate(27 1)">
      <path d="M144.655 7.65332L142.81 7.65332L142.81 13.9971L141.196 13.9971L141.196 7.65332L139.952 7.65332L139.952 6.90137L141.196 6.40918L141.196 5.91699Q141.196 4.57715 141.825 3.93115Q142.454 3.28516 143.746 3.28516Q144.594 3.28516 145.414 3.56543L144.99 4.78223Q144.396 4.59082 143.855 4.59082Q143.309 4.59082 143.059 4.9292Q142.81 5.26758 142.81 5.94434L142.81 6.43652L144.655 6.43652L144.655 7.65332ZM63.6357 13.9971L65.2422 13.9971L65.2422 3.36035L63.6357 3.36035L63.6357 13.9971ZM78.0801 13.9971L79.6934 13.9971L79.6934 9.06836Q79.6934 6.2998 76.9453 6.2998Q76.166 6.29981 75.5815 6.60059Q74.9971 6.90137 74.6689 7.44824L74.5664 7.44824Q74.6484 6.70996 74.6484 6.06055L74.6484 3.36035L73.042 3.36035L73.042 13.9971L74.6484 13.9971L74.6484 10.2441Q74.6484 8.82227 75.1235 8.21729Q75.5986 7.6123 76.6104 7.6123Q77.376 7.6123 77.728 8.04297Q78.0801 8.47363 78.0801 9.34863L78.0801 13.9971ZM123.334 13.9971L124.94 13.9971L124.94 3.36035L123.334 3.36035L123.334 13.9971ZM30.1021 12.7803Q31.3223 11.4268 31.3223 8.98633Q31.3223 6.53906 30.1055 5.19238Q28.8887 3.8457 26.6602 3.8457Q24.3975 3.8457 23.1772 5.17188Q21.957 6.49805 21.957 8.97266Q21.957 11.4473 23.1704 12.7905Q24.3838 14.1338 26.6465 14.1338Q28.8818 14.1338 30.1021 12.7803ZM16.3721 8.57617L20.0498 8.57617L20.0498 13.5938Q19.1475 13.8877 18.3169 14.0107Q17.4863 14.1338 16.5225 14.1338Q14.2529 14.1338 13.0225 12.7905Q11.792 11.4473 11.792 9Q11.792 6.58691 13.1797 5.22314Q14.5674 3.85938 17.001 3.85938Q18.5664 3.85938 19.9678 4.46094L19.3936 5.82129Q18.1768 5.26074 16.96 5.26074Q15.3604 5.26074 14.4307 6.26563Q13.501 7.27051 13.501 9.01367Q13.501 10.8457 14.3384 11.7993Q15.1758 12.7529 16.748 12.7529Q17.541 12.7529 18.4434 12.5547L18.4434 9.97754L16.3721 9.97754L16.3721 8.57617ZM9.64551 13.9971L7.64258 13.9971L2.72754 6.0332L2.67285 6.0332L2.70703 6.47754Q2.80273 7.74902 2.80273 8.80176L2.80273 13.9971L1.31934 13.9971L1.31934 4.00293L3.30176 4.00293L8.20313 11.9258L8.24414 11.9258Q8.23047 11.7686 8.18945 10.7808Q8.14844 9.79297 8.14844 9.23926L8.14844 4.00293L9.64551 4.00293L9.64551 13.9971ZM44.9873 13.9971L43.3467 13.9971L43.3467 9.49219L38.7393 9.49219L38.7393 13.9971L37.1055 13.9971L37.1055 4.00293L38.7393 4.00293L38.7393 8.09082L43.3467 8.09082L43.3467 4.00293L44.9873 4.00293L44.9873 13.9971ZM121.509 7.02441Q121.509 8.58984 120.483 9.42383Q119.458 10.2578 117.564 10.2578L116.525 10.2578L116.525 13.9971L114.892 13.9971L114.892 4.00293L117.77 4.00293Q119.643 4.00293 120.576 4.76855Q121.509 5.53418 121.509 7.02441ZM70.3555 12.835Q70.9434 12.835 71.5313 12.6504L71.5313 13.8604Q71.2646 13.9766 70.8442 14.0552Q70.4238 14.1338 69.9727 14.1338Q67.6895 14.1338 67.6895 11.7275L67.6895 7.65332L66.6572 7.65332L66.6572 6.94238L67.7646 6.35449L68.3115 4.75488L69.3027 4.75488L69.3027 6.43652L71.4561 6.43652L71.4561 7.65332L69.3027 7.65332L69.3027 11.7002Q69.3027 12.2813 69.5933 12.5581Q69.8838 12.835 70.3555 12.835ZM139.351 12.6504Q138.763 12.835 138.175 12.835Q137.703 12.835 137.413 12.5581Q137.122 12.2813 137.122 11.7002L137.122 7.65332L139.275 7.65332L139.275 6.43652L137.122 6.43652L137.122 4.75488L136.131 4.75488L135.584 6.35449L134.477 6.94238L134.477 7.65332L135.509 7.65332L135.509 11.7275Q135.509 14.1338 137.792 14.1338Q138.243 14.1338 138.664 14.0552Q139.084 13.9766 139.351 13.8604L139.351 12.6504ZM24.4385 11.7856Q23.6934 10.832 23.6934 8.98633Q23.6934 7.14746 24.4419 6.19727Q25.1904 5.24707 26.6602 5.24707Q28.1162 5.24707 28.8511 6.19727Q29.5859 7.14746 29.5859 8.98633Q29.5859 10.8525 28.8442 11.7959Q28.1025 12.7393 26.6465 12.7393Q25.1836 12.7393 24.4385 11.7856ZM116.525 8.88379L117.394 8.88379Q118.651 8.88379 119.239 8.44629Q119.827 8.00879 119.827 7.0791Q119.827 6.21777 119.301 5.79395Q118.774 5.37012 117.66 5.37012L116.525 5.37012L116.525 8.88379ZM47.9917 13.105Q48.9863 14.1338 50.75 14.1338Q51.5225 14.1338 52.124 14.0176Q52.7256 13.9014 53.3135 13.6211L53.3135 12.3154Q52.6504 12.6094 52.0728 12.7358Q51.4951 12.8623 50.8252 12.8623Q49.8066 12.8623 49.2461 12.271Q48.6855 11.6797 48.6514 10.5791L53.6895 10.5791L53.6895 9.71094Q53.6895 8.11816 52.8213 7.20898Q51.9531 6.2998 50.4561 6.2998Q48.8428 6.29981 47.9199 7.35938Q46.9971 8.41895 46.9971 10.2715Q46.9971 12.0762 47.9917 13.105ZM60.2451 13.9971L59.9238 12.9443L59.8691 12.9443Q59.3223 13.6348 58.7686 13.8843Q58.2148 14.1338 57.3467 14.1338Q56.2324 14.1338 55.6069 13.5322Q54.9814 12.9307 54.9814 11.8301Q54.9814 10.6611 55.8496 10.0664Q56.7178 9.47168 58.4951 9.41699L59.8008 9.37598L59.8008 8.97266Q59.8008 8.24805 59.4624 7.88916Q59.124 7.53027 58.4131 7.53027Q57.832 7.53027 57.2988 7.70117Q56.7656 7.87207 56.2734 8.10449L55.7539 6.95605Q56.3691 6.63477 57.1006 6.46729Q57.832 6.29981 58.4814 6.2998Q59.9238 6.2998 60.6587 6.92871Q61.3936 7.55762 61.3936 8.9043L61.3936 13.9971L60.2451 13.9971ZM84.9775 14.1338Q83.2617 14.1338 82.3696 13.1323Q81.4775 12.1309 81.4775 10.2578Q81.4775 8.35059 82.4106 7.3252Q83.3438 6.2998 85.1074 6.2998Q86.3037 6.2998 87.2607 6.74414L86.7754 8.03613Q85.7568 7.63965 85.0938 7.63965Q83.1318 7.63965 83.1318 10.2441Q83.1318 11.5156 83.6206 12.1548Q84.1094 12.7939 85.0527 12.7939Q86.126 12.7939 87.083 12.2607L87.083 13.6621Q86.6523 13.915 86.1636 14.0244Q85.6748 14.1338 84.9775 14.1338ZM93.2695 12.9443L93.5908 13.9971L94.7393 13.9971L94.7393 8.9043Q94.7393 7.55762 94.0044 6.92871Q93.2695 6.2998 91.8271 6.2998Q91.1777 6.29981 90.4463 6.46729Q89.7148 6.63477 89.0996 6.95605L89.6191 8.10449Q90.1113 7.87207 90.6445 7.70117Q91.1777 7.53027 91.7588 7.53027Q92.4697 7.53027 92.8081 7.88916Q93.1465 8.24805 93.1465 8.97266L93.1465 9.37598L91.8408 9.41699Q90.0635 9.47168 89.1953 10.0664Q88.3271 10.6611 88.3271 11.8301Q88.3271 12.9307 88.9526 13.5322Q89.5781 14.1338 90.6924 14.1338Q91.5605 14.1338 92.1143 13.8843Q92.668 13.6348 93.2148 12.9443L93.2695 12.9443ZM100.816 6.2998Q101.302 6.2998 101.616 6.36816L101.459 7.86523Q101.117 7.7832 100.748 7.7832Q99.7842 7.7832 99.186 8.41211Q98.5879 9.04102 98.5879 10.0459L98.5879 13.9971L96.9814 13.9971L96.9814 6.43652L98.2393 6.43652L98.4512 7.76953L98.5332 7.76953Q98.9092 7.09277 99.5142 6.69629Q100.119 6.2998 100.816 6.2998ZM103.561 13.105Q104.556 14.1338 106.319 14.1338Q107.092 14.1338 107.693 14.0176Q108.295 13.9014 108.883 13.6211L108.883 12.3154Q108.22 12.6094 107.642 12.7358Q107.064 12.8623 106.395 12.8623Q105.376 12.8623 104.815 12.271Q104.255 11.6797 104.221 10.5791L109.259 10.5791L109.259 9.71094Q109.259 8.11816 108.391 7.20898Q107.522 6.2998 106.025 6.2998Q104.412 6.29981 103.489 7.35938Q102.566 8.41895 102.566 10.2715Q102.566 12.0762 103.561 13.105ZM131.968 13.9971L131.646 12.9443L131.592 12.9443Q131.045 13.6348 130.491 13.8843Q129.938 14.1338 129.069 14.1338Q127.955 14.1338 127.33 13.5322Q126.704 12.9307 126.704 11.8301Q126.704 10.6611 127.572 10.0664Q128.44 9.47168 130.218 9.41699L131.523 9.37598L131.523 8.97266Q131.523 8.24805 131.185 7.88916Q130.847 7.53027 130.136 7.53027Q129.555 7.53027 129.021 7.70117Q128.488 7.87207 127.996 8.10449L127.477 6.95605Q128.092 6.63477 128.823 6.46729Q129.555 6.29981 130.204 6.2998Q131.646 6.2998 132.381 6.92871Q133.116 7.55762 133.116 8.9043L133.116 13.9971L131.968 13.9971ZM151.696 13.0947Q152.646 12.0557 152.646 10.2031Q152.646 8.41211 151.689 7.35596Q150.732 6.2998 149.092 6.2998Q147.376 6.2998 146.433 7.33203Q145.489 8.36426 145.489 10.2031Q145.489 11.3857 145.927 12.2813Q146.364 13.1768 147.178 13.6553Q147.991 14.1338 149.051 14.1338Q150.746 14.1338 151.696 13.0947ZM158.327 6.2998Q158.813 6.2998 159.127 6.36816L158.97 7.86523Q158.628 7.7832 158.259 7.7832Q157.295 7.7832 156.697 8.41211Q156.099 9.04102 156.099 10.0459L156.099 13.9971L154.492 13.9971L154.492 6.43652L155.75 6.43652L155.962 7.76953L156.044 7.76953Q156.42 7.09277 157.025 6.69629Q157.63 6.2998 158.327 6.2998ZM165.286 13.9971L166.899 13.9971L166.899 9.99121Q166.899 8.78125 167.333 8.19678Q167.768 7.6123 168.704 7.6123Q169.401 7.61231 169.733 8.03955Q170.064 8.4668 170.064 9.33496L170.064 13.9971L171.671 13.9971L171.671 9.06836Q171.671 7.66699 171.052 6.9834Q170.434 6.2998 169.08 6.2998Q168.294 6.2998 167.686 6.61426Q167.077 6.92871 166.742 7.48926L166.633 7.48926Q166.065 6.2998 164.322 6.2998Q163.604 6.2998 163.006 6.59375Q162.408 6.8877 162.094 7.42773L162.012 7.42773L161.786 6.43652L160.528 6.43652L160.528 13.9971L162.135 13.9971L162.135 10.2305Q162.135 8.82227 162.569 8.21729Q163.003 7.6123 163.933 7.6123Q164.63 7.61231 164.958 8.03955Q165.286 8.4668 165.286 9.33496L165.286 13.9971ZM49.229 8.00195Q49.6904 7.5166 50.4561 7.5166Q51.2217 7.5166 51.6592 7.99854Q52.0967 8.48047 52.1104 9.41699L48.6787 9.41699Q48.7676 8.4873 49.229 8.00195ZM104.798 8.00195Q105.26 7.5166 106.025 7.5166Q106.791 7.5166 107.229 7.99854Q107.666 8.48047 107.68 9.41699L104.248 9.41699Q104.337 8.4873 104.798 8.00195ZM149.078 12.8213Q147.144 12.8213 147.144 10.2031Q147.144 8.95215 147.598 8.28223Q148.053 7.6123 149.064 7.6123Q150.992 7.61231 150.992 10.2031Q150.992 12.8213 149.078 12.8213ZM57.8525 12.9033Q58.7275 12.9033 59.2573 12.4146Q59.7871 11.9258 59.7871 11.0439L59.7871 10.3877L58.8164 10.4287Q57.6816 10.4697 57.1655 10.8081Q56.6494 11.1465 56.6494 11.8438Q56.6494 12.3496 56.9502 12.6265Q57.251 12.9033 57.8525 12.9033ZM92.603 12.4146Q92.0732 12.9033 91.1982 12.9033Q90.5967 12.9033 90.2959 12.6265Q89.9951 12.3496 89.9951 11.8438Q89.9951 11.1465 90.5112 10.8081Q91.0273 10.4697 92.1621 10.4287L93.1328 10.3877L93.1328 11.0439Q93.1328 11.9258 92.603 12.4146ZM129.575 12.9033Q130.45 12.9033 130.98 12.4146Q131.51 11.9258 131.51 11.0439L131.51 10.3877L130.539 10.4287Q129.404 10.4697 128.888 10.8081Q128.372 11.1465 128.372 11.8438Q128.372 12.3496 128.673 12.6265Q128.974 12.9033 129.575 12.9033Z" />
    </g>
  </g>
</svg>