<?xml version="1.0" encoding="utf-8"?>
<svg width="15px" height="16px" viewBox="0 0 15 16" version="1.1" xmlns:xlink="http://www.w3.org/1999/xlink" xmlns="http://www.w3.org/2000/svg">
  <desc>Created with Lunacy</desc>
  <g id="newspaper-2">
    <path d="M3.62069 0L0 0L0 3.73333L3.62069 3.73333L3.62069 0ZM3.10345 3.2L0.517241 3.2L0.517241 0.533333L3.10345 0.533333L3.10345 3.2Z" transform="translate(4.137931 4.266667)" id="Shape" fill="#555555" stroke="none" />
    <path d="M4.39655 0L0.258621 0C0.115603 0 0 0.1192 0 0.266667C0 0.414133 0.115603 0.533333 0.258621 0.533333L4.39655 0.533333C4.53957 0.533333 4.65517 0.414133 4.65517 0.266667C4.65517 0.1192 4.53957 0 4.39655 0Z" transform="translate(8.793103 4.266667)" id="Shape" fill="#555555" stroke="none" />
    <path d="M4.39655 0L0.258621 0C0.115603 0 0 0.1192 0 0.266667C0 0.414133 0.115603 0.533333 0.258621 0.533333L4.39655 0.533333C4.53957 0.533333 4.65517 0.414133 4.65517 0.266667C4.65517 0.1192 4.53957 0 4.39655 0Z" transform="translate(8.793103 5.866667)" id="Shape" fill="#555555" stroke="none" />
    <path d="M4.39655 0L0.258621 0C0.115603 0 0 0.1192 0 0.266667C0 0.414133 0.115603 0.533333 0.258621 0.533333L4.39655 0.533333C4.53957 0.533333 4.65517 0.414133 4.65517 0.266667C4.65517 0.1192 4.53957 0 4.39655 0Z" transform="translate(8.793103 7.466667)" id="Shape" fill="#555555" stroke="none" />
    <path d="M8.7931 0L0.258621 0C0.115603 0 0 0.1192 0 0.266667C0 0.414133 0.115603 0.533333 0.258621 0.533333L8.7931 0.533333C8.93612 0.533333 9.05172 0.414133 9.05172 0.266667C9.05172 0.1192 8.93612 0 8.7931 0Z" transform="translate(4.396552 9.066667)" id="Shape" fill="#555555" stroke="none" />
    <path d="M4.13793 0L0.258621 0C0.115603 0 0 0.1192 0 0.266667C0 0.414133 0.115603 0.533333 0.258621 0.533333L4.13793 0.533333C4.28095 0.533333 4.39655 0.414133 4.39655 0.266667C4.39655 0.1192 4.28095 0 4.13793 0Z" transform="translate(4.396552 10.66667)" id="Shape" fill="#555555" stroke="none" />
    <path d="M4.13793 0L0.258621 0C0.115603 0 0 0.1192 0 0.266667C0 0.414133 0.115603 0.533333 0.258621 0.533333L4.13793 0.533333C4.28095 0.533333 4.39655 0.414133 4.39655 0.266667C4.39655 0.1192 4.28095 0 4.13793 0Z" transform="translate(4.396552 12.26667)" id="Shape" fill="#555555" stroke="none" />
    <path d="M4.13793 0L0.258621 0C0.115603 0 0 0.1192 0 0.266667C0 0.414133 0.115603 0.533333 0.258621 0.533333L4.13793 0.533333C4.28095 0.533333 4.39655 0.414133 4.39655 0.266667C4.39655 0.1192 4.28095 0 4.13793 0Z" transform="translate(4.396552 13.86667)" id="Shape" fill="#555555" stroke="none" />
    <path d="M0 3.73333L3.62069 3.73333L3.62069 0L0 0L0 3.73333ZM0.517241 0.533333L3.10345 0.533333L3.10345 3.2L0.517241 3.2L0.517241 0.533333Z" transform="translate(9.827586 10.66667)" id="Shape" fill="#555555" stroke="none" />
    <path d="M15 3.46667C15 3.46213 14.9977 3.4584 14.9974 3.45387L14.9974 0L2.58621 0L2.58621 8L0 8L0 14.4C0 15.2824 0.695948 16 1.55172 16L13.4483 16C14.3025 16 14.9974 15.2832 14.9974 14.4027L14.9974 3.47947C14.9977 3.47493 15 3.4712 15 3.46667ZM14.4802 0.533333L14.4802 3.2L3.10345 3.2L3.10345 0.533333L14.4802 0.533333ZM0.517241 14.4L0.517241 8.53333L2.58621 8.53333L2.58621 14.4C2.58621 14.9883 2.12224 15.4667 1.55172 15.4667C0.981207 15.4667 0.517241 14.9883 0.517241 14.4ZM13.4483 15.4667L2.7075 15.4667C2.71164 15.4619 2.71448 15.4563 2.71836 15.4515C2.77112 15.3893 2.81922 15.3229 2.86216 15.2528C2.86914 15.2416 2.8756 15.2304 2.88233 15.2187C2.92422 15.1467 2.96121 15.0715 2.99172 14.9925C2.99586 14.9816 2.99948 14.9707 3.00336 14.9597C3.0331 14.8781 3.05741 14.7939 3.07397 14.7067C3.07552 14.6987 3.07603 14.6904 3.07759 14.6827C3.09362 14.5909 3.10345 14.4965 3.10345 14.4L3.10345 8L3.10345 3.73333L14.4802 3.73333L14.4802 14.4027C14.4802 14.9893 14.0172 15.4667 13.4483 15.4667Z" id="Shape" fill="#555555" stroke="none" />
    <path d="M6.2069 0L0 0L0 1.6L6.2069 1.6L6.2069 0ZM5.68966 1.06667L0.517241 1.06667L0.517241 0.533333L5.68966 0.533333L5.68966 1.06667Z" transform="translate(5.689655 1.066667)" id="Shape" fill="#555555" stroke="none" />
  </g>
</svg>