<?xml version="1.0" encoding="UTF-8"?>
<svg width="161px" height="37px" viewBox="0 0 161 37" version="1.1" xmlns="http://www.w3.org/2000/svg" xmlns:xlink="http://www.w3.org/1999/xlink">
    <!-- Generator: Sketch 50.2 (55047) - http://www.bohemiancoding.com/sketch -->
    <title>ngo_logo</title>
    <desc>Created with Sketch.</desc>
    <defs></defs>
    <g id="Page-1" stroke="none" stroke-width="1" fill="none" fill-rule="evenodd">
        <g id="Artboard" transform="translate(-121.000000, -63.000000)">
            <g id="ngo_logo" transform="translate(121.000000, 63.000000)">
                <g id="Group">
                    <g id="Group-3">
                        <path d="M10,0 L16,0 L16,6 C16,11.5228475 11.5228475,16 6,16 L0,16 L0,10 C-6.76353751e-16,4.4771525 4.4771525,1.01453063e-15 10,0 Z" id="Rectangle-16" fill="#EF5350"></path>
                        <path d="M0,21 L6,21 C11.5228475,21 16,25.4771525 16,31 L16,37 L10,37 C4.4771525,37 6.76353751e-16,32.5228475 0,27 L0,21 Z" id="Rectangle-16-Copy-3" fill="#EF9A9A"></path>
                        <path d="M21,0 L27,0 C32.5228475,-1.01453063e-15 37,4.4771525 37,10 L37,16 L31,16 C25.4771525,16 21,11.5228475 21,6 L21,0 Z" id="Rectangle-16-Copy" fill="#00B396"></path>
                        <path d="M31,21 L37,21 L37,27 C37,32.5228475 32.5228475,37 27,37 L21,37 L21,31 C21,25.4771525 25.4771525,21 31,21 Z" id="Rectangle-16-Copy-4" fill="#03DAC4"></path>
                    </g>
                </g>
                <path d="M58.1240234,15 L55.4306641,15 L51.0830078,7.43945312 L51.0214844,7.43945312 C51.1080733,8.77474626 51.1513672,9.72721069 51.1513672,10.296875 L51.1513672,15 L49.2578125,15 L49.2578125,5.00585938 L51.9306641,5.00585938 L56.2714844,12.4912109 L56.3193359,12.4912109 C56.2509762,11.1923763 56.2167969,10.2740912 56.2167969,9.73632812 L56.2167969,5.00585938 L58.1240234,5.00585938 L58.1240234,15 Z M64.4335938,9.38769531 L68.3984375,9.38769531 L68.3984375,14.5693359 C67.7558562,14.7789724 67.1508817,14.9259436 66.5834961,15.0102539 C66.0161104,15.0945642 65.4362009,15.1367188 64.84375,15.1367188 C63.3352789,15.1367188 62.183435,14.6935266 61.3881836,13.8071289 C60.5929322,12.9207312 60.1953125,11.6481203 60.1953125,9.98925781 C60.1953125,8.3759685 60.6567337,7.11816857 61.5795898,6.21582031 C62.502446,5.31347205 63.7818929,4.86230469 65.4179688,4.86230469 C66.4433645,4.86230469 67.4322869,5.06738076 68.3847656,5.47753906 L67.6806641,7.17285156 C66.9514937,6.80826641 66.1927123,6.62597656 65.4042969,6.62597656 C64.4882767,6.62597656 63.75456,6.93359067 63.203125,7.54882812 C62.65169,8.16406558 62.3759766,8.99120574 62.3759766,10.0302734 C62.3759766,11.1149143 62.5981423,11.9431938 63.0424805,12.5151367 C63.4868186,13.0870797 64.1328083,13.3730469 64.9804688,13.3730469 C65.4225283,13.3730469 65.871417,13.3274744 66.3271484,13.2363281 L66.3271484,11.1513672 L64.4335938,11.1513672 L64.4335938,9.38769531 Z M79.8486328,9.98925781 C79.8486328,11.643563 79.4384807,12.9150346 78.6181641,13.8037109 C77.7978475,14.6923873 76.622078,15.1367188 75.0908203,15.1367188 C73.5595627,15.1367188 72.3837932,14.6923873 71.5634766,13.8037109 C70.74316,12.9150346 70.3330078,11.6390057 70.3330078,9.97558594 C70.3330078,8.31216616 70.7442993,7.04183381 71.5668945,6.16455078 C72.3894898,5.28726775 73.5686772,4.84863281 75.1044922,4.84863281 C76.6403072,4.84863281 77.8149373,5.29068568 78.628418,6.17480469 C79.4418986,7.05892369 79.8486328,8.33039535 79.8486328,9.98925781 Z M72.5546875,9.98925781 C72.5546875,11.1057999 72.7665994,11.9466118 73.1904297,12.5117188 C73.6142599,13.0768257 74.2477171,13.359375 75.0908203,13.359375 C76.781584,13.359375 77.6269531,12.2360138 77.6269531,9.98925781 C77.6269531,7.73794447 76.7861412,6.61230469 75.1044922,6.61230469 C74.261389,6.61230469 73.6256532,6.89599326 73.1972656,7.46337891 C72.7688781,8.03076456 72.5546875,8.87271577 72.5546875,9.98925781 Z M93.7460938,15 L91.6337891,15 L91.6337891,10.6865234 L87.6757812,10.6865234 L87.6757812,15 L85.5566406,15 L85.5566406,5.00585938 L87.6757812,5.00585938 L87.6757812,8.92285156 L91.6337891,8.92285156 L91.6337891,5.00585938 L93.7460938,5.00585938 L93.7460938,15 Z M99.2695312,8.69726562 C98.8274717,8.69726562 98.481121,8.83740094 98.2304688,9.11767578 C97.9798165,9.39795062 97.8362632,9.79557034 97.7998047,10.3105469 L100.725586,10.3105469 C100.716471,9.79557034 100.582033,9.39795062 100.322266,9.11767578 C100.062499,8.83740094 99.7115908,8.69726562 99.2695312,8.69726562 Z M99.5634766,15.1367188 C98.3330017,15.1367188 97.3714227,14.7972039 96.6787109,14.1181641 C95.9859991,13.4391242 95.6396484,12.4775453 95.6396484,11.2333984 C95.6396484,9.95279308 95.959795,8.96273136 96.6000977,8.26318359 C97.2404003,7.56363583 98.1256454,7.21386719 99.2558594,7.21386719 C100.335943,7.21386719 101.176755,7.5214813 101.77832,8.13671875 C102.379886,8.7519562 102.680664,9.6018826 102.680664,10.6865234 L102.680664,11.6982422 L97.7519531,11.6982422 C97.7747397,12.2906931 97.9501937,12.7532535 98.2783203,13.0859375 C98.606447,13.4186215 99.0667288,13.5849609 99.6591797,13.5849609 C100.119468,13.5849609 100.554685,13.5371099 100.964844,13.4414062 C101.375002,13.3457026 101.803383,13.1930349 102.25,12.9833984 L102.25,14.5966797 C101.885415,14.7789723 101.49577,14.9145503 101.081055,15.003418 C100.666339,15.0922856 100.160485,15.1367188 99.5634766,15.1367188 Z M109.229492,15 L108.826172,13.9609375 L108.771484,13.9609375 C108.420571,14.402997 108.059409,14.7094718 107.687988,14.8803711 C107.316567,15.0512704 106.83236,15.1367188 106.235352,15.1367188 C105.501624,15.1367188 104.923993,14.9270854 104.502441,14.5078125 C104.08089,14.0885396 103.870117,13.4915403 103.870117,12.7167969 C103.870117,11.9055949 104.153806,11.3074564 104.721191,10.9223633 C105.288577,10.5372702 106.1442,10.324219 107.288086,10.2832031 L108.614258,10.2421875 L108.614258,9.90722656 C108.614258,9.13248311 108.217777,8.74511719 107.424805,8.74511719 C106.814125,8.74511719 106.096358,8.92968565 105.271484,9.29882812 L104.581055,7.890625 C105.460616,7.43033624 106.435867,7.20019531 107.506836,7.20019531 C108.532232,7.20019531 109.318357,7.42350037 109.865234,7.87011719 C110.412112,8.316734 110.685547,8.99576367 110.685547,9.90722656 L110.685547,15 L109.229492,15 Z M108.614258,11.4589844 L107.807617,11.4863281 C107.201494,11.5045574 106.750327,11.6139313 106.454102,11.8144531 C106.157876,12.014975 106.009766,12.3203104 106.009766,12.7304688 C106.009766,13.3183623 106.347002,13.6123047 107.021484,13.6123047 C107.50456,13.6123047 107.890786,13.4733087 108.180176,13.1953125 C108.469565,12.9173163 108.614258,12.5481794 108.614258,12.0878906 L108.614258,11.4589844 Z M114.916992,15 L112.832031,15 L112.832031,4.36328125 L114.916992,4.36328125 L114.916992,15 Z M120.324219,13.4755859 C120.688804,13.4755859 121.1263,13.3958341 121.636719,13.2363281 L121.636719,14.7880859 C121.117185,15.020509 120.47917,15.1367188 119.722656,15.1367188 C118.888668,15.1367188 118.281415,14.9259461 117.900879,14.5043945 C117.520343,14.0828429 117.330078,13.450525 117.330078,12.6074219 L117.330078,8.92285156 L116.332031,8.92285156 L116.332031,8.04101562 L117.480469,7.34375 L118.082031,5.73046875 L119.415039,5.73046875 L119.415039,7.35742188 L121.554688,7.35742188 L121.554688,8.92285156 L119.415039,8.92285156 L119.415039,12.6074219 C119.415039,12.9036473 119.498209,13.1223951 119.664551,13.2636719 C119.830893,13.4049486 120.05078,13.4755859 120.324219,13.4755859 Z M130.236328,15 L128.151367,15 L128.151367,10.5361328 C128.151367,9.43326271 127.741215,8.88183594 126.920898,8.88183594 C126.337562,8.88183594 125.916017,9.08007614 125.65625,9.4765625 C125.396483,9.87304886 125.266602,10.5156206 125.266602,11.4042969 L125.266602,15 L123.181641,15 L123.181641,4.36328125 L125.266602,4.36328125 L125.266602,6.53027344 C125.266602,6.69889407 125.250651,7.09537448 125.21875,7.71972656 L125.170898,8.33496094 L125.280273,8.33496094 C125.74512,7.58756137 126.483393,7.21386719 127.495117,7.21386719 C128.392908,7.21386719 129.074216,7.45540123 129.539062,7.93847656 C130.003909,8.42155189 130.236328,9.1142533 130.236328,10.0166016 L130.236328,15 Z M135.486328,15.1367188 C133.10741,15.1367188 131.917969,13.8310677 131.917969,11.2197266 C131.917969,9.92089194 132.241533,8.92855161 132.888672,8.24267578 C133.535811,7.55679996 134.46321,7.21386719 135.670898,7.21386719 C136.555017,7.21386719 137.347978,7.38704254 138.049805,7.73339844 L137.43457,9.34667969 C137.106444,9.21451757 136.801108,9.10628297 136.518555,9.02197266 C136.236001,8.93766234 135.953452,8.89550781 135.670898,8.89550781 C134.586258,8.89550781 134.043945,9.6656824 134.043945,11.2060547 C134.043945,12.7008538 134.586258,13.4482422 135.670898,13.4482422 C136.071942,13.4482422 136.443358,13.3946945 136.785156,13.2875977 C137.126955,13.1805008 137.468748,13.013022 137.810547,12.7851562 L137.810547,14.5693359 C137.473306,14.7835297 137.132651,14.9316402 136.788574,15.0136719 C136.444497,15.0957035 136.010419,15.1367188 135.486328,15.1367188 Z M144.43457,15 L144.03125,13.9609375 L143.976562,13.9609375 C143.625649,14.402997 143.264488,14.7094718 142.893066,14.8803711 C142.521645,15.0512704 142.037438,15.1367188 141.44043,15.1367188 C140.706702,15.1367188 140.129071,14.9270854 139.70752,14.5078125 C139.285968,14.0885396 139.075195,13.4915403 139.075195,12.7167969 C139.075195,11.9055949 139.358884,11.3074564 139.92627,10.9223633 C140.493655,10.5372702 141.349278,10.324219 142.493164,10.2832031 L143.819336,10.2421875 L143.819336,9.90722656 C143.819336,9.13248311 143.422856,8.74511719 142.629883,8.74511719 C142.019203,8.74511719 141.301436,8.92968565 140.476562,9.29882812 L139.786133,7.890625 C140.665695,7.43033624 141.640945,7.20019531 142.711914,7.20019531 C143.73731,7.20019531 144.523435,7.42350037 145.070312,7.87011719 C145.61719,8.316734 145.890625,8.99576367 145.890625,9.90722656 L145.890625,15 L144.43457,15 Z M143.819336,11.4589844 L143.012695,11.4863281 C142.406572,11.5045574 141.955405,11.6139313 141.65918,11.8144531 C141.362954,12.014975 141.214844,12.3203104 141.214844,12.7304688 C141.214844,13.3183623 141.55208,13.6123047 142.226562,13.6123047 C142.709638,13.6123047 143.095864,13.4733087 143.385254,13.1953125 C143.674643,12.9173163 143.819336,12.5481794 143.819336,12.0878906 L143.819336,11.4589844 Z M152.302734,7.21386719 C152.585288,7.21386719 152.819986,7.23437479 153.006836,7.27539062 L152.849609,9.23046875 C152.680989,9.18489561 152.475913,9.16210938 152.234375,9.16210938 C151.569007,9.16210938 151.05062,9.3330061 150.679199,9.67480469 C150.307778,10.0166033 150.12207,10.4951141 150.12207,11.1103516 L150.12207,15 L148.037109,15 L148.037109,7.35742188 L149.616211,7.35742188 L149.923828,8.64257812 L150.026367,8.64257812 C150.263348,8.21419057 150.583494,7.86897917 150.986816,7.60693359 C151.390139,7.34488801 151.828774,7.21386719 152.302734,7.21386719 Z M157.55957,8.69726562 C157.117511,8.69726562 156.77116,8.83740094 156.520508,9.11767578 C156.269856,9.39795062 156.126302,9.79557034 156.089844,10.3105469 L159.015625,10.3105469 C159.00651,9.79557034 158.872072,9.39795062 158.612305,9.11767578 C158.352538,8.83740094 158.00163,8.69726562 157.55957,8.69726562 Z M157.853516,15.1367188 C156.623041,15.1367188 155.661462,14.7972039 154.96875,14.1181641 C154.276038,13.4391242 153.929688,12.4775453 153.929688,11.2333984 C153.929688,9.95279308 154.249834,8.96273136 154.890137,8.26318359 C155.530439,7.56363583 156.415684,7.21386719 157.545898,7.21386719 C158.625982,7.21386719 159.466794,7.5214813 160.068359,8.13671875 C160.669925,8.7519562 160.970703,9.6018826 160.970703,10.6865234 L160.970703,11.6982422 L156.041992,11.6982422 C156.064779,12.2906931 156.240233,12.7532535 156.568359,13.0859375 C156.896486,13.4186215 157.356768,13.5849609 157.949219,13.5849609 C158.409508,13.5849609 158.844725,13.5371099 159.254883,13.4414062 C159.665041,13.3457026 160.093422,13.1930349 160.540039,12.9833984 L160.540039,14.5966797 C160.175454,14.7789723 159.785809,14.9145503 159.371094,15.003418 C158.956378,15.0922856 158.450524,15.1367188 157.853516,15.1367188 Z M51.3769531,27.7089844 L52.0742188,27.7089844 C52.7259147,27.7089844 53.21354,27.5802422 53.5371094,27.3227539 C53.8606787,27.0652656 54.0224609,26.6904321 54.0224609,26.1982422 C54.0224609,25.7014949 53.8868829,25.3346366 53.6157227,25.0976562 C53.3445624,24.8606759 52.9195992,24.7421875 52.3408203,24.7421875 L51.3769531,24.7421875 L51.3769531,27.7089844 Z M56.1621094,26.1230469 C56.1621094,27.1985731 55.8260125,28.021156 55.1538086,28.5908203 C54.4816047,29.1604846 53.5257223,29.4453125 52.2861328,29.4453125 L51.3769531,29.4453125 L51.3769531,33 L49.2578125,33 L49.2578125,23.0058594 L52.4501953,23.0058594 C53.662441,23.0058594 54.584144,23.2667617 55.215332,23.7885742 C55.8465201,24.3103867 56.1621094,25.0885365 56.1621094,26.1230469 Z M59.9697266,33 L57.8847656,33 L57.8847656,22.3632812 L59.9697266,22.3632812 L59.9697266,33 Z M67.0107422,33 L66.6074219,31.9609375 L66.5527344,31.9609375 C66.2018212,32.402997 65.8406594,32.7094718 65.4692383,32.8803711 C65.0978172,33.0512704 64.6136098,33.1367188 64.0166016,33.1367188 C63.2828739,33.1367188 62.705243,32.9270854 62.2836914,32.5078125 C61.8621398,32.0885396 61.6513672,31.4915403 61.6513672,30.7167969 C61.6513672,29.9055949 61.9350558,29.3074564 62.5024414,28.9223633 C63.0698271,28.5372702 63.92545,28.324219 65.0693359,28.2832031 L66.3955078,28.2421875 L66.3955078,27.9072266 C66.3955078,27.1324831 65.9990274,26.7451172 65.2060547,26.7451172 C64.5953746,26.7451172 63.8776083,26.9296857 63.0527344,27.2988281 L62.3623047,25.890625 C63.2418664,25.4303362 64.217117,25.2001953 65.2880859,25.2001953 C66.3134817,25.2001953 67.0996066,25.4235004 67.6464844,25.8701172 C68.1933621,26.316734 68.4667969,26.9957637 68.4667969,27.9072266 L68.4667969,33 L67.0107422,33 Z M66.3955078,29.4589844 L65.5888672,29.4863281 C64.9827444,29.5045574 64.531577,29.6139313 64.2353516,29.8144531 C63.9391261,30.014975 63.7910156,30.3203104 63.7910156,30.7304688 C63.7910156,31.3183623 64.1282518,31.6123047 64.8027344,31.6123047 C65.2858097,31.6123047 65.6720363,31.4733087 65.9614258,31.1953125 C66.2508152,30.9173163 66.3955078,30.5481794 66.3955078,30.0878906 L66.3955078,29.4589844 Z M73.8330078,31.4755859 C74.197593,31.4755859 74.6350886,31.3958341 75.1455078,31.2363281 L75.1455078,32.7880859 C74.625974,33.020509 73.9879595,33.1367188 73.2314453,33.1367188 C72.3974568,33.1367188 71.7902037,32.9259461 71.409668,32.5043945 C71.0291322,32.0828429 70.8388672,31.450525 70.8388672,30.6074219 L70.8388672,26.9228516 L69.8408203,26.9228516 L69.8408203,26.0410156 L70.9892578,25.34375 L71.5908203,23.7304688 L72.9238281,23.7304688 L72.9238281,25.3574219 L75.0634766,25.3574219 L75.0634766,26.9228516 L72.9238281,26.9228516 L72.9238281,30.6074219 C72.9238281,30.9036473 73.0069979,31.1223951 73.1733398,31.2636719 C73.3396818,31.4049486 73.5595689,31.4755859 73.8330078,31.4755859 Z M80.9150391,26.9228516 L79.1103516,26.9228516 L79.1103516,33 L77.0253906,33 L77.0253906,26.9228516 L75.8769531,26.9228516 L75.8769531,25.9179688 L77.0253906,25.3574219 L77.0253906,24.796875 C77.0253906,23.9264279 77.2395812,23.2906921 77.6679688,22.8896484 C78.0963563,22.4886048 78.7822218,22.2880859 79.7255859,22.2880859 C80.4456416,22.2880859 81.0859347,22.3951812 81.6464844,22.609375 L81.1132812,24.140625 C80.6940083,24.0084629 80.3066424,23.9423828 79.9511719,23.9423828 C79.6549464,23.9423828 79.4407559,24.0301098 79.3085938,24.2055664 C79.1764316,24.381023 79.1103516,24.6054674 79.1103516,24.8789062 L79.1103516,25.3574219 L80.9150391,25.3574219 L80.9150391,26.9228516 Z M83.7724609,29.1650391 C83.7724609,29.9215533 83.8966459,30.4934876 84.1450195,30.8808594 C84.3933932,31.2682311 84.7978488,31.4619141 85.3583984,31.4619141 C85.9143908,31.4619141 86.3142891,31.2693704 86.5581055,30.8842773 C86.8019218,30.4991843 86.9238281,29.9261106 86.9238281,29.1650391 C86.9238281,28.4085249 86.8007825,27.8411477 86.5546875,27.4628906 C86.3085925,27.0846335 85.9052762,26.8955078 85.3447266,26.8955078 C84.7887342,26.8955078 84.3876965,27.0834942 84.1416016,27.4594727 C83.8955066,27.8354511 83.7724609,28.4039675 83.7724609,29.1650391 Z M89.0566406,29.1650391 C89.0566406,30.4091859 88.7285189,31.3821579 88.0722656,32.0839844 C87.4160123,32.7858108 86.5022845,33.1367188 85.3310547,33.1367188 C84.5973271,33.1367188 83.9501981,32.9760758 83.3896484,32.6547852 C82.8290988,32.3334945 82.398439,31.8720733 82.0976562,31.2705078 C81.7968735,30.6689423 81.6464844,29.9671264 81.6464844,29.1650391 C81.6464844,27.9163349 81.9723275,26.9456415 82.6240234,26.2529297 C83.2757194,25.5602179 84.1917259,25.2138672 85.3720703,25.2138672 C86.1057979,25.2138672 86.7529269,25.3733708 87.3134766,25.6923828 C87.8740262,26.0113948 88.304686,26.4693981 88.6054688,27.0664062 C88.9062515,27.6634144 89.0566406,28.3629517 89.0566406,29.1650391 Z M95.0449219,25.2138672 C95.3274754,25.2138672 95.5621735,25.2343748 95.7490234,25.2753906 L95.5917969,27.2304688 C95.4231762,27.1848956 95.2181002,27.1621094 94.9765625,27.1621094 C94.3111946,27.1621094 93.7928078,27.3330061 93.4213867,27.6748047 C93.0499656,28.0166033 92.8642578,28.4951141 92.8642578,29.1103516 L92.8642578,33 L90.7792969,33 L90.7792969,25.3574219 L92.3583984,25.3574219 L92.6660156,26.6425781 L92.7685547,26.6425781 C93.005535,26.2141906 93.3256816,25.8689792 93.7290039,25.6069336 C94.1323262,25.344888 94.5709612,25.2138672 95.0449219,25.2138672 Z M103.979492,33 L101.894531,33 L101.894531,28.5361328 C101.894531,27.9846978 101.802247,27.5711277 101.617676,27.2954102 C101.433105,27.0196926 101.14258,26.8818359 100.746094,26.8818359 C100.212888,26.8818359 99.825522,27.0777975 99.5839844,27.4697266 C99.3424467,27.8616556 99.2216797,28.5065059 99.2216797,29.4042969 L99.2216797,33 L97.1367188,33 L97.1367188,25.3574219 L98.7294922,25.3574219 L99.0097656,26.3349609 L99.1259766,26.3349609 C99.3310557,25.9840477 99.6272767,25.7094736 100.014648,25.5112305 C100.40202,25.3129873 100.846352,25.2138672 101.347656,25.2138672 C102.491542,25.2138672 103.266274,25.5875614 103.671875,26.3349609 L103.856445,26.3349609 C104.061524,25.9794904 104.363442,25.703777 104.762207,25.5078125 C105.160972,25.311848 105.611,25.2138672 106.112305,25.2138672 C106.978194,25.2138672 107.633299,25.4360329 108.077637,25.8803711 C108.521975,26.3247093 108.744141,27.036779 108.744141,28.0166016 L108.744141,33 L106.652344,33 L106.652344,28.5361328 C106.652344,27.9846978 106.56006,27.5711277 106.375488,27.2954102 C106.190917,27.0196926 105.900393,26.8818359 105.503906,26.8818359 C104.993487,26.8818359 104.611818,27.0641258 104.358887,27.4287109 C104.105956,27.7932961 103.979492,28.3720663 103.979492,29.1650391 L103.979492,33 Z" id="NGO-Healthcare-Platf" fill="#0097B3"></path>
            </g>
        </g>
    </g>
</svg>