<?xml version="1.0" encoding="utf-8"?>
<svg width="13px" height="16px" viewBox="0 0 13 16" version="1.1" xmlns:xlink="http://www.w3.org/1999/xlink" xmlns="http://www.w3.org/2000/svg">
  <desc>Created with Lunacy</desc>
  <g id="notification_icon">
    <path d="M12.9138 11.162L11.8006 9.254C11.2874 8.37334 11.0158 7.36534 11.0158 6.338L11.0158 4.66666C11.0158 2.094 8.98056 0 6.48003 0C3.97951 0 1.94422 2.094 1.94422 4.66666L1.94422 6.338C1.94422 7.36534 1.67271 8.37334 1.15951 9.254L0.0462789 11.162C-0.0139827 11.2647 -0.0152888 11.3933 0.0417532 11.4973C0.0994331 11.602 0.207625 11.6667 0.32426 11.6667L12.6358 11.6667C12.7524 11.6667 12.8606 11.602 12.9183 11.4973C12.9753 11.3933 12.9741 11.2647 12.9138 11.162ZM0.896442 11L1.71483 9.59666C2.28893 8.61266 2.59218 7.486 2.59218 6.338L2.59218 4.66666C2.59218 2.46066 4.33588 0.666656 6.48003 0.666656C8.62418 0.666656 10.3679 2.46066 10.3679 4.66666L10.3679 6.338C10.3679 7.486 10.6711 8.61266 11.2446 9.59666L12.0636 11L0.896442 11Z" transform="translate(0.01996639 2.333344)" id="Shape" fill="#555555" stroke="none" />
    <path d="M1.29596 0C0.581234 0 0 0.598 0 1.33334L0 2.66669C0 2.85066 0.145157 3 0.323998 3C0.502839 3 0.647995 2.85066 0.647995 2.66666L0.647995 1.33334C0.647995 0.965344 0.938278 0.666687 1.29596 0.666687C1.65364 0.666687 1.94393 0.965344 1.94393 1.33334L1.94393 2.66669C1.94393 2.85066 2.08908 3 2.26792 3C2.44676 3 2.59192 2.85066 2.59192 2.66666L2.59192 1.33334C2.59192 0.598 2.01069 0 1.29596 0Z" transform="translate(5.20404 0)" id="Shape" fill="#555555" stroke="none" />
    <path d="M3.02217 0.164264C2.9308 0.00560776 2.73316 -0.0463922 2.57831 0.0449203C2.42344 0.138264 2.37162 0.34292 2.46232 0.501576C2.54654 0.64892 2.59256 0.825576 2.59256 0.999577C2.59256 1.55092 2.15648 1.99958 1.6206 1.99958C1.08471 1.99958 0.648633 1.55092 0.648633 0.999577C0.648633 0.825576 0.69465 0.64892 0.778876 0.501576C0.868935 0.342233 0.817117 0.138233 0.662879 0.0449203C0.506727 -0.0464235 0.309722 0.00557651 0.219026 0.164264C0.0758131 0.416264 0 0.70492 0 0.999608C3.03738e-05 1.91892 0.72639 2.66626 1.61996 2.66626C2.51353 2.66626 3.23989 1.91892 3.24119 0.999608C3.24119 0.70492 3.16538 0.416264 3.02217 0.164264Z" transform="translate(4.880042 13.33374)" id="Shape" fill="#555555" stroke="none" />
  </g>
</svg>