<?xml version="1.0" encoding="UTF-8"?>
<svg width="22px" height="26px" viewBox="0 0 22 26" version="1.1" xmlns="http://www.w3.org/2000/svg" xmlns:xlink="http://www.w3.org/1999/xlink">
    <!-- Generator: Sketch 50.2 (55047) - http://www.bohemiancoding.com/sketch -->
    <title>notification_icon</title>
    <desc>Created with Sketch.</desc>
    <defs></defs>
    <g id="Page-1" stroke="none" stroke-width="1" fill="none" fill-rule="evenodd">
        <g id="Desktop-Messages-Client" transform="translate(-648.000000, -88.000000)" fill="#333333" fill-rule="nonzero" stroke="#333333" stroke-width="0.300000012">
            <g id="Group-10" transform="translate(649.000000, 88.000000)">
                <g id="notification_icon" transform="translate(0.000000, 1.000000)">
                    <path d="M19.8980841,20.2430156 L18.1854206,17.3810156 C17.3958879,16.0600313 16.9781776,14.5480312 16.9781776,13.0070156 L16.9781776,10.5 C16.9781776,6.64101562 13.8469626,3.50001562 10,3.50001562 C6.15303738,3.50001562 3.02182243,6.64101562 3.02182243,10.5 L3.02182243,13.0070156 C3.02182243,14.5480312 2.60411215,16.0600313 1.81457944,17.3810156 L0.101915888,20.2430156 C0.00920560748,20.397 0.00719626168,20.5900312 0.094953271,20.7460313 C0.183691589,20.9030156 0.350140187,21.0000469 0.529579439,21.0000469 L19.4703738,21.0000469 C19.6498131,21.0000469 19.8163084,20.9030625 19.905,20.7460313 C19.992757,20.5899844 19.9907944,20.397 19.8980841,20.2430156 Z M1.40985981,20.0000156 L2.66892523,17.895 C3.55214953,16.419 4.01869159,14.7290156 4.01869159,13.0070156 L4.01869159,10.5 C4.01869159,7.191 6.70130841,4.5 10,4.5 C13.2986916,4.5 15.9813084,7.191 15.9813084,10.5 L15.9813084,13.0070156 C15.9813084,14.7290156 16.4478505,16.419 17.3300935,17.895 L18.5901402,20.0000156 L1.40985981,20.0000156 Z" id="Shape"></path>
                    <path d="M10,0 C8.90042056,0 8.00621495,0.897 8.00621495,2.00001563 L8.00621495,4.00003125 C8.00621495,4.27598438 8.22953271,4.5 8.5046729,4.5 C8.77981308,4.5 9.00313084,4.27598438 9.00313084,3.99998437 L9.00313084,2.00001563 C9.00313084,1.44801563 9.44971963,1.00003125 10,1.00003125 C10.5502804,1.00003125 10.9968692,1.44801563 10.9968692,2.00001563 L10.9968692,4.00003125 C10.9968692,4.27598438 11.2201869,4.5 11.4953271,4.5 C11.7704673,4.5 11.993785,4.27598438 11.993785,3.99998437 L11.993785,2.00001563 C11.993785,0.897 11.0995794,0 10,0 Z" id="Shape"></path>
                    <path d="M12.157243,20.247 C12.0166822,20.0090156 11.7126168,19.9310156 11.4743925,20.0679844 C11.2361215,20.208 11.1564019,20.5149844 11.2959346,20.7529688 C11.425514,20.9739844 11.4963084,21.2389688 11.4963084,21.4999688 C11.4963084,22.3269844 10.8254206,22.9999687 10.0009813,22.9999687 C9.17654206,22.9999687 8.50565421,22.3269844 8.50565421,21.4999688 C8.50565421,21.2389688 8.5764486,20.9739844 8.70602804,20.7529688 C8.84457944,20.5139531 8.76485981,20.2079531 8.52757009,20.0679844 C8.28733645,19.9309688 7.98425234,20.0089688 7.84471963,20.247 C7.62439252,20.625 7.50775701,21.0579844 7.50775701,21.5000156 C7.50780374,22.8789844 8.62528037,24 10,24 C11.3747196,24 12.4921963,22.8789844 12.4942056,21.5000156 C12.4942056,21.0579844 12.3775701,20.625 12.157243,20.247 Z" id="Shape"></path>
                </g>
            </g>
        </g>
    </g>
</svg>