<?xml version="1.0" encoding="utf-8"?>
<svg width="13px" height="16px" viewBox="0 0 13 16" version="1.1" xmlns:xlink="http://www.w3.org/1999/xlink" xmlns="http://www.w3.org/2000/svg">
  <desc>Created with Lunacy</desc>
  <defs>
    <path d="M0 0L3.9 0L3.9 6L0 6L0 0Z" transform="translate(1.95 2)" id="path_1" />
    <path d="M0 0L4.55 0L4.55 0.666667L0 0.666667L0 0Z" transform="translate(6.5 2.666667)" id="path_2" />
    <path d="M0 0L4.55 0L4.55 0.666667L0 0.666667L0 0Z" transform="translate(6.5 4.666667)" id="path_3" />
    <path d="M0 0L4.55 0L4.55 0.666667L0 0.666667L0 0Z" transform="translate(6.5 6.666667)" id="path_4" />
    <path d="M0 0L9.1 0L9.1 0.666667L0 0.666667L0 0Z" transform="translate(1.95 9.333333)" id="path_5" />
    <path d="M0 0L9.1 0L9.1 0.666667L0 0.666667L0 0Z" transform="translate(1.95 11.33333)" id="path_6" />
    <path d="M0 0L9.1 0L9.1 0.666667L0 0.666667L0 0Z" transform="translate(1.95 13.33333)" id="path_7" />
    <clipPath id="clip_1">
      <use xlink:href="#path_1" />
    </clipPath>
    <clipPath id="clip_2">
      <use xlink:href="#path_2" />
    </clipPath>
    <clipPath id="clip_3">
      <use xlink:href="#path_3" />
    </clipPath>
    <clipPath id="clip_4">
      <use xlink:href="#path_4" />
    </clipPath>
    <clipPath id="clip_5">
      <use xlink:href="#path_5" />
    </clipPath>
    <clipPath id="clip_6">
      <use xlink:href="#path_6" />
    </clipPath>
    <clipPath id="clip_7">
      <use xlink:href="#path_7" />
    </clipPath>
  </defs>
  <g id="Group-4">
    <path d="M12.3333 0L0.666667 0Q0.598188 0 0.532375 0.012403Q0.466562 0.024806 0.405556 0.0492081Q0.344551 0.0736103 0.29034 0.109217Q0.236128 0.144824 0.190476 0.190476Q0.144824 0.236128 0.109217 0.29034Q0.0736103 0.344551 0.0492081 0.405556Q0.024806 0.466562 0.012403 0.532375Q0 0.598188 0 0.666667L0 15.3333Q0 15.4018 0.012403 15.4676Q0.024806 15.5334 0.0492081 15.5944Q0.0736103 15.6554 0.109217 15.7097Q0.144824 15.7639 0.190476 15.8095Q0.236128 15.8552 0.29034 15.8908Q0.344551 15.9264 0.405556 15.9508Q0.466562 15.9752 0.532375 15.9876Q0.598188 16 0.666667 16L12.3333 16Q12.4018 16 12.4676 15.9876Q12.5334 15.9752 12.5944 15.9508Q12.6554 15.9264 12.7097 15.8908Q12.7639 15.8552 12.8095 15.8095Q12.8552 15.7639 12.8908 15.7097Q12.9264 15.6554 12.9508 15.5944Q12.9752 15.5334 12.9876 15.4676Q13 15.4018 13 15.3333L13 0.666667Q13 0.598188 12.9876 0.532375Q12.9752 0.466562 12.9508 0.405556Q12.9264 0.344551 12.8908 0.29034Q12.8552 0.236128 12.8095 0.190476Q12.7639 0.144824 12.7097 0.109217Q12.6554 0.0736103 12.5944 0.0492081Q12.5334 0.024806 12.4676 0.012403Q12.4018 0 12.3333 0ZM12.0167 0.666667L0.983333 0.666667Q0.949094 0.666667 0.916188 0.672868Q0.883281 0.67907 0.852778 0.691271Q0.822276 0.703472 0.79517 0.721275Q0.768064 0.739079 0.745238 0.761905Q0.722412 0.784731 0.704609 0.811837Q0.686805 0.838942 0.674604 0.869445Q0.662403 0.899948 0.656201 0.932854Q0.65 0.965761 0.65 1L0.65 15Q0.65 15.0342 0.656201 15.0671Q0.662403 15.1001 0.674604 15.1306Q0.686805 15.1611 0.704609 15.1882Q0.722412 15.2153 0.745238 15.2381Q0.768064 15.2609 0.79517 15.2787Q0.822276 15.2965 0.852778 15.3087Q0.883281 15.3209 0.916188 15.3271Q0.949094 15.3333 0.983333 15.3333L12.0167 15.3333Q12.0509 15.3333 12.0838 15.3271Q12.1167 15.3209 12.1472 15.3087Q12.1777 15.2965 12.2048 15.2787Q12.2319 15.2609 12.2548 15.2381Q12.2776 15.2153 12.2954 15.1882Q12.3132 15.1611 12.3254 15.1306Q12.3376 15.1001 12.3438 15.0671Q12.35 15.0342 12.35 15L12.35 1Q12.35 0.965761 12.3438 0.932854Q12.3376 0.899948 12.3254 0.869445Q12.3132 0.838942 12.2954 0.811837Q12.2776 0.784731 12.2548 0.761905Q12.2319 0.739079 12.2048 0.721275Q12.1777 0.703472 12.1472 0.691271Q12.1167 0.67907 12.0838 0.672868Q12.0509 0.666667 12.0167 0.666667Z" id="Combined-Shape" fill="#555555" fill-rule="evenodd" stroke="none" />
    <g id="Rectangle-15">
      <g clip-path="url(#clip_1)">
        <use xlink:href="#path_1" fill="none" stroke="#555555" stroke-width="1.33333337" />
      </g>
    </g>
    <g id="Rectangle-15-Copy">
      <g clip-path="url(#clip_2)">
        <use xlink:href="#path_2" fill="none" stroke="#555555" stroke-width="1.33333337" />
      </g>
    </g>
    <g id="Rectangle-15-Copy-6">
      <g clip-path="url(#clip_3)">
        <use xlink:href="#path_3" fill="none" stroke="#555555" stroke-width="1.33333337" />
      </g>
    </g>
    <g id="Rectangle-15-Copy-8">
      <g clip-path="url(#clip_4)">
        <use xlink:href="#path_4" fill="none" stroke="#555555" stroke-width="1.33333337" />
      </g>
    </g>
    <g id="Rectangle-15-Copy-3">
      <g clip-path="url(#clip_5)">
        <use xlink:href="#path_5" fill="none" stroke="#555555" stroke-width="1.33333337" />
      </g>
    </g>
    <g id="Rectangle-15-Copy-5">
      <g clip-path="url(#clip_6)">
        <use xlink:href="#path_6" fill="none" stroke="#555555" stroke-width="1.33333337" />
      </g>
    </g>
    <g id="Rectangle-15-Copy-7">
      <g clip-path="url(#clip_7)">
        <use xlink:href="#path_7" fill="none" stroke="#555555" stroke-width="1.33333337" />
      </g>
    </g>
  </g>
</svg>