<?xml version="1.0" encoding="utf-8"?>
<svg width="14px" height="14px" viewBox="0 0 14 14" version="1.1" xmlns:xlink="http://www.w3.org/1999/xlink" xmlns="http://www.w3.org/2000/svg">
  <desc>Created with Lunacy</desc>
  <g id="phone-call">
    <path d="M11.0497 7.85949C10.7632 7.56118 10.4176 7.40169 10.0514 7.40169C9.6881 7.40169 9.33958 7.55823 9.04127 7.85654L8.10793 8.78692C8.03114 8.74557 7.95435 8.70717 7.88051 8.66878C7.77418 8.61561 7.67376 8.5654 7.5881 8.51224C6.71384 7.95696 5.91933 7.23333 5.1573 6.29705C4.7881 5.83038 4.54 5.43755 4.35983 5.03882C4.60203 4.8173 4.8265 4.58692 5.04506 4.3654C5.12777 4.2827 5.21047 4.19705 5.29317 4.11435C5.91342 3.49409 5.91342 2.69072 5.29317 2.07046L4.48684 1.26414C4.39528 1.17257 4.30076 1.07806 4.21215 0.983544C4.03494 0.800422 3.84886 0.611392 3.65688 0.434177C3.37038 0.150633 3.02777 0 2.66743 0C2.30709 0 1.95857 0.150633 1.66321 0.434177C1.66025 0.437131 1.66025 0.437131 1.6573 0.440084L0.653082 1.45316C0.275023 1.83122 0.059411 2.29198 0.0121536 2.82658C-0.0587325 3.68903 0.195276 4.4924 0.390213 5.01814C0.868694 6.30886 1.58346 7.50506 2.64971 8.78692C3.94338 10.3316 5.49992 11.5515 7.27798 12.411C7.9573 12.7329 8.86405 13.1139 9.87713 13.1789C9.93916 13.1819 10.0041 13.1848 10.0632 13.1848C10.7455 13.1848 11.3185 12.9397 11.7674 12.4523C11.7704 12.4464 11.7763 12.4435 11.7792 12.4376C11.9328 12.2515 12.11 12.0831 12.2961 11.903C12.4231 11.7819 12.5531 11.6549 12.6801 11.5219C12.9725 11.2177 13.1261 10.8633 13.1261 10.5C13.1261 10.1338 12.9695 9.78228 12.6712 9.48692L11.0497 7.85949ZM12.1071 10.9696C12.1041 10.9696 12.1041 10.9726 12.1071 10.9696C11.9919 11.0937 11.8738 11.2059 11.7468 11.33C11.5548 11.5131 11.3598 11.7051 11.1767 11.9207C10.8784 12.2397 10.5269 12.3903 10.0662 12.3903C10.0219 12.3903 9.9746 12.3903 9.9303 12.3873C9.05308 12.3312 8.23789 11.9886 7.6265 11.6962C5.95477 10.8869 4.48684 9.73797 3.26701 8.28186C2.25983 7.06793 1.58642 5.94557 1.14042 4.74051C0.86574 4.00506 0.765318 3.43207 0.809622 2.89156C0.839158 2.54599 0.972069 2.25949 1.21722 2.01435L2.22439 1.00717C2.36912 0.871308 2.5227 0.797468 2.67334 0.797468C2.85941 0.797468 3.01004 0.909705 3.10456 1.00422C3.10751 1.00717 3.11047 1.01013 3.11342 1.01308C3.29359 1.18143 3.4649 1.3557 3.64506 1.54177C3.73663 1.63629 3.83114 1.7308 3.92566 1.82827L4.73199 2.6346C5.04506 2.94768 5.04506 3.23713 4.73199 3.55021C4.64633 3.63586 4.56363 3.72152 4.47798 3.80422C4.22988 4.05823 3.99359 4.29451 3.73663 4.52489C3.73072 4.5308 3.72481 4.53375 3.72186 4.53966C3.46785 4.79367 3.51511 5.04177 3.56827 5.21013C3.57123 5.21899 3.57418 5.22785 3.57713 5.23671C3.78684 5.74473 4.0822 6.22321 4.53114 6.79325L4.53409 6.7962C5.34928 7.80042 6.20878 8.58312 7.15688 9.1827C7.27798 9.25949 7.40203 9.32152 7.52017 9.38059C7.6265 9.43375 7.72692 9.48397 7.81258 9.53713C7.82439 9.54304 7.8362 9.5519 7.84802 9.55781C7.94844 9.60802 8.04296 9.63165 8.14042 9.63165C8.38557 9.63165 8.53916 9.47806 8.58937 9.42785L9.5995 8.41772C9.69992 8.3173 9.85941 8.1962 10.0455 8.1962C10.2286 8.1962 10.3792 8.31139 10.4708 8.41181C10.4738 8.41477 10.4738 8.41477 10.4767 8.41772L12.1041 10.0451C12.4084 10.3464 12.4084 10.6565 12.1071 10.9696Z" transform="translate(0.01017554 0.8094599)" id="Shape" fill="#777777" stroke="none" />
  </g>
</svg>