<?xml version="1.0" encoding="utf-8"?>
<svg width="12px" height="12px" viewBox="0 0 12 12" version="1.1" xmlns:xlink="http://www.w3.org/1999/xlink" xmlns="http://www.w3.org/2000/svg">
  <desc>Created with Lunacy</desc>
  <path d="M8.08928 7.3902C9.23776 6.69112 9.98676 5.44279 9.98676 3.99472C9.98678 1.79762 8.18914 0 5.99206 0C3.79499 0 1.99735 1.79762 1.99735 3.99472C1.99735 5.44279 2.74634 6.69114 3.89482 7.3902C1.89747 8.13922 0.399455 9.8869 0 11.9841L0.998685 11.9841C1.49802 9.68717 3.54532 7.98941 5.99206 7.98941C8.4388 7.98941 10.4861 9.68715 10.9854 11.9841L11.9841 11.9841C11.5847 9.83696 10.0867 8.08928 8.08928 7.3902ZM2.99603 3.99472C2.99603 2.34691 4.34426 0.998685 5.99206 0.998685C7.63987 0.998685 8.98809 2.34691 8.98809 3.99472C8.98809 5.64252 7.63987 6.99075 5.99206 6.99075C4.34426 6.99075 2.99603 5.64252 2.99603 3.99472Z" id="Shape" fill="#FFFFFF" stroke="none" />
</svg>