<?xml version="1.0" encoding="utf-8"?>
<svg width="11px" height="16px" viewBox="0 0 11 16" version="1.1" xmlns:xlink="http://www.w3.org/1999/xlink" xmlns="http://www.w3.org/2000/svg">
  <desc>Created with Lunacy</desc>
  <g id="document-2">
    <path d="M10.7037 3.03543L9.65161 1.9424L9.65161 0.294931C9.65161 0.1322 9.52479 0 9.36774 0L0.283871 0C0.126827 0 0 0.1322 0 0.294931L0 13.8618C0 14.0245 0.126827 14.1567 0.283871 14.1567L1.13548 14.1567L1.13548 15.0415C1.13548 15.2042 1.26231 15.3364 1.41935 15.3364L10.5032 15.3364C10.6603 15.3364 10.7871 15.2042 10.7871 15.0415L10.7871 3.24424C10.7871 3.16259 10.7554 3.08885 10.7037 3.03543ZM9.08387 2.18664L9.81794 2.94931L9.08387 2.94931L9.08387 2.18664ZM1.13548 1.47465L1.13548 13.5668L0.567742 13.5668L0.567742 0.589862L9.08387 0.589862L9.08387 1.35253L9.00098 1.26642C8.94956 1.2127 8.87859 1.17972 8.8 1.17972L1.41935 1.17972C1.26231 1.17972 1.13548 1.31192 1.13548 1.47465ZM10.2194 14.7465L1.70323 14.7465L1.70323 1.76959L8.51613 1.76959L8.51613 3.24424C8.51613 3.40697 8.64296 3.53917 8.8 3.53917L10.2194 3.53917L10.2194 14.7465Z" transform="translate(0.2129032 0)" id="Shape" fill="#555555" stroke="none" />
    <path d="M0.283871 2.35945L5.39355 2.35945C5.55059 2.35945 5.67742 2.22725 5.67742 2.06452L5.67742 0.294931C5.67742 0.1322 5.55059 0 5.39355 0L0.283871 0C0.126827 0 0 0.1322 0 0.294931L0 2.06452C0 2.22725 0.126827 2.35945 0.283871 2.35945ZM0.567742 0.589862L5.10968 0.589862L5.10968 1.76959L0.567742 1.76959L0.567742 0.589862Z" transform="translate(2.483871 2.359447)" id="Shape" fill="#555555" stroke="none" />
    <path d="M0 0L7.38065 0L7.38065 0.589862L0 0.589862L0 0Z" transform="translate(2.483871 5.308756)" id="Shape" fill="#555555" stroke="none" />
    <path d="M0 0L7.38065 0L7.38065 0.589862L0 0.589862L0 0Z" transform="translate(2.483871 6.488479)" id="Shape" fill="#555555" stroke="none" />
    <path d="M0.829158 1.46616L0.472379 0.90985L0 1.23704L0.567742 2.12183C0.617364 2.19931 0.69942 2.2477 0.788546 2.25274C0.793952 2.25331 0.798803 2.25331 0.803931 2.25331C0.887928 2.25331 0.968044 2.21472 1.02224 2.14718L2.4416 0.377592L2.00525 0L0.829158 1.46616Z" transform="translate(7.357359 7.774338)" id="Shape" fill="#555555" stroke="none" />
    <path d="M0.829158 1.46616L0.472379 0.90985L0 1.23704L0.567742 2.12183C0.617364 2.19931 0.69942 2.2477 0.788546 2.25274C0.793952 2.25331 0.798803 2.25331 0.803931 2.25331C0.887928 2.25331 0.968044 2.21472 1.02224 2.14718L2.4416 0.377592L2.00525 0L0.829158 1.46616Z" transform="translate(7.357359 9.838854)" id="Shape" fill="#555555" stroke="none" />
    <path d="M0.829158 1.46616L0.472379 0.90985L0 1.23704L0.567742 2.12183C0.617364 2.19931 0.69942 2.2477 0.788546 2.25274C0.793952 2.25331 0.798803 2.25331 0.803931 2.25331C0.887928 2.25331 0.968044 2.21472 1.02224 2.14718L2.4416 0.377592L2.00525 0L0.829158 1.46616Z" transform="translate(7.357359 11.90337)" id="Shape" fill="#555555" stroke="none" />
    <path d="M0 0L4.54194 0L4.54194 0.589862L0 0.589862L0 0Z" transform="translate(2.483871 13.56682)" id="Shape" fill="#555555" stroke="none" />
    <path d="M0 0L4.54194 0L4.54194 0.589862L0 0.589862L0 0Z" transform="translate(2.483871 11.5023)" id="Shape" fill="#555555" stroke="none" />
    <path d="M0 0L4.54194 0L4.54194 0.589862L0 0.589862L0 0Z" transform="translate(2.483871 9.437788)" id="Shape" fill="#555555" stroke="none" />
  </g>
</svg>
