<?xml version="1.0" encoding="utf-8"?>
<svg width="13px" height="16px" viewBox="0 0 13 16" version="1.1" xmlns:xlink="http://www.w3.org/1999/xlink" xmlns="http://www.w3.org/2000/svg">

  <g id="file-4">
    <path d="M12.9206 15.5448L12.1875 14.8229L12.1875 5.4896L12.0529 5.35707L10.8333 4.15627L10.8333 0L0 0L0 13.8667L1.35417 13.8667L1.35417 15.2L11.8045 15.2L12.5377 15.9219C12.5905 15.9739 12.6598 16 12.7292 16C12.7985 16 12.8678 15.9739 12.9206 15.9219C13.0265 15.8176 13.0265 15.6491 12.9206 15.5448ZM11.2629 5.33333L8.125 5.33333L8.125 2.24373L10.8333 4.9104L11.2629 5.33333ZM0.541667 13.3333L0.541667 0.533333L10.2917 0.533333L10.2917 3.62293L8.1009 1.46587L7.96629 1.33333L1.35417 1.33333L1.35417 13.3333L0.541667 13.3333ZM1.89583 14.6667L1.89583 13.8667L1.89583 1.86667L7.58333 1.86667L7.58333 5.86667L11.6458 5.86667L11.6458 14.2896L9.61079 12.2859C10.082 11.7365 10.3678 11.028 10.3678 10.2541C10.3678 8.51493 8.93073 7.1 7.16435 7.1C5.39798 7.1 3.96094 8.51493 3.96094 10.2541C3.96094 11.9933 5.39798 13.4083 7.16435 13.4083C7.95031 13.4083 8.66992 13.1269 9.22783 12.6629L11.2629 14.6667L1.89583 14.6667ZM7.16435 12.8749C5.69671 12.8749 4.5026 11.6992 4.5026 10.2541C4.5026 8.80907 5.69671 7.63333 7.16435 7.63333C8.632 7.63333 9.8261 8.80907 9.8261 10.2541C9.8261 11.6992 8.632 12.8749 7.16435 12.8749Z" id="Shape" fill="#555555" stroke="none" />
    <path d="M0.270833 0.533333L1.89583 0.533333C2.0456 0.533333 2.16667 0.414133 2.16667 0.266667C2.16667 0.1192 2.0456 0 1.89583 0L0.270833 0C0.121063 0 0 0.1192 0 0.266667C0 0.414133 0.121063 0.533333 0.270833 0.533333Z" transform="translate(5.315104 9.066667)" id="Shape" fill="#555555" stroke="none" />
    <path d="M3.52083 0L0.270833 0C0.121063 0 0 0.1192 0 0.266667C0 0.414133 0.121063 0.533333 0.270833 0.533333L3.52083 0.533333C3.6706 0.533333 3.79167 0.414133 3.79167 0.266667C3.79167 0.1192 3.6706 0 3.52083 0Z" transform="translate(5.315104 10.66667)" id="Shape" fill="#555555" stroke="none" />
  </g>
</svg>
