<?xml version="1.0" encoding="utf-8"?>
<svg width="16px" height="16px" viewBox="0 0 16 16" version="1.1" xmlns:xlink="http://www.w3.org/1999/xlink" xmlns="http://www.w3.org/2000/svg">
  <desc>Created with Lunacy</desc>
  <g id="settings_icon">
    <path d="M15.1716 6.31649L14.0493 6.1261C13.9324 5.74864 13.782 5.38455 13.5983 5.03716L14.2597 4.1119C14.5403 3.71775 14.4969 3.17996 14.1528 2.83925L13.1574 1.84384C12.9704 1.65679 12.7232 1.55324 12.4593 1.55324C12.2522 1.55324 12.0551 1.6167 11.8881 1.73695L10.9595 2.39833C10.5987 2.20793 10.2213 2.05094 9.83048 1.93403L9.64342 0.825052C9.56326 0.34739 9.1524 0 8.66806 0L7.2618 0C6.77745 0 6.3666 0.34739 6.28643 0.825052L6.09269 1.96075C5.71858 2.07766 5.35449 2.23132 5.0071 2.41837L4.08852 1.75699C3.9215 1.63674 3.72109 1.57328 3.51399 1.57328C3.2501 1.57328 2.99958 1.67683 2.81587 1.86388L1.81712 2.85929C1.47641 3.2 1.42965 3.73779 1.71023 4.13194L2.37829 5.07056C2.19457 5.42129 2.0476 5.78539 1.93403 6.16284L0.825052 6.3499C0.34739 6.43006 0 6.84092 0 7.32526L0 8.73152C0 9.21587 0.34739 9.62672 0.825052 9.70689L1.96075 9.90063C2.07766 10.2747 2.23132 10.6388 2.41837 10.9862L1.76033 11.9015C1.47975 12.2956 1.52317 12.8334 1.86722 13.1741L2.86263 14.1695C3.04969 14.3566 3.29687 14.4601 3.56075 14.4601C3.76785 14.4601 3.96493 14.3967 4.13194 14.2764L5.07056 13.6084C5.40793 13.7854 5.762 13.929 6.1261 14.0426L6.31315 15.1649C6.39332 15.6426 6.80418 15.99 7.28852 15.99L8.69812 15.99C9.18246 15.99 9.59332 15.6426 9.67349 15.1649L9.86388 14.0426C10.2413 13.9257 10.6054 13.7754 10.9528 13.5916L11.8781 14.253C12.0451 14.3733 12.2455 14.4367 12.4526 14.4367L12.4526 14.4367C12.7165 14.4367 12.9637 14.3332 13.1507 14.1461L14.1461 13.1507C14.4868 12.81 14.5336 12.2722 14.253 11.8781L13.5916 10.9495C13.7754 10.5987 13.929 10.2347 14.0426 9.86054L15.1649 9.67349C15.6426 9.59332 15.99 9.18246 15.99 8.69812L15.99 7.29186C15.9967 6.80752 15.6493 6.39666 15.1716 6.31649ZM15.0948 8.69812C15.0948 8.74154 15.0647 8.77829 15.0213 8.78497L13.6184 9.01879C13.4413 9.04885 13.301 9.17912 13.2576 9.34948C13.1307 9.8405 12.937 10.3115 12.6764 10.7491C12.5862 10.9027 12.5929 11.0931 12.6965 11.2401L13.5215 12.4025C13.5449 12.4359 13.5415 12.486 13.5115 12.5161L12.5161 13.5115C12.4927 13.5349 12.4693 13.5382 12.4526 13.5382C12.4326 13.5382 12.4159 13.5315 12.4025 13.5215L11.2434 12.6965C11.0998 12.5929 10.9061 12.5862 10.7524 12.6764C10.3148 12.937 9.84384 13.1307 9.35282 13.2576C9.17912 13.301 9.04885 13.4447 9.02213 13.6184L8.78497 15.0213C8.77829 15.0647 8.74155 15.0948 8.69812 15.0948L7.29186 15.0948C7.24843 15.0948 7.21169 15.0647 7.20501 15.0213L6.97119 13.6184C6.94113 13.4413 6.81086 13.301 6.6405 13.2576C6.16284 13.134 5.70188 12.9436 5.27098 12.6965C5.20084 12.6564 5.12067 12.6363 5.04384 12.6363C4.95365 12.6363 4.86013 12.663 4.7833 12.7198L3.6142 13.5516C3.59749 13.5616 3.58079 13.5683 3.56409 13.5683C3.55073 13.5683 3.52401 13.5649 3.50063 13.5415L2.50522 12.5461C2.47516 12.5161 2.47182 12.4693 2.4952 12.4326L3.31691 11.2802C3.42046 11.1332 3.42714 10.9395 3.33695 10.7858C3.07641 10.3516 2.87599 9.88058 2.74906 9.38956C2.7023 9.21921 2.562 9.08894 2.38831 9.05887L0.975365 8.81837C0.931942 8.81169 0.901879 8.77495 0.901879 8.73152L0.901879 7.32526C0.901879 7.28184 0.931942 7.24509 0.975365 7.23841L2.36827 7.00459C2.5453 6.97453 2.68894 6.84426 2.73236 6.67056C2.85595 6.17954 3.04635 5.70522 3.30355 5.26764C3.39374 5.11399 3.38372 4.92359 3.28017 4.77996L2.44843 3.61086C2.42505 3.57745 2.42839 3.52735 2.45846 3.49729L3.45386 2.50188C3.47724 2.4785 3.50063 2.47516 3.51733 2.47516C3.53737 2.47516 3.55407 2.48184 3.56743 2.49186L4.71983 3.31357C4.86681 3.41712 5.06054 3.4238 5.2142 3.33361C5.64843 3.07307 6.11942 2.87265 6.61044 2.74572C6.78079 2.69896 6.91106 2.55866 6.94113 2.38497L7.18163 0.972025C7.18831 0.928601 7.22505 0.898539 7.26848 0.898539L8.67474 0.898539C8.71816 0.898539 8.75491 0.928601 8.76159 0.972025L8.99541 2.36493C9.02547 2.54196 9.15574 2.6856 9.32944 2.72902C9.83382 2.85595 10.3148 3.05303 10.7624 3.31691C10.9161 3.4071 11.1065 3.40042 11.2534 3.29687L12.4058 2.46848C12.4225 2.45846 12.4392 2.45177 12.456 2.45177C12.4693 2.45177 12.496 2.45511 12.5194 2.4785L13.5148 3.4739C13.5449 3.50397 13.5482 3.55073 13.5248 3.58747L12.6998 4.74656C12.5962 4.89019 12.5896 5.08392 12.6798 5.23758C12.9403 5.67516 13.134 6.14614 13.261 6.63716C13.3044 6.81086 13.448 6.94113 13.6217 6.96785L15.0246 7.20501C15.0681 7.21169 15.0981 7.24843 15.0981 7.29186L15.0981 8.69812L15.0948 8.69812L15.0948 8.69812Z" transform="translate(-2.842171E-14 3.340292E-05)" id="Shape" fill="#555555" stroke="none" />
    <path d="M3.45052 0C1.54656 0 0 1.54656 0 3.45052C0 5.35449 1.54656 6.90104 3.45052 6.90104C5.35449 6.90104 6.90104 5.35449 6.90104 3.45052C6.90104 1.54656 5.35449 0 3.45052 0ZM3.45052 5.99917C2.04426 5.99917 0.901879 4.85679 0.901879 3.45052C0.901879 2.04426 2.04426 0.901879 3.45052 0.901879C4.85679 0.901879 5.99917 2.04426 5.99917 3.45052C5.99917 4.85679 4.85679 5.99917 3.45052 5.99917Z" transform="translate(4.546138 4.542831)" id="Shape" fill="#555555" stroke="none" />
  </g>
</svg>
