<?xml version="1.0" encoding="UTF-8"?>
<svg width="20px" height="24px" viewBox="0 0 20 24" version="1.1" xmlns="http://www.w3.org/2000/svg" xmlns:xlink="http://www.w3.org/1999/xlink">
    <!-- Generator: Sketch 50.2 (55047) - http://www.bohemiancoding.com/sketch -->
    <title>sign_in_icon</title>
    <desc>Created with Sketch.</desc>
    <defs></defs>
    <g id="Page-1" stroke="none" stroke-width="1" fill="none" fill-rule="evenodd">
        <g id="Artboard" transform="translate(-321.000000, -70.000000)" fill="#777777">
            <g id="sign_in_icon" transform="translate(331.000000, 82.000000) rotate(-180.000000) translate(-331.000000, -82.000000) translate(321.000000, 70.000000)">
                <path d="M20,12.0000173 C20,11.8289961 19.9298664,11.6808906 19.7900633,11.5558737 L13.7817818,6.18747354 C13.6419014,6.06262943 13.4763737,6 13.2848118,6 C13.0932499,6 12.9276448,6.06262943 12.7877257,6.18747354 C12.647884,6.31249046 12.5779051,6.46066506 12.5779051,6.63161715 L12.5779051,9.47365238 L7.62998363,9.47365238 C7.43842174,9.47365238 7.27273927,9.53628181 7.13285886,9.66112591 C6.99297845,9.7861774 6.92307692,9.93424831 6.92307692,10.1053041 L6.92307692,13.8946959 C6.92307692,14.0657517 6.99297845,14.2138226 7.13289754,14.3387704 C7.27289401,14.4635454 7.43857647,14.5263476 7.63002232,14.5263476 L12.5779051,14.5263476 L12.5779051,17.3683483 C12.5779051,17.5392658 12.647884,17.687475 12.7877257,17.8123882 C12.9277995,17.9374051 13.0934046,18 13.2848118,18 C13.4762576,18 13.6419014,17.9374051 13.7817818,17.8123882 L19.7900633,12.44423 C19.9298664,12.3190748 20,12.1709694 20,12.0000173 Z" id="Shape" fill-rule="nonzero" transform="translate(13.461538, 12.000000) rotate(-180.000000) translate(-13.461538, -12.000000) "></path>
                <path d="M0.0845308538,18 L1.70752325,18 L1.70752325,20.5 C1.70752325,21.6045695 2.60295375,22.5 3.70752325,22.5 L15.9374472,22.5 C17.0420167,22.5 17.9374472,21.6045695 17.9374472,20.5 L17.9374472,3.5 C17.9374472,2.3954305 17.0420167,1.5 15.9374472,1.5 L3.70752325,1.5 C2.60295375,1.5 1.70752325,2.3954305 1.70752325,3.5 L1.70752325,6 L0.0845308538,6 L0.0845308538,4 C0.0845308538,1.790861 1.87539185,4.05812251e-16 4.08453085,0 L15.5604396,0 C17.7695786,-4.05812251e-16 19.5604396,1.790861 19.5604396,4 L19.5604396,20 C19.5604396,22.209139 17.7695786,24 15.5604396,24 L4.08453085,24 C1.87539185,24 0.0845308538,22.209139 0.0845308538,20 L0.0845308538,18 Z" id="Combined-Shape" transform="translate(9.822485, 12.000000) rotate(-180.000000) translate(-9.822485, -12.000000) "></path>
            </g>
        </g>
    </g>
</svg>