<?xml version="1.0" encoding="utf-8"?>
<svg width="294px" height="32px" viewBox="0 0 294 32" version="1.1" xmlns:xlink="http://www.w3.org/1999/xlink" xmlns="http://www.w3.org/2000/svg">
  <desc>Created with Lunacy</desc>
  <g id="Group">
    <g id="Group-4">
      <g id="Group-9">
        <path d="M8.73819 0L23.2618 0Q23.4856 0 23.7079 0.0101865Q23.9303 0.0203731 24.1506 0.0407254Q24.371 0.0610777 24.5889 0.0915543Q24.8069 0.122031 25.022 0.162569Q25.2371 0.203108 25.4489 0.253626Q25.6608 0.304144 25.8689 0.364538Q26.077 0.424933 26.2809 0.49508Q26.4849 0.565228 26.6843 0.644985Q26.8837 0.724742 27.0781 0.813947Q27.2725 0.903152 27.4616 1.00162Q27.6506 1.10009 27.8339 1.20763Q28.0173 1.31516 28.1944 1.43154Q28.3716 1.54792 28.5423 1.67291Q28.713 1.79789 28.8769 1.93123Q29.0408 2.06457 29.1975 2.20599Q29.3542 2.34741 29.5034 2.49663Q29.6526 2.64584 29.794 2.80254Q29.9354 2.95924 30.0688 3.12311Q30.2021 3.28698 30.3271 3.45768Q30.4521 3.62838 30.5685 3.80557Q30.6848 3.98275 30.7924 4.16607Q30.8999 4.34938 30.9984 4.53844Q31.0969 4.7275 31.1861 4.92193Q31.2753 5.11635 31.355 5.31575Q31.4348 5.51514 31.5049 5.71909Q31.5751 5.92305 31.6355 6.13115Q31.6959 6.33925 31.7464 6.55107Q31.7969 6.76289 31.8374 6.97799Q31.878 7.1931 31.9084 7.41106Q31.9389 7.62902 31.9593 7.84938Q31.9796 8.06974 31.9898 8.29206Q32 8.51437 32 8.73819L32 23.2618Q32 23.4856 31.9898 23.7079Q31.9796 23.9303 31.9593 24.1506Q31.9389 24.371 31.9084 24.5889Q31.878 24.8069 31.8374 25.022Q31.7969 25.2371 31.7464 25.4489Q31.6959 25.6608 31.6355 25.8689Q31.5751 26.077 31.5049 26.2809Q31.4348 26.4849 31.355 26.6843Q31.2753 26.8837 31.1861 27.0781Q31.0969 27.2725 30.9984 27.4616Q30.8999 27.6506 30.7924 27.8339Q30.6848 28.0173 30.5685 28.1944Q30.4521 28.3716 30.3271 28.5423Q30.2021 28.713 30.0688 28.8769Q29.9354 29.0408 29.794 29.1975Q29.6526 29.3542 29.5034 29.5034Q29.3542 29.6526 29.1975 29.794Q29.0408 29.9354 28.8769 30.0688Q28.713 30.2021 28.5423 30.3271Q28.3716 30.4521 28.1944 30.5685Q28.0173 30.6848 27.8339 30.7924Q27.6506 30.8999 27.4616 30.9984Q27.2725 31.0969 27.0781 31.1861Q26.8837 31.2753 26.6843 31.355Q26.4849 31.4348 26.2809 31.5049Q26.077 31.5751 25.8689 31.6355Q25.6608 31.6959 25.4489 31.7464Q25.2371 31.7969 25.022 31.8374Q24.8069 31.878 24.5889 31.9084Q24.371 31.9389 24.1506 31.9593Q23.9303 31.9796 23.7079 31.9898Q23.4856 32 23.2618 32L8.73819 32Q8.51437 32 8.29206 31.9898Q8.06974 31.9796 7.84938 31.9593Q7.62902 31.9389 7.41106 31.9084Q7.1931 31.878 6.97799 31.8374Q6.76289 31.7969 6.55107 31.7464Q6.33925 31.6959 6.13115 31.6355Q5.92305 31.5751 5.71909 31.5049Q5.51514 31.4348 5.31574 31.355Q5.11635 31.2753 4.92193 31.1861Q4.7275 31.0969 4.53844 30.9984Q4.34938 30.8999 4.16607 30.7924Q3.98275 30.6848 3.80557 30.5685Q3.62838 30.4521 3.45768 30.3271Q3.28698 30.2021 3.12311 30.0688Q2.95924 29.9354 2.80254 29.794Q2.64584 29.6526 2.49663 29.5034Q2.34741 29.3542 2.20599 29.1975Q2.06457 29.0408 1.93123 28.8769Q1.79789 28.713 1.67291 28.5423Q1.54792 28.3716 1.43154 28.1944Q1.31516 28.0173 1.20763 27.8339Q1.10009 27.6506 1.00162 27.4616Q0.903152 27.2725 0.813947 27.0781Q0.724742 26.8837 0.644985 26.6843Q0.565228 26.4849 0.49508 26.2809Q0.424933 26.077 0.364538 25.8689Q0.304144 25.6608 0.253626 25.4489Q0.203108 25.2371 0.162569 25.022Q0.122031 24.8069 0.0915543 24.5889Q0.0610777 24.371 0.0407254 24.1506Q0.0203731 23.9303 0.0101865 23.7079Q0 23.4856 0 23.2618L0 8.73819Q0 8.51437 0.0101865 8.29206Q0.0203731 8.06974 0.0407254 7.84938Q0.0610777 7.62902 0.0915543 7.41106Q0.122031 7.1931 0.162569 6.97799Q0.203108 6.76289 0.253626 6.55107Q0.304144 6.33925 0.364538 6.13115Q0.424933 5.92305 0.49508 5.71909Q0.565228 5.51514 0.644985 5.31574Q0.724742 5.11635 0.813947 4.92193Q0.903152 4.7275 1.00162 4.53844Q1.10009 4.34938 1.20763 4.16607Q1.31516 3.98275 1.43154 3.80557Q1.54792 3.62838 1.67291 3.45768Q1.79789 3.28698 1.93123 3.12311Q2.06457 2.95924 2.20599 2.80254Q2.34741 2.64584 2.49663 2.49663Q2.64584 2.34741 2.80254 2.20599Q2.95924 2.06457 3.12311 1.93123Q3.28698 1.79789 3.45768 1.67291Q3.62838 1.54792 3.80557 1.43154Q3.98275 1.31516 4.16607 1.20763Q4.34938 1.10009 4.53844 1.00162Q4.7275 0.903152 4.92193 0.813947Q5.11635 0.724742 5.31575 0.644985Q5.51514 0.565228 5.71909 0.49508Q5.92305 0.424933 6.13115 0.364538Q6.33925 0.304144 6.55107 0.253626Q6.76289 0.203108 6.97799 0.162569Q7.1931 0.122031 7.41106 0.0915543Q7.62902 0.0610777 7.84938 0.0407254Q8.06974 0.0203731 8.29206 0.0101865Q8.51437 0 8.73819 0Z" id="Rectangle-9" fill="#FFFFFF" stroke="none" />
      </g>
      <g id="Group" transform="translate(4 4)">
        <g id="Group-3">
          <path d="M6.6351 0L10.3784 0L10.3784 3.74328Q10.3784 3.91323 10.3706 4.08204Q10.3629 4.25085 10.3475 4.41817Q10.332 4.5855 10.3089 4.751Q10.2857 4.9165 10.2549 5.07983Q10.2242 5.24317 10.1858 5.40401Q10.1474 5.56485 10.1016 5.72286Q10.0557 5.88088 10.0025 6.03575Q9.94919 6.19061 9.88863 6.34202Q9.82807 6.49342 9.76033 6.64105Q9.6926 6.78868 9.61783 6.93224Q9.54306 7.0758 9.4614 7.21499Q9.37975 7.35419 9.29138 7.48873Q9.20301 7.62327 9.1081 7.75289Q9.0132 7.88251 8.91195 8.00694Q8.8107 8.13136 8.70332 8.25035Q8.59594 8.36934 8.48264 8.48264Q8.36934 8.59594 8.25035 8.70332Q8.13136 8.8107 8.00694 8.91195Q7.88251 9.0132 7.75289 9.1081Q7.62327 9.20301 7.48873 9.29138Q7.35419 9.37975 7.21499 9.4614Q7.0758 9.54306 6.93224 9.61783Q6.78868 9.6926 6.64105 9.76033Q6.49342 9.82807 6.34202 9.88863Q6.19061 9.94919 6.03575 10.0025Q5.88088 10.0557 5.72286 10.1016Q5.56485 10.1474 5.40401 10.1858Q5.24317 10.2242 5.07983 10.2549Q4.9165 10.2857 4.751 10.3089Q4.5855 10.332 4.41817 10.3475Q4.25085 10.3629 4.08204 10.3706Q3.91323 10.3784 3.74328 10.3784L0 10.3784L0 6.6351Q0 6.46515 0.00773487 6.29634Q0.0154697 6.12753 0.0309237 5.96021Q0.0463777 5.79288 0.0695192 5.62738Q0.0926607 5.46188 0.123443 5.29854Q0.154224 5.13521 0.192584 4.97437Q0.230943 4.81353 0.276802 4.65551Q0.322661 4.4975 0.375925 4.34263Q0.42919 4.18777 0.489751 4.03636Q0.550313 3.88496 0.618048 3.73733Q0.685783 3.5897 0.760554 3.44614Q0.835324 3.30258 0.916977 3.16339Q0.998631 3.02419 1.087 2.88965Q1.17537 2.75511 1.27027 2.62549Q1.36518 2.49587 1.46643 2.37144Q1.56768 2.24702 1.67506 2.12803Q1.78244 2.00904 1.89574 1.89574Q2.00904 1.78244 2.12803 1.67506Q2.24702 1.56768 2.37144 1.46643Q2.49587 1.36518 2.62549 1.27027Q2.75511 1.17537 2.88965 1.087Q3.02419 0.99863 3.16339 0.916977Q3.30258 0.835324 3.44614 0.760554Q3.5897 0.685783 3.73733 0.618048Q3.88496 0.550313 4.03636 0.489751Q4.18777 0.42919 4.34263 0.375925Q4.4975 0.322661 4.65551 0.276802Q4.81353 0.230943 4.97437 0.192584Q5.13521 0.154224 5.29854 0.123443Q5.46188 0.0926607 5.62738 0.0695192Q5.79288 0.0463777 5.96021 0.0309237Q6.12753 0.0154697 6.29634 0.00773487Q6.46515 0 6.6351 0Z" id="Rectangle-16" fill="#EF5350" stroke="none" />
          <path d="M0 0L3.74328 0Q3.91323 0 4.08204 0.00773487Q4.25085 0.0154697 4.41817 0.0309237Q4.5855 0.0463777 4.751 0.0695192Q4.9165 0.0926607 5.07983 0.123443Q5.24317 0.154224 5.40401 0.192584Q5.56485 0.230943 5.72286 0.276802Q5.88088 0.322661 6.03575 0.375925Q6.19061 0.42919 6.34202 0.489751Q6.49342 0.550313 6.64105 0.618048Q6.78868 0.685783 6.93224 0.760554Q7.0758 0.835324 7.21499 0.916977Q7.35419 0.998631 7.48873 1.087Q7.62327 1.17537 7.75289 1.27027Q7.88251 1.36518 8.00694 1.46643Q8.13136 1.56768 8.25035 1.67506Q8.36934 1.78244 8.48264 1.89574Q8.59594 2.00904 8.70332 2.12803Q8.8107 2.24702 8.91195 2.37144Q9.0132 2.49587 9.1081 2.62549Q9.20301 2.75511 9.29138 2.88965Q9.37975 3.02419 9.4614 3.16339Q9.54306 3.30258 9.61783 3.44614Q9.6926 3.5897 9.76033 3.73733Q9.82807 3.88496 9.88863 4.03636Q9.94919 4.18777 10.0025 4.34263Q10.0557 4.4975 10.1016 4.65551Q10.1474 4.81353 10.1858 4.97437Q10.2242 5.13521 10.2549 5.29854Q10.2857 5.46188 10.3089 5.62738Q10.332 5.79288 10.3475 5.96021Q10.3629 6.12753 10.3706 6.29634Q10.3784 6.46515 10.3784 6.6351L10.3784 10.3784L6.6351 10.3784Q6.46515 10.3784 6.29634 10.3706Q6.12753 10.3629 5.96021 10.3475Q5.79288 10.332 5.62738 10.3089Q5.46188 10.2857 5.29854 10.2549Q5.13521 10.2242 4.97437 10.1858Q4.81353 10.1474 4.65551 10.1016Q4.4975 10.0557 4.34263 10.0025Q4.18777 9.94919 4.03636 9.88863Q3.88496 9.82807 3.73733 9.76033Q3.5897 9.6926 3.44614 9.61783Q3.30258 9.54306 3.16339 9.4614Q3.02419 9.37975 2.88965 9.29138Q2.75511 9.20301 2.62549 9.1081Q2.49587 9.0132 2.37144 8.91195Q2.24702 8.8107 2.12803 8.70332Q2.00904 8.59594 1.89574 8.48264Q1.78244 8.36934 1.67506 8.25035Q1.56768 8.13136 1.46643 8.00694Q1.36518 7.88251 1.27027 7.75289Q1.17537 7.62327 1.087 7.48873Q0.99863 7.35419 0.916977 7.21499Q0.835324 7.0758 0.760554 6.93224Q0.685783 6.78868 0.618048 6.64105Q0.550313 6.49342 0.489751 6.34202Q0.42919 6.19061 0.375925 6.03575Q0.322661 5.88088 0.276802 5.72286Q0.230943 5.56485 0.192584 5.40401Q0.154224 5.24317 0.123443 5.07983Q0.0926607 4.9165 0.0695192 4.751Q0.0463777 4.5855 0.0309237 4.41817Q0.0154697 4.25085 0.00773487 4.08204Q0 3.91323 0 3.74328L0 0Z" transform="translate(0 13.62162)" id="Rectangle-16-Copy-3" fill="#EF9A9A" stroke="none" />
          <path d="M0 0L3.74328 0Q3.91323 0 4.08204 0.00773487Q4.25085 0.0154697 4.41817 0.0309237Q4.5855 0.0463777 4.751 0.0695192Q4.9165 0.0926607 5.07983 0.123443Q5.24317 0.154224 5.40401 0.192584Q5.56485 0.230943 5.72286 0.276802Q5.88088 0.322661 6.03575 0.375925Q6.19061 0.42919 6.34202 0.489751Q6.49342 0.550313 6.64105 0.618048Q6.78868 0.685783 6.93224 0.760554Q7.0758 0.835324 7.21499 0.916977Q7.35419 0.998631 7.48873 1.087Q7.62327 1.17537 7.75289 1.27027Q7.88251 1.36518 8.00694 1.46643Q8.13136 1.56768 8.25035 1.67506Q8.36934 1.78244 8.48264 1.89574Q8.59594 2.00904 8.70332 2.12803Q8.8107 2.24702 8.91195 2.37144Q9.0132 2.49587 9.1081 2.62549Q9.20301 2.75511 9.29138 2.88965Q9.37975 3.02419 9.4614 3.16339Q9.54306 3.30258 9.61783 3.44614Q9.6926 3.5897 9.76033 3.73733Q9.82807 3.88496 9.88863 4.03636Q9.94919 4.18777 10.0025 4.34263Q10.0557 4.4975 10.1016 4.65551Q10.1474 4.81353 10.1858 4.97437Q10.2242 5.13521 10.2549 5.29854Q10.2857 5.46188 10.3089 5.62738Q10.332 5.79288 10.3475 5.96021Q10.3629 6.12753 10.3706 6.29634Q10.3784 6.46515 10.3784 6.6351L10.3784 10.3784L6.6351 10.3784Q6.46515 10.3784 6.29634 10.3706Q6.12753 10.3629 5.96021 10.3475Q5.79288 10.332 5.62738 10.3089Q5.46188 10.2857 5.29854 10.2549Q5.13521 10.2242 4.97437 10.1858Q4.81353 10.1474 4.65551 10.1016Q4.4975 10.0557 4.34263 10.0025Q4.18777 9.94919 4.03636 9.88863Q3.88496 9.82807 3.73733 9.76033Q3.5897 9.6926 3.44614 9.61783Q3.30258 9.54306 3.16339 9.4614Q3.02419 9.37975 2.88965 9.29138Q2.75511 9.20301 2.62549 9.1081Q2.49587 9.0132 2.37144 8.91195Q2.24702 8.8107 2.12803 8.70332Q2.00904 8.59594 1.89574 8.48264Q1.78244 8.36934 1.67506 8.25035Q1.56768 8.13136 1.46643 8.00694Q1.36518 7.88251 1.27027 7.75289Q1.17537 7.62327 1.087 7.48873Q0.99863 7.35419 0.916977 7.21499Q0.835324 7.0758 0.760554 6.93224Q0.685783 6.78868 0.618048 6.64105Q0.550313 6.49342 0.489751 6.34202Q0.42919 6.19061 0.375925 6.03575Q0.322661 5.88088 0.276802 5.72286Q0.230943 5.56485 0.192584 5.40401Q0.154224 5.24317 0.123443 5.07983Q0.0926607 4.9165 0.0695192 4.751Q0.0463777 4.5855 0.0309237 4.41817Q0.0154697 4.25085 0.00773487 4.08204Q0 3.91323 0 3.74328L0 0Z" transform="translate(13.62162 0)" id="Rectangle-16-Copy" fill="#00B396" stroke="none" />
          <path d="M6.6351 0L10.3784 0L10.3784 3.74328Q10.3784 3.91323 10.3706 4.08204Q10.3629 4.25085 10.3475 4.41817Q10.332 4.5855 10.3089 4.751Q10.2857 4.9165 10.2549 5.07983Q10.2242 5.24317 10.1858 5.40401Q10.1474 5.56485 10.1016 5.72286Q10.0557 5.88088 10.0025 6.03575Q9.94919 6.19061 9.88863 6.34202Q9.82807 6.49342 9.76033 6.64105Q9.6926 6.78868 9.61783 6.93224Q9.54306 7.0758 9.4614 7.21499Q9.37975 7.35419 9.29138 7.48873Q9.20301 7.62327 9.1081 7.75289Q9.0132 7.88251 8.91195 8.00694Q8.8107 8.13136 8.70332 8.25035Q8.59594 8.36934 8.48264 8.48264Q8.36934 8.59594 8.25035 8.70332Q8.13136 8.8107 8.00694 8.91195Q7.88251 9.0132 7.75289 9.1081Q7.62327 9.20301 7.48873 9.29138Q7.35419 9.37975 7.21499 9.4614Q7.0758 9.54306 6.93224 9.61783Q6.78868 9.6926 6.64105 9.76033Q6.49342 9.82807 6.34202 9.88863Q6.19061 9.94919 6.03575 10.0025Q5.88088 10.0557 5.72286 10.1016Q5.56485 10.1474 5.40401 10.1858Q5.24317 10.2242 5.07983 10.2549Q4.9165 10.2857 4.751 10.3089Q4.5855 10.332 4.41817 10.3475Q4.25085 10.3629 4.08204 10.3706Q3.91323 10.3784 3.74328 10.3784L0 10.3784L0 6.6351Q0 6.46515 0.00773487 6.29634Q0.0154697 6.12753 0.0309237 5.96021Q0.0463777 5.79288 0.0695192 5.62738Q0.0926607 5.46188 0.123443 5.29854Q0.154224 5.13521 0.192584 4.97437Q0.230943 4.81353 0.276802 4.65551Q0.322661 4.4975 0.375925 4.34263Q0.42919 4.18777 0.489751 4.03636Q0.550313 3.88496 0.618048 3.73733Q0.685783 3.5897 0.760554 3.44614Q0.835324 3.30258 0.916977 3.16339Q0.998631 3.02419 1.087 2.88965Q1.17537 2.75511 1.27027 2.62549Q1.36518 2.49587 1.46643 2.37144Q1.56768 2.24702 1.67506 2.12803Q1.78244 2.00904 1.89574 1.89574Q2.00904 1.78244 2.12803 1.67506Q2.24702 1.56768 2.37144 1.46643Q2.49587 1.36518 2.62549 1.27027Q2.75511 1.17537 2.88965 1.087Q3.02419 0.99863 3.16339 0.916977Q3.30258 0.835324 3.44614 0.760554Q3.5897 0.685783 3.73733 0.618048Q3.88496 0.550313 4.03636 0.489751Q4.18777 0.42919 4.34263 0.375925Q4.4975 0.322661 4.65551 0.276802Q4.81353 0.230943 4.97437 0.192584Q5.13521 0.154224 5.29854 0.123443Q5.46188 0.0926607 5.62738 0.0695192Q5.79288 0.0463777 5.96021 0.0309237Q6.12753 0.0154697 6.29634 0.00773487Q6.46515 0 6.6351 0Z" transform="translate(13.62162 13.62162)" id="Rectangle-16-Copy-4" fill="#03DAC4" stroke="none" />
        </g>
      </g>
    </g>
    <g id="NGO-Healthcare-Platform" fill="#333333" transform="translate(47 6)">
      <path d="M206.65 7.07617L204.014 7.07617L204.014 16.1387L201.709 16.1387L201.709 7.07617L199.932 7.07617L199.932 6.00195L201.709 5.29883L201.709 4.5957Q201.709 2.68164 202.607 1.75879Q203.506 0.835938 205.352 0.835938Q206.563 0.835938 207.734 1.23633L207.129 2.97461Q206.279 2.70117 205.508 2.70117Q204.727 2.70117 204.37 3.18457Q204.014 3.66797 204.014 4.63477L204.014 5.33789L206.65 5.33789L206.65 7.07617ZM90.9082 16.1387L93.2031 16.1387L93.2031 0.943359L90.9082 0.943359L90.9082 16.1387ZM111.543 16.1387L113.848 16.1387L113.848 9.09766Q113.848 5.14258 109.922 5.14258Q108.809 5.14258 107.974 5.57227Q107.139 6.00195 106.67 6.7832L106.523 6.7832Q106.641 5.72852 106.641 4.80078L106.641 0.943359L104.346 0.943359L104.346 16.1387L106.641 16.1387L106.641 10.7773Q106.641 8.74609 107.319 7.88184Q107.998 7.01758 109.443 7.01758Q110.537 7.01758 111.04 7.63281Q111.543 8.24805 111.543 9.49805L111.543 16.1387ZM176.191 16.1387L178.486 16.1387L178.486 0.943359L176.191 0.943359L176.191 16.1387ZM43.0029 14.4004Q44.7461 12.4668 44.7461 8.98047Q44.7461 5.48438 43.0078 3.56055Q41.2695 1.63672 38.0859 1.63672Q34.8535 1.63672 33.1104 3.53125Q31.3672 5.42578 31.3672 8.96094Q31.3672 12.4961 33.1006 14.415Q34.834 16.334 38.0664 16.334Q41.2598 16.334 43.0029 14.4004ZM23.3887 8.39453L28.6426 8.39453L28.6426 15.5625Q27.3535 15.9824 26.167 16.1582Q24.9805 16.334 23.6035 16.334Q20.3613 16.334 18.6035 14.415Q16.8457 12.4961 16.8457 9Q16.8457 5.55273 18.8281 3.60449Q20.8105 1.65625 24.2871 1.65625Q26.5234 1.65625 28.5254 2.51563L27.7051 4.45898Q25.9668 3.6582 24.2285 3.6582Q21.9434 3.6582 20.6152 5.09375Q19.2871 6.5293 19.2871 9.01953Q19.2871 11.6367 20.4834 12.999Q21.6797 14.3613 23.9258 14.3613Q25.0586 14.3613 26.3477 14.0781L26.3477 10.3965L23.3887 10.3965L23.3887 8.39453ZM13.7793 16.1387L10.918 16.1387L3.89648 4.76172L3.81836 4.76172L3.86719 5.39648Q4.00391 7.21289 4.00391 8.7168L4.00391 16.1387L1.88477 16.1387L1.88477 1.86133L4.7168 1.86133L11.7188 13.1797L11.7773 13.1797Q11.7578 12.9551 11.6992 11.5439Q11.6406 10.1328 11.6406 9.3418L11.6406 1.86133L13.7793 1.86133L13.7793 16.1387ZM64.2676 16.1387L61.9238 16.1387L61.9238 9.70313L55.3418 9.70313L55.3418 16.1387L53.0078 16.1387L53.0078 1.86133L55.3418 1.86133L55.3418 7.70117L61.9238 7.70117L61.9238 1.86133L64.2676 1.86133L64.2676 16.1387ZM173.584 6.17773Q173.584 8.41406 172.119 9.60547Q170.654 10.7969 167.949 10.7969L166.465 10.7969L166.465 16.1387L164.131 16.1387L164.131 1.86133L168.242 1.86133Q170.918 1.86133 172.251 2.95508Q173.584 4.04883 173.584 6.17773ZM100.508 14.4785Q101.348 14.4785 102.188 14.2148L102.188 15.9434Q101.807 16.1094 101.206 16.2217Q100.605 16.334 99.9609 16.334Q96.6992 16.334 96.6992 12.8965L96.6992 7.07617L95.2246 7.07617L95.2246 6.06055L96.8066 5.2207L97.5879 2.93555L99.0039 2.93555L99.0039 5.33789L102.08 5.33789L102.08 7.07617L99.0039 7.07617L99.0039 12.8574Q99.0039 13.6875 99.4189 14.083Q99.834 14.4785 100.508 14.4785ZM199.072 14.2148Q198.232 14.4785 197.393 14.4785Q196.719 14.4785 196.304 14.083Q195.889 13.6875 195.889 12.8574L195.889 7.07617L198.965 7.07617L198.965 5.33789L195.889 5.33789L195.889 2.93555L194.473 2.93555L193.691 5.2207L192.109 6.06055L192.109 7.07617L193.584 7.07617L193.584 12.8965Q193.584 16.334 196.846 16.334Q197.49 16.334 198.091 16.2217Q198.691 16.1094 199.072 15.9434L199.072 14.2148ZM34.9121 12.9795Q33.8477 11.6172 33.8477 8.98047Q33.8477 6.35352 34.917 4.99609Q35.9863 3.63867 38.0859 3.63867Q40.166 3.63867 41.2158 4.99609Q42.2656 6.35352 42.2656 8.98047Q42.2656 11.6465 41.2061 12.9941Q40.1465 14.3418 38.0664 14.3418Q35.9766 14.3418 34.9121 12.9795ZM166.465 8.83398L167.705 8.83398Q169.502 8.83398 170.342 8.20898Q171.182 7.58399 171.182 6.25586Q171.182 5.02539 170.43 4.41992Q169.678 3.81445 168.086 3.81445L166.465 3.81445L166.465 8.83398ZM68.5596 14.8643Q69.9805 16.334 72.5 16.334Q73.6035 16.334 74.4629 16.168Q75.3223 16.002 76.1621 15.6016L76.1621 13.7363Q75.2148 14.1563 74.3896 14.3369Q73.5645 14.5176 72.6074 14.5176Q71.1523 14.5176 70.3516 13.6729Q69.5508 12.8281 69.502 11.2559L76.6992 11.2559L76.6992 10.0156Q76.6992 7.74023 75.459 6.44141Q74.2188 5.14258 72.0801 5.14258Q69.7754 5.14258 68.457 6.65625Q67.1387 8.16992 67.1387 10.8164Q67.1387 13.3945 68.5596 14.8643ZM86.0645 16.1387L85.6055 14.6348L85.5273 14.6348Q84.7461 15.6211 83.9551 15.9775Q83.1641 16.334 81.9238 16.334Q80.332 16.334 79.4385 15.4746Q78.5449 14.6152 78.5449 13.043Q78.5449 11.373 79.7852 10.5234Q81.0254 9.67383 83.5645 9.5957L85.4297 9.53711L85.4297 8.96094Q85.4297 7.92578 84.9463 7.41309Q84.4629 6.90039 83.4473 6.90039Q82.6172 6.90039 81.8555 7.14453Q81.0938 7.38867 80.3906 7.7207L79.6484 6.08008Q80.5273 5.62109 81.5723 5.38184Q82.6172 5.14258 83.5449 5.14258Q85.6055 5.14258 86.6553 6.04102Q87.7051 6.93945 87.7051 8.86328L87.7051 16.1387L86.0645 16.1387ZM121.396 16.334Q118.945 16.334 117.671 14.9033Q116.396 13.4727 116.396 10.7969Q116.396 8.07227 117.729 6.60742Q119.063 5.14258 121.582 5.14258Q123.291 5.14258 124.658 5.77734L123.965 7.62305Q122.51 7.05664 121.563 7.05664Q118.76 7.05664 118.76 10.7773Q118.76 12.5938 119.458 13.5068Q120.156 14.4199 121.504 14.4199Q123.037 14.4199 124.404 13.6582L124.404 15.6602Q123.789 16.0215 123.091 16.1777Q122.393 16.334 121.396 16.334ZM133.242 14.6348L133.701 16.1387L135.342 16.1387L135.342 8.86328Q135.342 6.93945 134.292 6.04102Q133.242 5.14258 131.182 5.14258Q130.254 5.14258 129.209 5.38184Q128.164 5.62109 127.285 6.08008L128.027 7.7207Q128.73 7.38867 129.492 7.14453Q130.254 6.90039 131.084 6.90039Q132.1 6.90039 132.583 7.41309Q133.066 7.92578 133.066 8.96094L133.066 9.53711L131.201 9.5957Q128.662 9.67383 127.422 10.5234Q126.182 11.373 126.182 13.043Q126.182 14.6152 127.075 15.4746Q127.969 16.334 129.561 16.334Q130.801 16.334 131.592 15.9775Q132.383 15.6211 133.164 14.6348L133.242 14.6348ZM144.023 5.14258Q144.717 5.14258 145.166 5.24023L144.941 7.37891Q144.453 7.26172 143.926 7.26172Q142.549 7.26172 141.694 8.16016Q140.84 9.05859 140.84 10.4941L140.84 16.1387L138.545 16.1387L138.545 5.33789L140.342 5.33789L140.645 7.24219L140.762 7.24219Q141.299 6.27539 142.163 5.70898Q143.027 5.14258 144.023 5.14258ZM147.944 14.8643Q149.365 16.334 151.885 16.334Q152.988 16.334 153.848 16.168Q154.707 16.002 155.547 15.6016L155.547 13.7363Q154.6 14.1563 153.774 14.3369Q152.949 14.5176 151.992 14.5176Q150.537 14.5176 149.736 13.6729Q148.936 12.8281 148.887 11.2559L156.084 11.2559L156.084 10.0156Q156.084 7.74023 154.844 6.44141Q153.604 5.14258 151.465 5.14258Q149.16 5.14258 147.842 6.65625Q146.523 8.16992 146.523 10.8164Q146.523 13.3945 147.944 14.8643ZM188.525 16.1387L188.066 14.6348L187.988 14.6348Q187.207 15.6211 186.416 15.9775Q185.625 16.334 184.385 16.334Q182.793 16.334 181.899 15.4746Q181.006 14.6152 181.006 13.043Q181.006 11.373 182.246 10.5234Q183.486 9.67383 186.025 9.5957L187.891 9.53711L187.891 8.96094Q187.891 7.92578 187.407 7.41309Q186.924 6.90039 185.908 6.90039Q185.078 6.90039 184.316 7.14453Q183.555 7.38867 182.852 7.7207L182.109 6.08008Q182.988 5.62109 184.033 5.38184Q185.078 5.14258 186.006 5.14258Q188.066 5.14258 189.116 6.04102Q190.166 6.93945 190.166 8.86328L190.166 16.1387L188.525 16.1387ZM216.709 14.8496Q218.066 13.3652 218.066 10.7188Q218.066 8.16016 216.699 6.65137Q215.332 5.14258 212.988 5.14258Q210.537 5.14258 209.189 6.61719Q207.842 8.0918 207.842 10.7188Q207.842 12.4082 208.467 13.6875Q209.092 14.9668 210.254 15.6504Q211.416 16.334 212.93 16.334Q215.352 16.334 216.709 14.8496ZM226.182 5.14258Q226.875 5.14258 227.324 5.24023L227.1 7.37891Q226.611 7.26172 226.084 7.26172Q224.707 7.26172 223.853 8.16016Q222.998 9.05859 222.998 10.4941L222.998 16.1387L220.703 16.1387L220.703 5.33789L222.5 5.33789L222.803 7.24219L222.92 7.24219Q223.457 6.27539 224.321 5.70898Q225.186 5.14258 226.182 5.14258ZM236.123 16.1387L238.428 16.1387L238.428 10.416Q238.428 8.6875 239.048 7.85254Q239.668 7.01758 241.006 7.01758Q242.002 7.01758 242.476 7.62793Q242.949 8.23828 242.949 9.47852L242.949 16.1387L245.244 16.1387L245.244 9.09766Q245.244 7.0957 244.36 6.11914Q243.477 5.14258 241.543 5.14258Q240.42 5.14258 239.551 5.5918Q238.682 6.04102 238.203 6.8418L238.047 6.8418Q237.236 5.14258 234.746 5.14258Q233.721 5.14258 232.866 5.5625Q232.012 5.98242 231.563 6.75391L231.445 6.75391L231.123 5.33789L229.326 5.33789L229.326 16.1387L231.621 16.1387L231.621 10.7578Q231.621 8.74609 232.241 7.88184Q232.861 7.01758 234.189 7.01758Q235.186 7.01758 235.654 7.62793Q236.123 8.23828 236.123 9.47852L236.123 16.1387ZM70.3271 7.57422Q70.9863 6.88086 72.0801 6.88086Q73.1738 6.88086 73.7988 7.56934Q74.4238 8.25781 74.4434 9.5957L69.541 9.5957Q69.668 8.26758 70.3271 7.57422ZM149.712 7.57422Q150.371 6.88086 151.465 6.88086Q152.559 6.88086 153.184 7.56934Q153.809 8.25781 153.828 9.5957L148.926 9.5957Q149.053 8.26758 149.712 7.57422ZM212.969 14.459Q210.205 14.459 210.205 10.7188Q210.205 8.93164 210.854 7.97461Q211.504 7.01758 212.949 7.01758Q215.703 7.01758 215.703 10.7188Q215.703 14.459 212.969 14.459ZM82.6465 14.5762Q83.8965 14.5762 84.6533 13.8779Q85.4102 13.1797 85.4102 11.9199L85.4102 10.9824L84.0234 11.041Q82.4023 11.0996 81.665 11.583Q80.9277 12.0664 80.9277 13.0625Q80.9277 13.7852 81.3574 14.1807Q81.7871 14.5762 82.6465 14.5762ZM132.29 13.8779Q131.533 14.5762 130.283 14.5762Q129.424 14.5762 128.994 14.1807Q128.564 13.7852 128.564 13.0625Q128.564 12.0664 129.302 11.583Q130.039 11.0996 131.66 11.041L133.047 10.9824L133.047 11.9199Q133.047 13.1797 132.29 13.8779ZM185.107 14.5762Q186.357 14.5762 187.114 13.8779Q187.871 13.1797 187.871 11.9199L187.871 10.9824L186.484 11.041Q184.863 11.0996 184.126 11.583Q183.389 12.0664 183.389 13.0625Q183.389 13.7852 183.818 14.1807Q184.248 14.5762 185.107 14.5762Z" />
    </g>
  </g>
</svg>