<?xml version="1.0" encoding="utf-8"?>
<svg width="15px" height="16px" viewBox="0 0 15 16" version="1.1" xmlns:xlink="http://www.w3.org/1999/xlink" xmlns="http://www.w3.org/2000/svg">
  <g id="stats_icon">
    <path d="M0 0L4 0L4 1L1 1L1 11L4 11L4 12L0 12L0 0Z" transform="translate(5 4)" id="Rectangle-11-Copy" fill="#555555" stroke="none" />
    <path d="M0 0L4 0L4 1L1 1L1 7L4 7L4 8L0 8L0 0Z" transform="translate(0 8)" id="Rectangle-11-Copy-3" fill="#555555" stroke="none" />
    <path d="M0 0L5 0L5 16L1 16L1 15L4 15L4 1L1 1L1 16L0 16L0 0Z" transform="translate(10 0)" id="Rectangle-11-Copy-2" fill="#555555" stroke="none" />
  </g>
</svg>