<?xml version="1.0" encoding="utf-8"?>
<svg width="22px" height="20px" viewBox="0 0 22 20" version="1.1" xmlns:xlink="http://www.w3.org/1999/xlink" xmlns="http://www.w3.org/2000/svg">
  <desc>Created with Lunacy</desc>
  <path d="M14 0L5 0C4.17 0 3.46 0.5 3.16 1.22L0.14 8.27C0.05 8.5 0 8.74 0 9L0 11C0 12.1 0.9 13 2 13L8.31 13L7.36 17.57L7.33 17.89C7.33 18.3 7.5 18.68 7.77 18.95L8.83 20L15.42 13.41C15.78 13.05 16 12.55 16 12L16 2C16 0.9 15.1 0 14 0ZM18 0L18 12L22 12L22 0L18 0Z" id="Shape" fill="#EF5350" stroke="none" />
</svg>