<?xml version="1.0" encoding="UTF-8"?>
<svg width="87px" height="80px" viewBox="0 0 87 80" version="1.1" xmlns="http://www.w3.org/2000/svg" xmlns:xlink="http://www.w3.org/1999/xlink">
    <!-- Generator: Sketch 50.2 (55047) - http://www.bohemiancoding.com/sketch -->
    <title>users_icon</title>
    <desc>Created with Sketch.</desc>
    <defs></defs>
    <g id="Page-1" stroke="none" stroke-width="1" fill="none" fill-rule="evenodd">
        <g id="Artboard" transform="translate(-382.000000, -154.000000)" fill="#EF5350" fill-rule="nonzero">
            <g id="users_icon" transform="translate(382.000000, 154.000000)">
                <path d="M23.8363799,11.2318699 C23.8363799,5.06113821 28.8208156,0.0585365854 34.9699497,0.0585365854 C41.1182737,0.0585365854 46.1031955,5.06113821 46.1031955,11.2318699 C46.1031955,17.4026016 41.1182737,22.4050407 34.9699497,22.4050407 C28.8208156,22.4052033 23.8363799,17.4026016 23.8363799,11.2318699 Z M40.3202067,30.0173984 C40.4318324,27.5843902 41.266352,25.3325203 42.6089385,23.4708943 C41.6666816,23.2728455 40.6928324,23.1676423 39.6935475,23.1676423 L30.247648,23.1676423 C29.2512793,23.1676423 28.2787263,23.2720325 27.3413296,23.4676423 C28.7701061,25.4565854 29.6247151,27.8856911 29.638648,30.5152846 C31.3754078,29.5565854 33.3681453,29.0107317 35.4848212,29.0107317 C37.2018156,29.0107317 38.8363464,29.3697561 40.3202067,30.0173984 Z M42.2047207,31.0203252 C45.4384637,33.0556098 47.7061341,36.4980488 48.1208827,40.4957724 C49.4385196,41.1138211 50.9027765,41.4704065 52.4540335,41.4704065 C58.1192402,41.4704065 62.7111229,36.8613008 62.7111229,31.1756098 C62.7111229,25.4892683 58.1192402,20.8811382 52.4540335,20.8811382 C46.8406704,20.8813008 42.2899385,25.4076423 42.2047207,31.0203252 Z M35.4846592,52.0993496 C41.1488939,52.0993496 45.7411006,47.4889431 45.7411006,41.804878 C45.7411006,36.12 41.1488939,31.5104065 35.4846592,31.5104065 C29.8199385,31.5104065 25.2257877,36.1198374 25.2257877,41.804878 C25.2259497,47.4889431 29.8199385,52.0993496 35.4846592,52.0993496 Z M39.8356313,52.8 L31.1328771,52.8 C23.8914637,52.8 17.9987933,58.7136585 17.9987933,65.982439 L17.9987933,76.6658537 L18.0264972,76.8331707 L18.7591117,77.0617886 C25.6701844,79.2281301 31.6743184,79.9526829 36.6166313,79.9526829 C46.2677989,79.9526829 51.8641508,77.1905691 52.2089106,77.0138211 L52.8943799,76.6656911 L52.9671229,76.6656911 L52.9671229,65.9822764 C52.9672849,58.7136585 47.0780168,52.8 39.8356313,52.8 Z M56.8072737,42.1730081 L48.1698101,42.1730081 C48.0760056,45.641626 46.6010559,48.7652033 44.268419,51.0104065 C50.7054469,52.9315447 55.4151117,58.9221138 55.4151117,65.9986992 L55.4151117,69.2905691 C63.9415978,68.9754472 68.8560447,66.5513821 69.179743,66.3879675 L69.8653743,66.0380488 L69.9381173,66.0380488 L69.9381173,55.3526829 C69.9390894,48.0858537 64.046905,42.1730081 56.8072737,42.1730081 Z M59.116095,20.661626 C62.35,22.6972358 64.6175084,26.1398374 65.0312849,30.137561 C66.3490838,30.7556098 67.8131788,31.1115447 69.3644358,31.1115447 C75.0307765,31.1115447 79.6223352,26.5030894 79.6223352,20.8182114 C79.6223352,15.1317073 75.0306145,10.5237398 69.3644358,10.5237398 C63.7518827,10.5230894 59.2014749,15.0504065 59.116095,20.661626 Z M73.7167039,31.8143089 L65.0810223,31.8143089 C64.9872179,35.2829268 63.5124302,38.4065041 61.1797933,40.6515447 C67.6166592,42.5720325 72.326324,48.5634146 72.326324,55.64 L72.326324,58.9318699 C80.852,58.6173984 85.767419,56.1936585 86.0911173,56.0291057 L86.7757765,55.6803252 L86.8494916,55.6803252 L86.8494916,44.9936585 C86.8504637,37.7274797 80.9582793,31.8143089 73.7167039,31.8143089 Z M17.487,41.4705691 C19.4936704,41.4705691 21.3595531,40.8822764 22.9419162,39.880813 C23.4451229,36.5895935 25.2032682,33.7130081 27.7137933,31.7547967 C27.724324,31.561626 27.7419832,31.3708943 27.7419832,31.1757724 C27.7419832,25.4894309 23.1488045,20.8813008 17.487,20.8813008 C11.8203352,20.8813008 7.22910056,25.4892683 7.22910056,31.1757724 C7.22910056,36.862439 11.8201732,41.4705691 17.487,41.4705691 Z M26.6986313,51.0104065 C24.3768492,48.775935 22.9069218,45.6694309 22.7986983,42.2209756 C22.4793743,42.1970732 22.1623184,42.1730081 21.8358659,42.1730081 L13.1340838,42.1730081 C5.89169832,42.1730081 0,48.0858537 0,55.3536585 L0,66.0380488 L0.0268938547,66.2043902 L0.760480447,66.4339837 C6.30353073,68.1736585 11.252486,68.9731707 15.5508045,69.2230894 L15.5508045,65.997561 C15.5516145,58.9221138 20.2601453,52.9305691 26.6986313,51.0104065 Z" id="Shape"></path>
            </g>
        </g>
    </g>
</svg>