<?xml version="1.0" encoding="utf-8"?>
<svg width="24px" height="24px" viewBox="0 0 24 24" version="1.1" xmlns:xlink="http://www.w3.org/1999/xlink" xmlns="http://www.w3.org/2000/svg">
  <desc>Created with Lunacy</desc>
  <defs>
    <path d="M12 24C18.6274 24 24 18.6274 24 12C24 5.37258 18.6274 0 12 0C5.37258 0 0 5.37258 0 12C0 18.6274 5.37258 24 12 24Z" id="path_1" />
    <clipPath id="clip_1">
      <use xlink:href="#path_1" />
    </clipPath>
  </defs>
  <g id="Group-4">
    <g id="Combined-Shape">
      <g clip-path="url(#clip_1)">
        <use xlink:href="#path_1" fill="none" stroke="#0097B3" stroke-width="2.4" />
      </g>
    </g>
    <g id="user-2" transform="translate(4.8 4)">
      <path d="M9.70714 8.86824C11.0853 8.02934 11.9841 6.53135 11.9841 4.79366C11.9841 2.15714 9.82696 0 7.19047 0C4.55399 0 2.39682 2.15714 2.39682 4.79366C2.39682 6.53135 3.29561 8.02937 4.67378 8.86824C2.27696 9.76707 0.479346 11.8643 0 14.3809L1.19842 14.3809C1.79762 11.6246 4.25439 9.58729 7.19047 9.58729C10.1266 9.58729 12.5833 11.6246 13.1825 14.3809L14.3809 14.3809C13.9016 11.8044 12.104 9.70714 9.70714 8.86824ZM3.59524 4.79366C3.59524 2.81629 5.21311 1.19842 7.19047 1.19842C9.16784 1.19842 10.7857 2.81629 10.7857 4.79366C10.7857 6.77103 9.16784 8.3889 7.19047 8.3889C5.21311 8.3889 3.59524 6.77103 3.59524 4.79366Z" id="Shape" fill="#0097B3" stroke="none" />
    </g>
  </g>
</svg>