<?xml version="1.0" encoding="utf-8"?>
<svg width="14px" height="14px" viewBox="0 0 14 14" version="1.1" xmlns:xlink="http://www.w3.org/1999/xlink" xmlns="http://www.w3.org/2000/svg">
  <desc>Created with Lunacy</desc>
  <g id="user-2">
    <path d="M9.4375 8.6219C10.7774 7.80631 11.6512 6.34993 11.6512 4.6605C11.6512 2.09722 9.55399 0 6.99074 0C4.42749 0 2.33024 2.09722 2.33024 4.6605C2.33024 6.34993 3.20407 7.80633 4.54395 8.6219C2.21372 9.49576 0.466031 11.5347 0 13.9815L0.901251 13.9815C1.4838 11.3017 4.13621 9.05626 6.99074 9.05626C9.84527 9.05626 12.4987 11.3017 13.0813 13.9815L13.9815 13.9815C13.5154 11.4765 11.7678 9.4375 9.4375 8.6219ZM3.2375 4.6375C3.2375 2.56814 4.93064 0.875 7 0.875C9.06936 0.875 10.7625 2.56814 10.7625 4.6375C10.7625 6.70686 9.06936 8.4 7 8.4C4.93064 8.4 3.2375 6.70686 3.2375 4.6375Z" id="Shape" fill="#555555" stroke="none" />
  </g>
</svg>