<?xml version="1.0" encoding="utf-8"?>
<svg width="67px" height="64px" viewBox="0 0 67 64" version="1.1" xmlns:xlink="http://www.w3.org/1999/xlink" xmlns="http://www.w3.org/2000/svg">
  <desc>Created with Lunacy</desc>
  <g id="word">
    <g id="Group">
      <path d="M38.5586 0.310668C38.2274 0.0432214 37.7913 -0.0590225 37.3749 0.0332051L1.08332 8.35841C0.444591 8.50436 -0.00608821 9.07229 6.21851e-05 9.72374L6.21851e-05 56.8999C0.000323904 57.5846 0.502955 58.1668 1.18369 58.2709L37.4753 63.821C38.2373 63.9375 38.95 63.4179 39.0671 62.6606C39.0778 62.591 39.0833 62.5206 39.0833 62.4502L39.0833 1.39854C39.0846 0.975384 38.8913 0.574864 38.5586 0.310668Z" transform="translate(-6.218515E-05 0.08139651)" id="Shape" fill="#0070F7" stroke="none" />
      <path d="M29.3126 52.7262L1.39588 52.7262C0.624984 52.7262 0 52.105 0 51.3387C0 50.5724 0.624984 49.9511 1.39588 49.9511L27.9168 49.9511L27.9168 2.77502L1.39588 2.77502C0.624984 2.77502 0 2.15376 0 1.38745C0 0.621138 0.624984 0 1.39588 0L29.3125 0C30.0834 0 30.7084 0.621268 30.7084 1.38758L30.7084 51.3388C30.7084 52.1051 30.0835 52.7262 29.3126 52.7262Z" transform="translate(36.29162 5.642537)" id="Shape" fill="#0070F7" stroke="none" />
    </g>
    <path d="M18.1589 22.2385C17.537 22.2379 16.9906 21.8281 16.8189 21.2339L12.5756 6.47607L8.33218 21.2339C8.02571 21.9703 7.17669 22.3204 6.43577 22.0157C6.07957 21.8692 5.79665 21.588 5.6493 21.2339L0.0660564 1.80849C-0.167658 1.07822 0.238529 0.297989 0.973174 0.0656636C1.70782 -0.166662 2.49271 0.237111 2.72643 0.967387C2.73467 0.993143 2.74213 1.01916 2.74894 1.04531L6.99218 15.8003L11.2356 1.04257C11.542 0.306184 12.391 -0.0438648 13.132 0.260786C13.4882 0.407257 13.7711 0.688493 13.9184 1.04257L18.1589 15.8004L22.4023 1.04544C22.6032 0.31516 23.3616 -0.115019 24.0963 0.0846555C24.1068 0.0875173 24.1171 0.0905092 24.1276 0.093501C24.8682 0.304493 25.2968 1.0721 25.0851 1.80849L19.5017 21.2339C19.3297 21.8292 18.7818 22.2391 18.1589 22.2385Z" transform="translate(5.570319 22.25499)" id="Shape" fill="#FAFAFA" stroke="none" />
    <g id="Group" transform="translate(36.24805 13.9187)">
      <path d="M23.7293 2.77515L1.39588 2.77515C0.624984 2.77515 0 2.15389 0 1.38758C0 0.621268 0.624984 0 1.39588 0L23.7293 0C24.5001 0 25.1251 0.621268 25.1251 1.38758C25.1251 2.15402 24.5001 2.77515 23.7293 2.77515Z" transform="translate(0.04357617 0.04891057)" id="Shape" fill="#0070F7" stroke="none" />
      <path d="M23.7293 2.77515L1.39588 2.77515C0.624984 2.77515 0 2.15389 0 1.38758C0 0.621268 0.624984 0 1.39588 0L23.7293 0C24.5001 0 25.1251 0.621268 25.1251 1.38758C25.1251 2.15389 24.5001 2.77515 23.7293 2.77515Z" transform="translate(0.04357617 8.374114)" id="Shape" fill="#0070F7" stroke="none" />
      <path d="M23.7293 2.77515L1.39588 2.77515C0.624984 2.77515 0 2.15389 0 1.38758C0 0.621268 0.624984 0 1.39588 0L23.7293 0C24.5001 0 25.1251 0.621268 25.1251 1.38758C25.1251 2.15402 24.5001 2.77515 23.7293 2.77515Z" transform="translate(0.04357617 16.69932)" id="Shape" fill="#0070F7" stroke="none" />
      <path d="M23.7293 2.77515L1.39588 2.77515C0.624984 2.77515 0 2.15389 0 1.38758C0 0.621268 0.624984 0 1.39588 0L23.7293 0C24.5001 0 25.1251 0.621268 25.1251 1.38758C25.1251 2.15402 24.5001 2.77515 23.7293 2.77515Z" transform="translate(0.04357617 25.02452)" id="Shape" fill="#0070F7" stroke="none" />
      <path d="M23.7293 2.77515L1.39588 2.77515C0.624984 2.77515 0 2.15389 0 1.38758C0 0.621268 0.624984 0 1.39588 0L23.7293 0C24.5001 0 25.1251 0.621268 25.1251 1.38758C25.1251 2.15402 24.5001 2.77515 23.7293 2.77515Z" transform="translate(0.04357617 33.34972)" id="Shape" fill="#0070F7" stroke="none" />
    </g>
  </g>
</svg>